G04 #@! TF.GenerationSoftware,KiCad,Pcbnew,8.0.6*
G04 #@! TF.CreationDate,2024-12-27T11:38:37-05:00*
G04 #@! TF.ProjectId,sdl_breakout,73646c5f-6272-4656-916b-6f75742e6b69,rev?*
G04 #@! TF.SameCoordinates,Original*
G04 #@! TF.FileFunction,Legend,Bot*
G04 #@! TF.FilePolarity,Positive*
%FSLAX46Y46*%
G04 Gerber Fmt 4.6, Leading zero omitted, Abs format (unit mm)*
G04 Created by KiCad (PCBNEW 8.0.6) date 2024-12-27 11:38:37*
%MOMM*%
%LPD*%
G01*
G04 APERTURE LIST*
%ADD10C,1.650000*%
%ADD11R,1.650000X1.650000*%
%ADD12R,1.950000X1.950000*%
%ADD13C,1.950000*%
%ADD14R,1.200000X1.200000*%
%ADD15C,1.200000*%
%ADD16R,1.100000X1.100000*%
%ADD17C,1.100000*%
G04 APERTURE END LIST*
%LPC*%
D10*
G04 #@! TO.C,U19*
X246850000Y-135500000D03*
X244310000Y-135500000D03*
X241770000Y-135500000D03*
X239230000Y-135500000D03*
X236690000Y-135500000D03*
D11*
X234150000Y-135500000D03*
G04 #@! TD*
G04 #@! TO.C,U10*
X189150000Y-135500000D03*
D10*
X191690000Y-135500000D03*
X194230000Y-135500000D03*
X196770000Y-135500000D03*
X199310000Y-135500000D03*
X201850000Y-135500000D03*
G04 #@! TD*
D11*
G04 #@! TO.C,U21*
X260420000Y-110500000D03*
D10*
X262960000Y-110500000D03*
X265500000Y-110500000D03*
G04 #@! TD*
D12*
G04 #@! TO.C,U3*
X137000000Y-127000000D03*
D13*
X137000000Y-132080000D03*
G04 #@! TD*
D11*
G04 #@! TO.C,U11*
X189109500Y-110500500D03*
D10*
X191649500Y-110500500D03*
X194189500Y-110500500D03*
X196729500Y-110500500D03*
X199269500Y-110500500D03*
X201809500Y-110500500D03*
X204349500Y-110500500D03*
X206889500Y-110500500D03*
G04 #@! TD*
G04 #@! TO.C,U8*
X168389500Y-110500500D03*
X165849500Y-110500500D03*
X163309500Y-110500500D03*
X160769500Y-110500500D03*
X158229500Y-110500500D03*
X155689500Y-110500500D03*
X153149500Y-110500500D03*
D11*
X150609500Y-110500500D03*
G04 #@! TD*
G04 #@! TO.C,U16*
X242000000Y-110500000D03*
D10*
X244540000Y-110500000D03*
X247080000Y-110500000D03*
G04 #@! TD*
D14*
G04 #@! TO.C,U18*
X243000000Y-124500000D03*
D15*
X248000000Y-124500000D03*
G04 #@! TD*
D11*
G04 #@! TO.C,U13*
X229500000Y-110500000D03*
D10*
X232040000Y-110500000D03*
X234580000Y-110500000D03*
G04 #@! TD*
D11*
G04 #@! TO.C,U20*
X260420000Y-135500000D03*
D10*
X262960000Y-135500000D03*
X265500000Y-135500000D03*
G04 #@! TD*
D11*
G04 #@! TO.C,U4*
X137500000Y-112730000D03*
D10*
X137500000Y-115270000D03*
G04 #@! TD*
D12*
G04 #@! TO.C,U9*
X220185000Y-113500000D03*
D13*
X215105000Y-113500000D03*
G04 #@! TD*
D16*
G04 #@! TO.C,U1*
X145500000Y-128000000D03*
D17*
X145500000Y-130000000D03*
G04 #@! TD*
D14*
G04 #@! TO.C,U15*
X229500000Y-124500000D03*
D15*
X234500000Y-124500000D03*
G04 #@! TD*
D12*
G04 #@! TO.C,U12*
X181185000Y-113500000D03*
D13*
X176105000Y-113500000D03*
G04 #@! TD*
D10*
G04 #@! TO.C,U7*
X163540000Y-135500000D03*
X161000000Y-135500000D03*
X158460000Y-135500000D03*
X155920000Y-135500000D03*
X153380000Y-135500000D03*
D11*
X150840000Y-135500000D03*
G04 #@! TD*
%LPD*%
M02*
