M48
; DRILL file {KiCad 8.0.6} date 2024-12-27T11:38:38-0500
; FORMAT={-:-/ absolute / metric / decimal}
; #@! TF.CreationDate,2024-12-27T11:38:38-05:00
; #@! TF.GenerationSoftware,Kicad,Pcbnew,8.0.6
; #@! TF.FileFunction,Plated,1,2,PTH
FMAT,2
METRIC
; #@! TA.AperFunction,Plated,PTH,ComponentDrill
T1C0.700
; #@! TA.AperFunction,Plated,PTH,ComponentDrill
T2C0.800
; #@! TA.AperFunction,Plated,PTH,ComponentDrill
T3C1.100
; #@! TA.AperFunction,Plated,PTH,ComponentDrill
T4C1.300
%
G90
G05
T1
X145.5Y-128.0
X145.5Y-130.0
T2
X229.5Y-124.5
X234.5Y-124.5
X243.0Y-124.5
X248.0Y-124.5
T3
X137.5Y-112.73
X137.5Y-115.27
X150.609Y-110.5
X150.84Y-135.5
X153.149Y-110.5
X153.38Y-135.5
X155.689Y-110.5
X155.92Y-135.5
X158.23Y-110.5
X158.46Y-135.5
X160.769Y-110.5
X161.0Y-135.5
X163.309Y-110.5
X163.54Y-135.5
X165.85Y-110.5
X168.389Y-110.5
X189.109Y-110.5
X189.15Y-135.5
X191.649Y-110.5
X191.69Y-135.5
X194.189Y-110.5
X194.23Y-135.5
X196.73Y-110.5
X196.77Y-135.5
X199.269Y-110.5
X199.31Y-135.5
X201.809Y-110.5
X201.85Y-135.5
X204.349Y-110.5
X206.889Y-110.5
X229.5Y-110.5
X232.04Y-110.5
X234.15Y-135.5
X234.58Y-110.5
X236.69Y-135.5
X239.23Y-135.5
X241.77Y-135.5
X242.0Y-110.5
X244.31Y-135.5
X244.54Y-110.5
X246.85Y-135.5
X247.08Y-110.5
X260.42Y-110.5
X260.42Y-135.5
X262.96Y-110.5
X262.96Y-135.5
X265.5Y-110.5
X265.5Y-135.5
T4
X137.0Y-127.0
X137.0Y-132.08
X176.105Y-113.5
X181.185Y-113.5
X215.105Y-113.5
X220.185Y-113.5
M30
