G04 #@! TF.GenerationSoftware,KiCad,Pcbnew,8.0.6*
G04 #@! TF.CreationDate,2024-12-27T11:38:37-05:00*
G04 #@! TF.ProjectId,sdl_breakout,73646c5f-6272-4656-916b-6f75742e6b69,rev?*
G04 #@! TF.SameCoordinates,Original*
G04 #@! TF.FileFunction,Copper,L2,Bot*
G04 #@! TF.FilePolarity,Positive*
%FSLAX46Y46*%
G04 Gerber Fmt 4.6, Leading zero omitted, Abs format (unit mm)*
G04 Created by KiCad (PCBNEW 8.0.6) date 2024-12-27 11:38:37*
%MOMM*%
%LPD*%
G01*
G04 APERTURE LIST*
G04 #@! TA.AperFunction,ComponentPad*
%ADD10C,1.650000*%
G04 #@! TD*
G04 #@! TA.AperFunction,ComponentPad*
%ADD11R,1.650000X1.650000*%
G04 #@! TD*
G04 #@! TA.AperFunction,ComponentPad*
%ADD12R,1.950000X1.950000*%
G04 #@! TD*
G04 #@! TA.AperFunction,ComponentPad*
%ADD13C,1.950000*%
G04 #@! TD*
G04 #@! TA.AperFunction,ComponentPad*
%ADD14R,1.200000X1.200000*%
G04 #@! TD*
G04 #@! TA.AperFunction,ComponentPad*
%ADD15C,1.200000*%
G04 #@! TD*
G04 #@! TA.AperFunction,ComponentPad*
%ADD16R,1.100000X1.100000*%
G04 #@! TD*
G04 #@! TA.AperFunction,ComponentPad*
%ADD17C,1.100000*%
G04 #@! TD*
G04 #@! TA.AperFunction,Conductor*
%ADD18C,0.150000*%
G04 #@! TD*
G04 APERTURE END LIST*
D10*
G04 #@! TO.P,U19,6*
G04 #@! TO.N,digital6*
X246850000Y-135500000D03*
G04 #@! TO.P,U19,5*
G04 #@! TO.N,digital5*
X244310000Y-135500000D03*
G04 #@! TO.P,U19,4*
G04 #@! TO.N,digital4*
X241770000Y-135500000D03*
G04 #@! TO.P,U19,3*
G04 #@! TO.N,digital3*
X239230000Y-135500000D03*
G04 #@! TO.P,U19,2*
G04 #@! TO.N,servo2-control*
X236690000Y-135500000D03*
D11*
G04 #@! TO.P,U19,1*
G04 #@! TO.N,servo1-control*
X234150000Y-135500000D03*
G04 #@! TD*
G04 #@! TO.P,U10,1*
G04 #@! TO.N,motor2-in1*
X189150000Y-135500000D03*
D10*
G04 #@! TO.P,U10,2*
G04 #@! TO.N,motor2-in2*
X191690000Y-135500000D03*
G04 #@! TO.P,U10,3*
G04 #@! TO.N,motor2-in3*
X194230000Y-135500000D03*
G04 #@! TO.P,U10,4*
G04 #@! TO.N,motor2-in4*
X196770000Y-135500000D03*
G04 #@! TO.P,U10,5*
G04 #@! TO.N,motor2-ena*
X199310000Y-135500000D03*
G04 #@! TO.P,U10,6*
G04 #@! TO.N,motor2-enb*
X201850000Y-135500000D03*
G04 #@! TD*
D11*
G04 #@! TO.P,U21,1*
G04 #@! TO.N,counter*
X260420000Y-110500000D03*
D10*
G04 #@! TO.P,U21,2*
G04 #@! TO.N,working*
X262960000Y-110500000D03*
G04 #@! TO.P,U21,3*
G04 #@! TO.N,reference*
X265500000Y-110500000D03*
G04 #@! TD*
D12*
G04 #@! TO.P,U3,1*
G04 #@! TO.N,vcc*
X137000000Y-127000000D03*
D13*
G04 #@! TO.P,U3,2*
G04 #@! TO.N,gnd*
X137000000Y-132080000D03*
G04 #@! TD*
D11*
G04 #@! TO.P,U11,1*
G04 #@! TO.N,motor2-in1*
X189109500Y-110500500D03*
D10*
G04 #@! TO.P,U11,2*
G04 #@! TO.N,motor2-in2*
X191649500Y-110500500D03*
G04 #@! TO.P,U11,3*
G04 #@! TO.N,motor2-in3*
X194189500Y-110500500D03*
G04 #@! TO.P,U11,4*
G04 #@! TO.N,motor2-in4*
X196729500Y-110500500D03*
G04 #@! TO.P,U11,5*
G04 #@! TO.N,motor2-ena*
X199269500Y-110500500D03*
G04 #@! TO.P,U11,6*
G04 #@! TO.N,motor2-enb*
X201809500Y-110500500D03*
G04 #@! TO.P,U11,7*
G04 #@! TO.N,vcc-1*
X204349500Y-110500500D03*
G04 #@! TO.P,U11,8*
G04 #@! TO.N,gnd*
X206889500Y-110500500D03*
G04 #@! TD*
G04 #@! TO.P,U8,8*
G04 #@! TO.N,gnd*
X168389500Y-110500500D03*
G04 #@! TO.P,U8,7*
G04 #@! TO.N,vcc-1*
X165849500Y-110500500D03*
G04 #@! TO.P,U8,6*
G04 #@! TO.N,motor1-enb*
X163309500Y-110500500D03*
G04 #@! TO.P,U8,5*
G04 #@! TO.N,motor1-ena*
X160769500Y-110500500D03*
G04 #@! TO.P,U8,4*
G04 #@! TO.N,motor1-in4*
X158229500Y-110500500D03*
G04 #@! TO.P,U8,3*
G04 #@! TO.N,motor1-in3*
X155689500Y-110500500D03*
G04 #@! TO.P,U8,2*
G04 #@! TO.N,motor1-in2*
X153149500Y-110500500D03*
D11*
G04 #@! TO.P,U8,1*
G04 #@! TO.N,motor1-in1*
X150609500Y-110500500D03*
G04 #@! TD*
G04 #@! TO.P,U16,1*
G04 #@! TO.N,vcc-1*
X242000000Y-110500000D03*
D10*
G04 #@! TO.P,U16,2*
G04 #@! TO.N,servo2-control*
X244540000Y-110500000D03*
G04 #@! TO.P,U16,3*
G04 #@! TO.N,gnd*
X247080000Y-110500000D03*
G04 #@! TD*
D14*
G04 #@! TO.P,U18,1*
G04 #@! TO.N,vcc-1*
X243000000Y-124500000D03*
D15*
G04 #@! TO.P,U18,2*
G04 #@! TO.N,gnd*
X248000000Y-124500000D03*
G04 #@! TD*
D11*
G04 #@! TO.P,U13,1*
G04 #@! TO.N,vcc-1*
X229500000Y-110500000D03*
D10*
G04 #@! TO.P,U13,2*
G04 #@! TO.N,servo1-control*
X232040000Y-110500000D03*
G04 #@! TO.P,U13,3*
G04 #@! TO.N,gnd*
X234580000Y-110500000D03*
G04 #@! TD*
D11*
G04 #@! TO.P,U20,1*
G04 #@! TO.N,counter*
X260420000Y-135500000D03*
D10*
G04 #@! TO.P,U20,2*
G04 #@! TO.N,working*
X262960000Y-135500000D03*
G04 #@! TO.P,U20,3*
G04 #@! TO.N,reference*
X265500000Y-135500000D03*
G04 #@! TD*
D11*
G04 #@! TO.P,U4,1*
G04 #@! TO.N,vcc-1*
X137500000Y-112730000D03*
D10*
G04 #@! TO.P,U4,2*
G04 #@! TO.N,gnd*
X137500000Y-115270000D03*
G04 #@! TD*
D12*
G04 #@! TO.P,U9,1*
G04 #@! TO.N,vcc*
X220185000Y-113500000D03*
D13*
G04 #@! TO.P,U9,2*
G04 #@! TO.N,gnd*
X215105000Y-113500000D03*
G04 #@! TD*
D16*
G04 #@! TO.P,U1,1*
G04 #@! TO.N,vcc*
X145500000Y-128000000D03*
D17*
G04 #@! TO.P,U1,2*
G04 #@! TO.N,gnd*
X145500000Y-130000000D03*
G04 #@! TD*
D14*
G04 #@! TO.P,U15,1*
G04 #@! TO.N,vcc-1*
X229500000Y-124500000D03*
D15*
G04 #@! TO.P,U15,2*
G04 #@! TO.N,gnd*
X234500000Y-124500000D03*
G04 #@! TD*
D12*
G04 #@! TO.P,U12,1*
G04 #@! TO.N,vcc*
X181185000Y-113500000D03*
D13*
G04 #@! TO.P,U12,2*
G04 #@! TO.N,gnd*
X176105000Y-113500000D03*
G04 #@! TD*
D10*
G04 #@! TO.P,U7,6*
G04 #@! TO.N,motor1-enb*
X163540000Y-135500000D03*
G04 #@! TO.P,U7,5*
G04 #@! TO.N,motor1-ena*
X161000000Y-135500000D03*
G04 #@! TO.P,U7,4*
G04 #@! TO.N,motor1-in4*
X158460000Y-135500000D03*
G04 #@! TO.P,U7,3*
G04 #@! TO.N,motor1-in3*
X155920000Y-135500000D03*
G04 #@! TO.P,U7,2*
G04 #@! TO.N,motor1-in2*
X153380000Y-135500000D03*
D11*
G04 #@! TO.P,U7,1*
G04 #@! TO.N,motor1-in1*
X150840000Y-135500000D03*
G04 #@! TD*
D18*
G04 #@! TO.N,motor2-enb*
X201809500Y-135459500D02*
X201850000Y-135500000D01*
X201809500Y-110500500D02*
X201809500Y-135459500D01*
G04 #@! TO.N,motor2-ena*
X199310000Y-110541000D02*
X199310000Y-135500000D01*
X199269500Y-110500500D02*
X199310000Y-110541000D01*
G04 #@! TO.N,motor2-in4*
X196770000Y-110541000D02*
X196770000Y-135500000D01*
X196729500Y-110500500D02*
X196770000Y-110541000D01*
G04 #@! TO.N,motor2-in3*
X194230000Y-110541000D02*
X194230000Y-135500000D01*
X194189500Y-110500500D02*
X194230000Y-110541000D01*
G04 #@! TO.N,motor2-in2*
X191690000Y-110541000D02*
X191690000Y-135500000D01*
X191649500Y-110500500D02*
X191690000Y-110541000D01*
G04 #@! TO.N,motor2-in1*
X189109500Y-134407800D02*
X189150000Y-134448300D01*
X189109500Y-110500500D02*
X189109500Y-134407800D01*
X189150000Y-135500000D02*
X189150000Y-134448300D01*
G04 #@! TO.N,motor1-enb*
X163309500Y-135269500D02*
X163540000Y-135500000D01*
X163309500Y-110500500D02*
X163309500Y-135269500D01*
G04 #@! TO.N,motor1-ena*
X161000000Y-110731000D02*
X161000000Y-135500000D01*
X160769500Y-110500500D02*
X161000000Y-110731000D01*
G04 #@! TO.N,motor1-in4*
X158460000Y-110731000D02*
X158460000Y-135500000D01*
X158229500Y-110500500D02*
X158460000Y-110731000D01*
G04 #@! TO.N,motor1-in3*
X155920000Y-110731000D02*
X155920000Y-135500000D01*
X155689500Y-110500500D02*
X155920000Y-110731000D01*
G04 #@! TO.N,motor1-in2*
X153380000Y-110731000D02*
X153380000Y-135500000D01*
X153149500Y-110500500D02*
X153380000Y-110731000D01*
G04 #@! TO.N,motor1-in1*
X150609500Y-134217800D02*
X150840000Y-134448300D01*
X150609500Y-110500500D02*
X150609500Y-134217800D01*
X150840000Y-135500000D02*
X150840000Y-134448300D01*
G04 #@! TO.N,working*
X262960000Y-135500000D02*
X262960000Y-110500000D01*
G04 #@! TO.N,reference*
X265500000Y-135500000D02*
X265500000Y-110500000D01*
G04 #@! TO.N,counter*
X260420000Y-135500000D02*
X260420000Y-110500000D01*
G04 #@! TO.N,servo2-control*
X244540000Y-127650000D02*
X236690000Y-135500000D01*
X244540000Y-110500000D02*
X244540000Y-127650000D01*
G04 #@! TO.N,servo1-control*
X232040000Y-132338300D02*
X234150000Y-134448300D01*
X232040000Y-110500000D02*
X232040000Y-132338300D01*
X234150000Y-135500000D02*
X234150000Y-134448300D01*
G04 #@! TO.N,vcc-1*
X203266600Y-109417600D02*
X204349500Y-110500500D01*
X166932400Y-109417600D02*
X203266600Y-109417600D01*
X165849500Y-110500500D02*
X166932400Y-109417600D01*
G04 #@! TO.N,gnd*
X145500000Y-130000000D02*
X138207700Y-130000000D01*
X138207700Y-130872300D02*
X138207700Y-130000000D01*
X137000000Y-132080000D02*
X138207700Y-130872300D01*
X138207700Y-115977700D02*
X137500000Y-115270000D01*
X138207700Y-130000000D02*
X138207700Y-115977700D01*
X171389000Y-113500000D02*
X168389500Y-110500500D01*
X176105000Y-113500000D02*
X171389000Y-113500000D01*
X246028300Y-109448300D02*
X247080000Y-110500000D01*
X235631700Y-109448300D02*
X246028300Y-109448300D01*
X234580000Y-110500000D02*
X235631700Y-109448300D01*
X233494700Y-109414700D02*
X234580000Y-110500000D01*
X219190300Y-109414700D02*
X233494700Y-109414700D01*
X215105000Y-113500000D02*
X219190300Y-109414700D01*
G04 #@! TD*
G04 #@! TA.AperFunction,Conductor*
G04 #@! TO.N,gnd*
G36*
X267693039Y-107519685D02*
G01*
X267738794Y-107572489D01*
X267750000Y-107624000D01*
X267750000Y-138376000D01*
X267730315Y-138443039D01*
X267677511Y-138488794D01*
X267626000Y-138500000D01*
X131374000Y-138500000D01*
X131306961Y-138480315D01*
X131261206Y-138427511D01*
X131250000Y-138376000D01*
X131250000Y-132079994D01*
X135519945Y-132079994D01*
X135519945Y-132080005D01*
X135540130Y-132323605D01*
X135600138Y-132560573D01*
X135698330Y-132784429D01*
X135794626Y-132931819D01*
X136398958Y-132327487D01*
X136423978Y-132387890D01*
X136495112Y-132494351D01*
X136585649Y-132584888D01*
X136692110Y-132656022D01*
X136752511Y-132681041D01*
X136147758Y-133285794D01*
X136147758Y-133285796D01*
X136190478Y-133319046D01*
X136190484Y-133319050D01*
X136405468Y-133435394D01*
X136405476Y-133435397D01*
X136636664Y-133514765D01*
X136877779Y-133555000D01*
X137122221Y-133555000D01*
X137363335Y-133514765D01*
X137594523Y-133435397D01*
X137594531Y-133435394D01*
X137809514Y-133319051D01*
X137809514Y-133319050D01*
X137852240Y-133285795D01*
X137852240Y-133285794D01*
X137247488Y-132681041D01*
X137307890Y-132656022D01*
X137414351Y-132584888D01*
X137504888Y-132494351D01*
X137576022Y-132387890D01*
X137601041Y-132327488D01*
X138205372Y-132931819D01*
X138301667Y-132784431D01*
X138301672Y-132784423D01*
X138399861Y-132560573D01*
X138459869Y-132323605D01*
X138480055Y-132080005D01*
X138480055Y-132079994D01*
X138459869Y-131836394D01*
X138399861Y-131599426D01*
X138301669Y-131375570D01*
X138205372Y-131228179D01*
X137601041Y-131832510D01*
X137576022Y-131772110D01*
X137504888Y-131665649D01*
X137414351Y-131575112D01*
X137307890Y-131503978D01*
X137247487Y-131478958D01*
X137827421Y-130899023D01*
X144954528Y-130899023D01*
X145096233Y-130974766D01*
X145294165Y-131034808D01*
X145500000Y-131055080D01*
X145705834Y-131034808D01*
X145903764Y-130974766D01*
X146045470Y-130899022D01*
X145500001Y-130353553D01*
X145500000Y-130353553D01*
X144954528Y-130899023D01*
X137827421Y-130899023D01*
X137852240Y-130874204D01*
X137852240Y-130874203D01*
X137809514Y-130840949D01*
X137594531Y-130724605D01*
X137594523Y-130724602D01*
X137363335Y-130645234D01*
X137122221Y-130605000D01*
X136877779Y-130605000D01*
X136636664Y-130645234D01*
X136405476Y-130724602D01*
X136405468Y-130724605D01*
X136190481Y-130840951D01*
X136147758Y-130874202D01*
X136147757Y-130874204D01*
X136752511Y-131478958D01*
X136692110Y-131503978D01*
X136585649Y-131575112D01*
X136495112Y-131665649D01*
X136423978Y-131772110D01*
X136398958Y-131832511D01*
X135794626Y-131228179D01*
X135698328Y-131375575D01*
X135600138Y-131599426D01*
X135540130Y-131836394D01*
X135519945Y-132079994D01*
X131250000Y-132079994D01*
X131250000Y-130000000D01*
X144444919Y-130000000D01*
X144465191Y-130205834D01*
X144525233Y-130403766D01*
X144600975Y-130545469D01*
X144600976Y-130545469D01*
X145146447Y-130000000D01*
X145100369Y-129953922D01*
X145150000Y-129953922D01*
X145150000Y-130046078D01*
X145173852Y-130135095D01*
X145219930Y-130214905D01*
X145285095Y-130280070D01*
X145364905Y-130326148D01*
X145453922Y-130350000D01*
X145546078Y-130350000D01*
X145635095Y-130326148D01*
X145714905Y-130280070D01*
X145780070Y-130214905D01*
X145826148Y-130135095D01*
X145850000Y-130046078D01*
X145850000Y-129999999D01*
X145853553Y-129999999D01*
X145853553Y-130000000D01*
X146399022Y-130545469D01*
X146474766Y-130403764D01*
X146534808Y-130205834D01*
X146555080Y-130000000D01*
X146534808Y-129794165D01*
X146474766Y-129596233D01*
X146399023Y-129454528D01*
X145853553Y-129999999D01*
X145850000Y-129999999D01*
X145850000Y-129953922D01*
X145826148Y-129864905D01*
X145780070Y-129785095D01*
X145714905Y-129719930D01*
X145635095Y-129673852D01*
X145546078Y-129650000D01*
X145453922Y-129650000D01*
X145364905Y-129673852D01*
X145285095Y-129719930D01*
X145219930Y-129785095D01*
X145173852Y-129864905D01*
X145150000Y-129953922D01*
X145100369Y-129953922D01*
X144600976Y-129454529D01*
X144600975Y-129454529D01*
X144525234Y-129596234D01*
X144465191Y-129794166D01*
X144444919Y-130000000D01*
X131250000Y-130000000D01*
X131250000Y-125977135D01*
X135524500Y-125977135D01*
X135524500Y-128022870D01*
X135524501Y-128022876D01*
X135530908Y-128082483D01*
X135581202Y-128217328D01*
X135581206Y-128217335D01*
X135667452Y-128332544D01*
X135667455Y-128332547D01*
X135782664Y-128418793D01*
X135782671Y-128418797D01*
X135917517Y-128469091D01*
X135917516Y-128469091D01*
X135924444Y-128469835D01*
X135977127Y-128475500D01*
X138022872Y-128475499D01*
X138082483Y-128469091D01*
X138217331Y-128418796D01*
X138332546Y-128332546D01*
X138418796Y-128217331D01*
X138469091Y-128082483D01*
X138475500Y-128022873D01*
X138475500Y-127402135D01*
X144449500Y-127402135D01*
X144449500Y-128597870D01*
X144449501Y-128597876D01*
X144455908Y-128657483D01*
X144506202Y-128792328D01*
X144506206Y-128792335D01*
X144592452Y-128907544D01*
X144592455Y-128907547D01*
X144707664Y-128993793D01*
X144707671Y-128993797D01*
X144842514Y-129044090D01*
X144842517Y-129044091D01*
X144860789Y-129046055D01*
X144925338Y-129072790D01*
X144935216Y-129081663D01*
X145500000Y-129646447D01*
X145500001Y-129646447D01*
X146064781Y-129081664D01*
X146126104Y-129048179D01*
X146139207Y-129046055D01*
X146157483Y-129044091D01*
X146292331Y-128993796D01*
X146407546Y-128907546D01*
X146493796Y-128792331D01*
X146544091Y-128657483D01*
X146550500Y-128597873D01*
X146550499Y-127402128D01*
X146544091Y-127342517D01*
X146493796Y-127207669D01*
X146493795Y-127207668D01*
X146493793Y-127207664D01*
X146407547Y-127092455D01*
X146407544Y-127092452D01*
X146292335Y-127006206D01*
X146292328Y-127006202D01*
X146157482Y-126955908D01*
X146157483Y-126955908D01*
X146097883Y-126949501D01*
X146097881Y-126949500D01*
X146097873Y-126949500D01*
X146097864Y-126949500D01*
X144902129Y-126949500D01*
X144902123Y-126949501D01*
X144842516Y-126955908D01*
X144707671Y-127006202D01*
X144707664Y-127006206D01*
X144592455Y-127092452D01*
X144592452Y-127092455D01*
X144506206Y-127207664D01*
X144506202Y-127207671D01*
X144455908Y-127342517D01*
X144449501Y-127402116D01*
X144449501Y-127402123D01*
X144449500Y-127402135D01*
X138475500Y-127402135D01*
X138475499Y-125977128D01*
X138469091Y-125917517D01*
X138418796Y-125782669D01*
X138418795Y-125782668D01*
X138418793Y-125782664D01*
X138332547Y-125667455D01*
X138332544Y-125667452D01*
X138217335Y-125581206D01*
X138217328Y-125581202D01*
X138082482Y-125530908D01*
X138082483Y-125530908D01*
X138022883Y-125524501D01*
X138022881Y-125524500D01*
X138022873Y-125524500D01*
X138022864Y-125524500D01*
X135977129Y-125524500D01*
X135977123Y-125524501D01*
X135917516Y-125530908D01*
X135782671Y-125581202D01*
X135782664Y-125581206D01*
X135667455Y-125667452D01*
X135667452Y-125667455D01*
X135581206Y-125782664D01*
X135581202Y-125782671D01*
X135530908Y-125917517D01*
X135524501Y-125977116D01*
X135524501Y-125977123D01*
X135524500Y-125977135D01*
X131250000Y-125977135D01*
X131250000Y-115269999D01*
X136169939Y-115269999D01*
X136169939Y-115270000D01*
X136190145Y-115500958D01*
X136190147Y-115500968D01*
X136250148Y-115724900D01*
X136250152Y-115724909D01*
X136348133Y-115935030D01*
X136403023Y-116013422D01*
X136976212Y-115440233D01*
X136987482Y-115482292D01*
X137059890Y-115607708D01*
X137162292Y-115710110D01*
X137287708Y-115782518D01*
X137329765Y-115793787D01*
X136756576Y-116366975D01*
X136834969Y-116421867D01*
X137045090Y-116519847D01*
X137045099Y-116519851D01*
X137269031Y-116579852D01*
X137269041Y-116579854D01*
X137499999Y-116600061D01*
X137500001Y-116600061D01*
X137730958Y-116579854D01*
X137730968Y-116579852D01*
X137954900Y-116519851D01*
X137954909Y-116519847D01*
X138165030Y-116421867D01*
X138165034Y-116421865D01*
X138243422Y-116366976D01*
X138243422Y-116366975D01*
X137670235Y-115793787D01*
X137712292Y-115782518D01*
X137837708Y-115710110D01*
X137940110Y-115607708D01*
X138012518Y-115482292D01*
X138023787Y-115440234D01*
X138596975Y-116013422D01*
X138596976Y-116013422D01*
X138651865Y-115935034D01*
X138651867Y-115935030D01*
X138749847Y-115724909D01*
X138749851Y-115724900D01*
X138809852Y-115500968D01*
X138809854Y-115500958D01*
X138830061Y-115270000D01*
X138830061Y-115269999D01*
X138809854Y-115039041D01*
X138809852Y-115039031D01*
X138749851Y-114815099D01*
X138749847Y-114815090D01*
X138651867Y-114604971D01*
X138651866Y-114604969D01*
X138596975Y-114526577D01*
X138596975Y-114526576D01*
X138023787Y-115099764D01*
X138012518Y-115057708D01*
X137940110Y-114932292D01*
X137837708Y-114829890D01*
X137712292Y-114757482D01*
X137670234Y-114746212D01*
X138249662Y-114166783D01*
X138258702Y-114121805D01*
X138307318Y-114071623D01*
X138368462Y-114055499D01*
X138372872Y-114055499D01*
X138432483Y-114049091D01*
X138567331Y-113998796D01*
X138682546Y-113912546D01*
X138768796Y-113797331D01*
X138819091Y-113662483D01*
X138825500Y-113602873D01*
X138825499Y-111857128D01*
X138819091Y-111797517D01*
X138810194Y-111773664D01*
X138768797Y-111662671D01*
X138768793Y-111662664D01*
X138682547Y-111547455D01*
X138682544Y-111547452D01*
X138567335Y-111461206D01*
X138567328Y-111461202D01*
X138432482Y-111410908D01*
X138432483Y-111410908D01*
X138372883Y-111404501D01*
X138372881Y-111404500D01*
X138372873Y-111404500D01*
X138372864Y-111404500D01*
X136627129Y-111404500D01*
X136627123Y-111404501D01*
X136567516Y-111410908D01*
X136432671Y-111461202D01*
X136432664Y-111461206D01*
X136317455Y-111547452D01*
X136317452Y-111547455D01*
X136231206Y-111662664D01*
X136231202Y-111662671D01*
X136180908Y-111797517D01*
X136174501Y-111857116D01*
X136174501Y-111857123D01*
X136174500Y-111857135D01*
X136174500Y-113602870D01*
X136174501Y-113602876D01*
X136180908Y-113662483D01*
X136231202Y-113797328D01*
X136231206Y-113797335D01*
X136317452Y-113912544D01*
X136317455Y-113912547D01*
X136432664Y-113998793D01*
X136432671Y-113998797D01*
X136477618Y-114015561D01*
X136567517Y-114049091D01*
X136627127Y-114055500D01*
X136631523Y-114055499D01*
X136698562Y-114075175D01*
X136744324Y-114127973D01*
X136751151Y-114167597D01*
X137329766Y-114746212D01*
X137287708Y-114757482D01*
X137162292Y-114829890D01*
X137059890Y-114932292D01*
X136987482Y-115057708D01*
X136976212Y-115099765D01*
X136403023Y-114526576D01*
X136403022Y-114526576D01*
X136348134Y-114604967D01*
X136250152Y-114815090D01*
X136250148Y-114815099D01*
X136190147Y-115039031D01*
X136190145Y-115039041D01*
X136169939Y-115269999D01*
X131250000Y-115269999D01*
X131250000Y-109627635D01*
X149284000Y-109627635D01*
X149284000Y-111373370D01*
X149284001Y-111373376D01*
X149290408Y-111432983D01*
X149340702Y-111567828D01*
X149340706Y-111567835D01*
X149426952Y-111683044D01*
X149426955Y-111683047D01*
X149542164Y-111769293D01*
X149542171Y-111769297D01*
X149553880Y-111773664D01*
X149677017Y-111819591D01*
X149736627Y-111826000D01*
X149910000Y-111825999D01*
X149977039Y-111845683D01*
X150022794Y-111898487D01*
X150034000Y-111949999D01*
X150034000Y-134055927D01*
X150014315Y-134122966D01*
X149961511Y-134168721D01*
X149923255Y-134179217D01*
X149907516Y-134180909D01*
X149772671Y-134231202D01*
X149772664Y-134231206D01*
X149657455Y-134317452D01*
X149657452Y-134317455D01*
X149571206Y-134432664D01*
X149571202Y-134432671D01*
X149520908Y-134567517D01*
X149514501Y-134627116D01*
X149514500Y-134627135D01*
X149514500Y-136372870D01*
X149514501Y-136372876D01*
X149520908Y-136432483D01*
X149571202Y-136567328D01*
X149571206Y-136567335D01*
X149657452Y-136682544D01*
X149657455Y-136682547D01*
X149772664Y-136768793D01*
X149772671Y-136768797D01*
X149907517Y-136819091D01*
X149907516Y-136819091D01*
X149914444Y-136819835D01*
X149967127Y-136825500D01*
X151712872Y-136825499D01*
X151772483Y-136819091D01*
X151907331Y-136768796D01*
X152022546Y-136682546D01*
X152108796Y-136567331D01*
X152159091Y-136432483D01*
X152159091Y-136432481D01*
X152160874Y-136424938D01*
X152163747Y-136425616D01*
X152185191Y-136373843D01*
X152242582Y-136333993D01*
X152312407Y-136331497D01*
X152369426Y-136363965D01*
X152524731Y-136519270D01*
X152714718Y-136652301D01*
X152924921Y-136750320D01*
X153148950Y-136810349D01*
X153313985Y-136824787D01*
X153379998Y-136830563D01*
X153380000Y-136830563D01*
X153380002Y-136830563D01*
X153437894Y-136825498D01*
X153611050Y-136810349D01*
X153835079Y-136750320D01*
X154045282Y-136652301D01*
X154235269Y-136519270D01*
X154399270Y-136355269D01*
X154532301Y-136165282D01*
X154537618Y-136153878D01*
X154583790Y-136101440D01*
X154650984Y-136082288D01*
X154717865Y-136102504D01*
X154762381Y-136153878D01*
X154767699Y-136165282D01*
X154900730Y-136355269D01*
X155064731Y-136519270D01*
X155254718Y-136652301D01*
X155464921Y-136750320D01*
X155688950Y-136810349D01*
X155853985Y-136824787D01*
X155919998Y-136830563D01*
X155920000Y-136830563D01*
X155920002Y-136830563D01*
X155977894Y-136825498D01*
X156151050Y-136810349D01*
X156375079Y-136750320D01*
X156585282Y-136652301D01*
X156775269Y-136519270D01*
X156939270Y-136355269D01*
X157072301Y-136165282D01*
X157077618Y-136153878D01*
X157123790Y-136101440D01*
X157190984Y-136082288D01*
X157257865Y-136102504D01*
X157302381Y-136153878D01*
X157307699Y-136165282D01*
X157440730Y-136355269D01*
X157604731Y-136519270D01*
X157794718Y-136652301D01*
X158004921Y-136750320D01*
X158228950Y-136810349D01*
X158393985Y-136824787D01*
X158459998Y-136830563D01*
X158460000Y-136830563D01*
X158460002Y-136830563D01*
X158517894Y-136825498D01*
X158691050Y-136810349D01*
X158915079Y-136750320D01*
X159125282Y-136652301D01*
X159315269Y-136519270D01*
X159479270Y-136355269D01*
X159612301Y-136165282D01*
X159617618Y-136153878D01*
X159663790Y-136101440D01*
X159730984Y-136082288D01*
X159797865Y-136102504D01*
X159842381Y-136153878D01*
X159847699Y-136165282D01*
X159980730Y-136355269D01*
X160144731Y-136519270D01*
X160334718Y-136652301D01*
X160544921Y-136750320D01*
X160768950Y-136810349D01*
X160933985Y-136824787D01*
X160999998Y-136830563D01*
X161000000Y-136830563D01*
X161000002Y-136830563D01*
X161057894Y-136825498D01*
X161231050Y-136810349D01*
X161455079Y-136750320D01*
X161665282Y-136652301D01*
X161855269Y-136519270D01*
X162019270Y-136355269D01*
X162152301Y-136165282D01*
X162157618Y-136153878D01*
X162203790Y-136101440D01*
X162270984Y-136082288D01*
X162337865Y-136102504D01*
X162382381Y-136153878D01*
X162387699Y-136165282D01*
X162520730Y-136355269D01*
X162684731Y-136519270D01*
X162874718Y-136652301D01*
X163084921Y-136750320D01*
X163308950Y-136810349D01*
X163473985Y-136824787D01*
X163539998Y-136830563D01*
X163540000Y-136830563D01*
X163540002Y-136830563D01*
X163597894Y-136825498D01*
X163771050Y-136810349D01*
X163995079Y-136750320D01*
X164205282Y-136652301D01*
X164395269Y-136519270D01*
X164559270Y-136355269D01*
X164692301Y-136165282D01*
X164790320Y-135955079D01*
X164850349Y-135731050D01*
X164870563Y-135500000D01*
X164850349Y-135268950D01*
X164790320Y-135044921D01*
X164692301Y-134834719D01*
X164692299Y-134834716D01*
X164692298Y-134834714D01*
X164559273Y-134644735D01*
X164559268Y-134644729D01*
X164395269Y-134480730D01*
X164349554Y-134448720D01*
X164205282Y-134347699D01*
X163995079Y-134249680D01*
X163976903Y-134244809D01*
X163917245Y-134208444D01*
X163886716Y-134145597D01*
X163885000Y-134125036D01*
X163885000Y-113499994D01*
X174624945Y-113499994D01*
X174624945Y-113500005D01*
X174645130Y-113743605D01*
X174705138Y-113980573D01*
X174803330Y-114204429D01*
X174899626Y-114351819D01*
X175503958Y-113747487D01*
X175528978Y-113807890D01*
X175600112Y-113914351D01*
X175690649Y-114004888D01*
X175797110Y-114076022D01*
X175857511Y-114101041D01*
X175252758Y-114705794D01*
X175252758Y-114705796D01*
X175295478Y-114739046D01*
X175295484Y-114739050D01*
X175510468Y-114855394D01*
X175510476Y-114855397D01*
X175741664Y-114934765D01*
X175982779Y-114975000D01*
X176227221Y-114975000D01*
X176468335Y-114934765D01*
X176699523Y-114855397D01*
X176699531Y-114855394D01*
X176914514Y-114739051D01*
X176914514Y-114739050D01*
X176957240Y-114705795D01*
X176957240Y-114705794D01*
X176352488Y-114101041D01*
X176412890Y-114076022D01*
X176519351Y-114004888D01*
X176609888Y-113914351D01*
X176681022Y-113807890D01*
X176706041Y-113747488D01*
X177310372Y-114351819D01*
X177406667Y-114204431D01*
X177406672Y-114204423D01*
X177504861Y-113980573D01*
X177564869Y-113743605D01*
X177585055Y-113500005D01*
X177585055Y-113499994D01*
X177564869Y-113256394D01*
X177504861Y-113019426D01*
X177406669Y-112795570D01*
X177310372Y-112648179D01*
X176706041Y-113252510D01*
X176681022Y-113192110D01*
X176609888Y-113085649D01*
X176519351Y-112995112D01*
X176412890Y-112923978D01*
X176352487Y-112898958D01*
X176774309Y-112477135D01*
X179709500Y-112477135D01*
X179709500Y-114522870D01*
X179709501Y-114522876D01*
X179715908Y-114582483D01*
X179766202Y-114717328D01*
X179766206Y-114717335D01*
X179852452Y-114832544D01*
X179852455Y-114832547D01*
X179967664Y-114918793D01*
X179967671Y-114918797D01*
X180102517Y-114969091D01*
X180102516Y-114969091D01*
X180109444Y-114969835D01*
X180162127Y-114975500D01*
X182207872Y-114975499D01*
X182267483Y-114969091D01*
X182402331Y-114918796D01*
X182517546Y-114832546D01*
X182603796Y-114717331D01*
X182654091Y-114582483D01*
X182660500Y-114522873D01*
X182660499Y-112477128D01*
X182654091Y-112417517D01*
X182608098Y-112294204D01*
X182603797Y-112282671D01*
X182603793Y-112282664D01*
X182517547Y-112167455D01*
X182517544Y-112167452D01*
X182402335Y-112081206D01*
X182402328Y-112081202D01*
X182267482Y-112030908D01*
X182267483Y-112030908D01*
X182207883Y-112024501D01*
X182207881Y-112024500D01*
X182207873Y-112024500D01*
X182207864Y-112024500D01*
X180162129Y-112024500D01*
X180162123Y-112024501D01*
X180102516Y-112030908D01*
X179967671Y-112081202D01*
X179967664Y-112081206D01*
X179852455Y-112167452D01*
X179852452Y-112167455D01*
X179766206Y-112282664D01*
X179766202Y-112282671D01*
X179715908Y-112417517D01*
X179709501Y-112477116D01*
X179709501Y-112477123D01*
X179709500Y-112477135D01*
X176774309Y-112477135D01*
X176957240Y-112294204D01*
X176957240Y-112294203D01*
X176914514Y-112260949D01*
X176699531Y-112144605D01*
X176699523Y-112144602D01*
X176468335Y-112065234D01*
X176227221Y-112025000D01*
X175982779Y-112025000D01*
X175741664Y-112065234D01*
X175510476Y-112144602D01*
X175510468Y-112144605D01*
X175295481Y-112260951D01*
X175252758Y-112294202D01*
X175252757Y-112294204D01*
X175857511Y-112898958D01*
X175797110Y-112923978D01*
X175690649Y-112995112D01*
X175600112Y-113085649D01*
X175528978Y-113192110D01*
X175503958Y-113252511D01*
X174899626Y-112648179D01*
X174803328Y-112795575D01*
X174705138Y-113019426D01*
X174645130Y-113256394D01*
X174624945Y-113499994D01*
X163885000Y-113499994D01*
X163885000Y-111773664D01*
X163904685Y-111706625D01*
X163956597Y-111661281D01*
X163966591Y-111656620D01*
X163974782Y-111652801D01*
X164164769Y-111519770D01*
X164328770Y-111355769D01*
X164461801Y-111165782D01*
X164467118Y-111154378D01*
X164513290Y-111101940D01*
X164580484Y-111082788D01*
X164647365Y-111103004D01*
X164691881Y-111154378D01*
X164697199Y-111165782D01*
X164830230Y-111355769D01*
X164994231Y-111519770D01*
X165184218Y-111652801D01*
X165394421Y-111750820D01*
X165618450Y-111810849D01*
X165783485Y-111825287D01*
X165849498Y-111831063D01*
X165849500Y-111831063D01*
X165849502Y-111831063D01*
X165913086Y-111825500D01*
X166080550Y-111810849D01*
X166304579Y-111750820D01*
X166514782Y-111652801D01*
X166704769Y-111519770D01*
X166868770Y-111355769D01*
X167001801Y-111165782D01*
X167007393Y-111153789D01*
X167053562Y-111101351D01*
X167120755Y-111082197D01*
X167187637Y-111102411D01*
X167232156Y-111153786D01*
X167237632Y-111165529D01*
X167292523Y-111243922D01*
X167865712Y-110670733D01*
X167876982Y-110712792D01*
X167949390Y-110838208D01*
X168051792Y-110940610D01*
X168177208Y-111013018D01*
X168219265Y-111024287D01*
X167646076Y-111597475D01*
X167724469Y-111652367D01*
X167934590Y-111750347D01*
X167934599Y-111750351D01*
X168158531Y-111810352D01*
X168158541Y-111810354D01*
X168389499Y-111830561D01*
X168389501Y-111830561D01*
X168620458Y-111810354D01*
X168620468Y-111810352D01*
X168844400Y-111750351D01*
X168844409Y-111750347D01*
X169054530Y-111652367D01*
X169054534Y-111652365D01*
X169132922Y-111597476D01*
X169132922Y-111597475D01*
X168559735Y-111024287D01*
X168601792Y-111013018D01*
X168727208Y-110940610D01*
X168829610Y-110838208D01*
X168902018Y-110712792D01*
X168913287Y-110670733D01*
X169486476Y-111243922D01*
X169541365Y-111165534D01*
X169541367Y-111165530D01*
X169639347Y-110955409D01*
X169639351Y-110955400D01*
X169699352Y-110731468D01*
X169699354Y-110731458D01*
X169719561Y-110500500D01*
X169719561Y-110500499D01*
X169699354Y-110269541D01*
X169699352Y-110269531D01*
X169667109Y-110149193D01*
X169668772Y-110079343D01*
X169707935Y-110021480D01*
X169772164Y-109993977D01*
X169786884Y-109993100D01*
X187660000Y-109993100D01*
X187727039Y-110012785D01*
X187772794Y-110065589D01*
X187784000Y-110117100D01*
X187784000Y-111373370D01*
X187784001Y-111373376D01*
X187790408Y-111432983D01*
X187840702Y-111567828D01*
X187840706Y-111567835D01*
X187926952Y-111683044D01*
X187926955Y-111683047D01*
X188042164Y-111769293D01*
X188042171Y-111769297D01*
X188053880Y-111773664D01*
X188177017Y-111819591D01*
X188236627Y-111826000D01*
X188410000Y-111825999D01*
X188477039Y-111845683D01*
X188522794Y-111898487D01*
X188534000Y-111949999D01*
X188534000Y-134050500D01*
X188514315Y-134117539D01*
X188461511Y-134163294D01*
X188410001Y-134174500D01*
X188277130Y-134174500D01*
X188277123Y-134174501D01*
X188217516Y-134180908D01*
X188082671Y-134231202D01*
X188082664Y-134231206D01*
X187967455Y-134317452D01*
X187967452Y-134317455D01*
X187881206Y-134432664D01*
X187881202Y-134432671D01*
X187830908Y-134567517D01*
X187824501Y-134627116D01*
X187824500Y-134627135D01*
X187824500Y-136372870D01*
X187824501Y-136372876D01*
X187830908Y-136432483D01*
X187881202Y-136567328D01*
X187881206Y-136567335D01*
X187967452Y-136682544D01*
X187967455Y-136682547D01*
X188082664Y-136768793D01*
X188082671Y-136768797D01*
X188217517Y-136819091D01*
X188217516Y-136819091D01*
X188224444Y-136819835D01*
X188277127Y-136825500D01*
X190022872Y-136825499D01*
X190082483Y-136819091D01*
X190217331Y-136768796D01*
X190332546Y-136682546D01*
X190418796Y-136567331D01*
X190469091Y-136432483D01*
X190469091Y-136432481D01*
X190470874Y-136424938D01*
X190473747Y-136425616D01*
X190495191Y-136373843D01*
X190552582Y-136333993D01*
X190622407Y-136331497D01*
X190679426Y-136363965D01*
X190834731Y-136519270D01*
X191024718Y-136652301D01*
X191234921Y-136750320D01*
X191458950Y-136810349D01*
X191623985Y-136824787D01*
X191689998Y-136830563D01*
X191690000Y-136830563D01*
X191690002Y-136830563D01*
X191747894Y-136825498D01*
X191921050Y-136810349D01*
X192145079Y-136750320D01*
X192355282Y-136652301D01*
X192545269Y-136519270D01*
X192709270Y-136355269D01*
X192842301Y-136165282D01*
X192847618Y-136153878D01*
X192893790Y-136101440D01*
X192960984Y-136082288D01*
X193027865Y-136102504D01*
X193072381Y-136153878D01*
X193077699Y-136165282D01*
X193210730Y-136355269D01*
X193374731Y-136519270D01*
X193564718Y-136652301D01*
X193774921Y-136750320D01*
X193998950Y-136810349D01*
X194163985Y-136824787D01*
X194229998Y-136830563D01*
X194230000Y-136830563D01*
X194230002Y-136830563D01*
X194287894Y-136825498D01*
X194461050Y-136810349D01*
X194685079Y-136750320D01*
X194895282Y-136652301D01*
X195085269Y-136519270D01*
X195249270Y-136355269D01*
X195382301Y-136165282D01*
X195387618Y-136153878D01*
X195433790Y-136101440D01*
X195500984Y-136082288D01*
X195567865Y-136102504D01*
X195612381Y-136153878D01*
X195617699Y-136165282D01*
X195750730Y-136355269D01*
X195914731Y-136519270D01*
X196104718Y-136652301D01*
X196314921Y-136750320D01*
X196538950Y-136810349D01*
X196703985Y-136824787D01*
X196769998Y-136830563D01*
X196770000Y-136830563D01*
X196770002Y-136830563D01*
X196827894Y-136825498D01*
X197001050Y-136810349D01*
X197225079Y-136750320D01*
X197435282Y-136652301D01*
X197625269Y-136519270D01*
X197789270Y-136355269D01*
X197922301Y-136165282D01*
X197927618Y-136153878D01*
X197973790Y-136101440D01*
X198040984Y-136082288D01*
X198107865Y-136102504D01*
X198152381Y-136153878D01*
X198157699Y-136165282D01*
X198290730Y-136355269D01*
X198454731Y-136519270D01*
X198644718Y-136652301D01*
X198854921Y-136750320D01*
X199078950Y-136810349D01*
X199243985Y-136824787D01*
X199309998Y-136830563D01*
X199310000Y-136830563D01*
X199310002Y-136830563D01*
X199367894Y-136825498D01*
X199541050Y-136810349D01*
X199765079Y-136750320D01*
X199975282Y-136652301D01*
X200165269Y-136519270D01*
X200329270Y-136355269D01*
X200462301Y-136165282D01*
X200467618Y-136153878D01*
X200513790Y-136101440D01*
X200580984Y-136082288D01*
X200647865Y-136102504D01*
X200692381Y-136153878D01*
X200697699Y-136165282D01*
X200830730Y-136355269D01*
X200994731Y-136519270D01*
X201184718Y-136652301D01*
X201394921Y-136750320D01*
X201618950Y-136810349D01*
X201783985Y-136824787D01*
X201849998Y-136830563D01*
X201850000Y-136830563D01*
X201850002Y-136830563D01*
X201907894Y-136825498D01*
X202081050Y-136810349D01*
X202305079Y-136750320D01*
X202515282Y-136652301D01*
X202705269Y-136519270D01*
X202869270Y-136355269D01*
X203002301Y-136165282D01*
X203100320Y-135955079D01*
X203160349Y-135731050D01*
X203180563Y-135500000D01*
X203160349Y-135268950D01*
X203100320Y-135044921D01*
X203002301Y-134834719D01*
X203002299Y-134834716D01*
X203002298Y-134834714D01*
X202869273Y-134644735D01*
X202869268Y-134644729D01*
X202705269Y-134480730D01*
X202515281Y-134347698D01*
X202456594Y-134320332D01*
X202404155Y-134274159D01*
X202385000Y-134207950D01*
X202385000Y-123852135D01*
X228399500Y-123852135D01*
X228399500Y-125147870D01*
X228399501Y-125147876D01*
X228405908Y-125207483D01*
X228456202Y-125342328D01*
X228456206Y-125342335D01*
X228542452Y-125457544D01*
X228542455Y-125457547D01*
X228657664Y-125543793D01*
X228657671Y-125543797D01*
X228792517Y-125594091D01*
X228792516Y-125594091D01*
X228799444Y-125594835D01*
X228852127Y-125600500D01*
X230147872Y-125600499D01*
X230207483Y-125594091D01*
X230342331Y-125543796D01*
X230457546Y-125457546D01*
X230543796Y-125342331D01*
X230594091Y-125207483D01*
X230600500Y-125147873D01*
X230600499Y-123852128D01*
X230594091Y-123792517D01*
X230543796Y-123657669D01*
X230543795Y-123657668D01*
X230543793Y-123657664D01*
X230457547Y-123542455D01*
X230457544Y-123542452D01*
X230342335Y-123456206D01*
X230342328Y-123456202D01*
X230207482Y-123405908D01*
X230207483Y-123405908D01*
X230147883Y-123399501D01*
X230147881Y-123399500D01*
X230147873Y-123399500D01*
X230147864Y-123399500D01*
X228852129Y-123399500D01*
X228852123Y-123399501D01*
X228792516Y-123405908D01*
X228657671Y-123456202D01*
X228657664Y-123456206D01*
X228542455Y-123542452D01*
X228542452Y-123542455D01*
X228456206Y-123657664D01*
X228456202Y-123657671D01*
X228405908Y-123792517D01*
X228399501Y-123852116D01*
X228399501Y-123852123D01*
X228399500Y-123852135D01*
X202385000Y-123852135D01*
X202385000Y-113499994D01*
X213624945Y-113499994D01*
X213624945Y-113500005D01*
X213645130Y-113743605D01*
X213705138Y-113980573D01*
X213803330Y-114204429D01*
X213899626Y-114351819D01*
X214503958Y-113747487D01*
X214528978Y-113807890D01*
X214600112Y-113914351D01*
X214690649Y-114004888D01*
X214797110Y-114076022D01*
X214857511Y-114101041D01*
X214252758Y-114705794D01*
X214252758Y-114705796D01*
X214295478Y-114739046D01*
X214295484Y-114739050D01*
X214510468Y-114855394D01*
X214510476Y-114855397D01*
X214741664Y-114934765D01*
X214982779Y-114975000D01*
X215227221Y-114975000D01*
X215468335Y-114934765D01*
X215699523Y-114855397D01*
X215699531Y-114855394D01*
X215914514Y-114739051D01*
X215914514Y-114739050D01*
X215957240Y-114705795D01*
X215957240Y-114705794D01*
X215352488Y-114101041D01*
X215412890Y-114076022D01*
X215519351Y-114004888D01*
X215609888Y-113914351D01*
X215681022Y-113807890D01*
X215706041Y-113747488D01*
X216310372Y-114351819D01*
X216406667Y-114204431D01*
X216406672Y-114204423D01*
X216504861Y-113980573D01*
X216564869Y-113743605D01*
X216585055Y-113500005D01*
X216585055Y-113499994D01*
X216564869Y-113256394D01*
X216504861Y-113019426D01*
X216406669Y-112795570D01*
X216310372Y-112648179D01*
X215706041Y-113252510D01*
X215681022Y-113192110D01*
X215609888Y-113085649D01*
X215519351Y-112995112D01*
X215412890Y-112923978D01*
X215352487Y-112898958D01*
X215774309Y-112477135D01*
X218709500Y-112477135D01*
X218709500Y-114522870D01*
X218709501Y-114522876D01*
X218715908Y-114582483D01*
X218766202Y-114717328D01*
X218766206Y-114717335D01*
X218852452Y-114832544D01*
X218852455Y-114832547D01*
X218967664Y-114918793D01*
X218967671Y-114918797D01*
X219102517Y-114969091D01*
X219102516Y-114969091D01*
X219109444Y-114969835D01*
X219162127Y-114975500D01*
X221207872Y-114975499D01*
X221267483Y-114969091D01*
X221402331Y-114918796D01*
X221517546Y-114832546D01*
X221603796Y-114717331D01*
X221654091Y-114582483D01*
X221660500Y-114522873D01*
X221660499Y-112477128D01*
X221654091Y-112417517D01*
X221608098Y-112294204D01*
X221603797Y-112282671D01*
X221603793Y-112282664D01*
X221517547Y-112167455D01*
X221517544Y-112167452D01*
X221402335Y-112081206D01*
X221402328Y-112081202D01*
X221267482Y-112030908D01*
X221267483Y-112030908D01*
X221207883Y-112024501D01*
X221207881Y-112024500D01*
X221207873Y-112024500D01*
X221207864Y-112024500D01*
X219162129Y-112024500D01*
X219162123Y-112024501D01*
X219102516Y-112030908D01*
X218967671Y-112081202D01*
X218967664Y-112081206D01*
X218852455Y-112167452D01*
X218852452Y-112167455D01*
X218766206Y-112282664D01*
X218766202Y-112282671D01*
X218715908Y-112417517D01*
X218709501Y-112477116D01*
X218709501Y-112477123D01*
X218709500Y-112477135D01*
X215774309Y-112477135D01*
X215957240Y-112294204D01*
X215957240Y-112294203D01*
X215914514Y-112260949D01*
X215699531Y-112144605D01*
X215699523Y-112144602D01*
X215468335Y-112065234D01*
X215227221Y-112025000D01*
X214982779Y-112025000D01*
X214741664Y-112065234D01*
X214510476Y-112144602D01*
X214510468Y-112144605D01*
X214295481Y-112260951D01*
X214252758Y-112294202D01*
X214252757Y-112294204D01*
X214857511Y-112898958D01*
X214797110Y-112923978D01*
X214690649Y-112995112D01*
X214600112Y-113085649D01*
X214528978Y-113192110D01*
X214503958Y-113252511D01*
X213899626Y-112648179D01*
X213803328Y-112795575D01*
X213705138Y-113019426D01*
X213645130Y-113256394D01*
X213624945Y-113499994D01*
X202385000Y-113499994D01*
X202385000Y-111773664D01*
X202404685Y-111706625D01*
X202456597Y-111661281D01*
X202466591Y-111656620D01*
X202474782Y-111652801D01*
X202664769Y-111519770D01*
X202828770Y-111355769D01*
X202961801Y-111165782D01*
X202967118Y-111154378D01*
X203013290Y-111101940D01*
X203080484Y-111082788D01*
X203147365Y-111103004D01*
X203191881Y-111154378D01*
X203197199Y-111165782D01*
X203330230Y-111355769D01*
X203494231Y-111519770D01*
X203684218Y-111652801D01*
X203894421Y-111750820D01*
X204118450Y-111810849D01*
X204283485Y-111825287D01*
X204349498Y-111831063D01*
X204349500Y-111831063D01*
X204349502Y-111831063D01*
X204413086Y-111825500D01*
X204580550Y-111810849D01*
X204804579Y-111750820D01*
X205014782Y-111652801D01*
X205204769Y-111519770D01*
X205368770Y-111355769D01*
X205501801Y-111165782D01*
X205507393Y-111153789D01*
X205553562Y-111101351D01*
X205620755Y-111082197D01*
X205687637Y-111102411D01*
X205732156Y-111153786D01*
X205737632Y-111165529D01*
X205792523Y-111243922D01*
X206365712Y-110670733D01*
X206376982Y-110712792D01*
X206449390Y-110838208D01*
X206551792Y-110940610D01*
X206677208Y-111013018D01*
X206719265Y-111024287D01*
X206146076Y-111597475D01*
X206224469Y-111652367D01*
X206434590Y-111750347D01*
X206434599Y-111750351D01*
X206658531Y-111810352D01*
X206658541Y-111810354D01*
X206889499Y-111830561D01*
X206889501Y-111830561D01*
X207120458Y-111810354D01*
X207120468Y-111810352D01*
X207344400Y-111750351D01*
X207344409Y-111750347D01*
X207554530Y-111652367D01*
X207554534Y-111652365D01*
X207632922Y-111597476D01*
X207632922Y-111597475D01*
X207059735Y-111024287D01*
X207101792Y-111013018D01*
X207227208Y-110940610D01*
X207329610Y-110838208D01*
X207402018Y-110712792D01*
X207413287Y-110670734D01*
X207986475Y-111243922D01*
X207986476Y-111243922D01*
X208041365Y-111165534D01*
X208041367Y-111165530D01*
X208139347Y-110955409D01*
X208139351Y-110955400D01*
X208199352Y-110731468D01*
X208199354Y-110731458D01*
X208219561Y-110500500D01*
X208219561Y-110500499D01*
X208199354Y-110269541D01*
X208199352Y-110269531D01*
X208139351Y-110045599D01*
X208139347Y-110045590D01*
X208041367Y-109835471D01*
X208041366Y-109835469D01*
X207986475Y-109757077D01*
X207986475Y-109757076D01*
X207413287Y-110330264D01*
X207402018Y-110288208D01*
X207329610Y-110162792D01*
X207227208Y-110060390D01*
X207101792Y-109987982D01*
X207059734Y-109976712D01*
X207409310Y-109627135D01*
X228174500Y-109627135D01*
X228174500Y-111372870D01*
X228174501Y-111372876D01*
X228180908Y-111432483D01*
X228231202Y-111567328D01*
X228231206Y-111567335D01*
X228317452Y-111682544D01*
X228317455Y-111682547D01*
X228432664Y-111768793D01*
X228432671Y-111768797D01*
X228567517Y-111819091D01*
X228567516Y-111819091D01*
X228572149Y-111819589D01*
X228627127Y-111825500D01*
X230372872Y-111825499D01*
X230432483Y-111819091D01*
X230567331Y-111768796D01*
X230682546Y-111682546D01*
X230768796Y-111567331D01*
X230819091Y-111432483D01*
X230819091Y-111432481D01*
X230820874Y-111424938D01*
X230823747Y-111425616D01*
X230845191Y-111373843D01*
X230902582Y-111333993D01*
X230972407Y-111331497D01*
X231029426Y-111363965D01*
X231184731Y-111519270D01*
X231374718Y-111652301D01*
X231374721Y-111652302D01*
X231374722Y-111652303D01*
X231392903Y-111660781D01*
X231445343Y-111706953D01*
X231464500Y-111773164D01*
X231464500Y-132262534D01*
X231464500Y-132414066D01*
X231484109Y-132487250D01*
X231503719Y-132560436D01*
X231517837Y-132584888D01*
X231579485Y-132691665D01*
X231579487Y-132691667D01*
X233002271Y-134114451D01*
X233035756Y-134175774D01*
X233030772Y-134245466D01*
X232988902Y-134301398D01*
X232967452Y-134317455D01*
X232881206Y-134432664D01*
X232881202Y-134432671D01*
X232830908Y-134567517D01*
X232824501Y-134627116D01*
X232824500Y-134627135D01*
X232824500Y-136372870D01*
X232824501Y-136372876D01*
X232830908Y-136432483D01*
X232881202Y-136567328D01*
X232881206Y-136567335D01*
X232967452Y-136682544D01*
X232967455Y-136682547D01*
X233082664Y-136768793D01*
X233082671Y-136768797D01*
X233217517Y-136819091D01*
X233217516Y-136819091D01*
X233224444Y-136819835D01*
X233277127Y-136825500D01*
X235022872Y-136825499D01*
X235082483Y-136819091D01*
X235217331Y-136768796D01*
X235332546Y-136682546D01*
X235418796Y-136567331D01*
X235469091Y-136432483D01*
X235469091Y-136432481D01*
X235470874Y-136424938D01*
X235473747Y-136425616D01*
X235495191Y-136373843D01*
X235552582Y-136333993D01*
X235622407Y-136331497D01*
X235679426Y-136363965D01*
X235834731Y-136519270D01*
X236024718Y-136652301D01*
X236234921Y-136750320D01*
X236458950Y-136810349D01*
X236623985Y-136824787D01*
X236689998Y-136830563D01*
X236690000Y-136830563D01*
X236690002Y-136830563D01*
X236747894Y-136825498D01*
X236921050Y-136810349D01*
X237145079Y-136750320D01*
X237355282Y-136652301D01*
X237545269Y-136519270D01*
X237709270Y-136355269D01*
X237842301Y-136165282D01*
X237847618Y-136153878D01*
X237893790Y-136101440D01*
X237960984Y-136082288D01*
X238027865Y-136102504D01*
X238072381Y-136153878D01*
X238077699Y-136165282D01*
X238210730Y-136355269D01*
X238374731Y-136519270D01*
X238564718Y-136652301D01*
X238774921Y-136750320D01*
X238998950Y-136810349D01*
X239163985Y-136824787D01*
X239229998Y-136830563D01*
X239230000Y-136830563D01*
X239230002Y-136830563D01*
X239287894Y-136825498D01*
X239461050Y-136810349D01*
X239685079Y-136750320D01*
X239895282Y-136652301D01*
X240085269Y-136519270D01*
X240249270Y-136355269D01*
X240382301Y-136165282D01*
X240387618Y-136153878D01*
X240433790Y-136101440D01*
X240500984Y-136082288D01*
X240567865Y-136102504D01*
X240612381Y-136153878D01*
X240617699Y-136165282D01*
X240750730Y-136355269D01*
X240914731Y-136519270D01*
X241104718Y-136652301D01*
X241314921Y-136750320D01*
X241538950Y-136810349D01*
X241703985Y-136824787D01*
X241769998Y-136830563D01*
X241770000Y-136830563D01*
X241770002Y-136830563D01*
X241827894Y-136825498D01*
X242001050Y-136810349D01*
X242225079Y-136750320D01*
X242435282Y-136652301D01*
X242625269Y-136519270D01*
X242789270Y-136355269D01*
X242922301Y-136165282D01*
X242927618Y-136153878D01*
X242973790Y-136101440D01*
X243040984Y-136082288D01*
X243107865Y-136102504D01*
X243152381Y-136153878D01*
X243157699Y-136165282D01*
X243290730Y-136355269D01*
X243454731Y-136519270D01*
X243644718Y-136652301D01*
X243854921Y-136750320D01*
X244078950Y-136810349D01*
X244243985Y-136824787D01*
X244309998Y-136830563D01*
X244310000Y-136830563D01*
X244310002Y-136830563D01*
X244367894Y-136825498D01*
X244541050Y-136810349D01*
X244765079Y-136750320D01*
X244975282Y-136652301D01*
X245165269Y-136519270D01*
X245329270Y-136355269D01*
X245462301Y-136165282D01*
X245467618Y-136153878D01*
X245513790Y-136101440D01*
X245580984Y-136082288D01*
X245647865Y-136102504D01*
X245692381Y-136153878D01*
X245697699Y-136165282D01*
X245830730Y-136355269D01*
X245994731Y-136519270D01*
X246184718Y-136652301D01*
X246394921Y-136750320D01*
X246618950Y-136810349D01*
X246783985Y-136824787D01*
X246849998Y-136830563D01*
X246850000Y-136830563D01*
X246850002Y-136830563D01*
X246907894Y-136825498D01*
X247081050Y-136810349D01*
X247305079Y-136750320D01*
X247515282Y-136652301D01*
X247705269Y-136519270D01*
X247869270Y-136355269D01*
X248002301Y-136165282D01*
X248100320Y-135955079D01*
X248160349Y-135731050D01*
X248180563Y-135500000D01*
X248160349Y-135268950D01*
X248100320Y-135044921D01*
X248002301Y-134834719D01*
X248002299Y-134834716D01*
X248002298Y-134834714D01*
X247869273Y-134644735D01*
X247869268Y-134644729D01*
X247705269Y-134480730D01*
X247659554Y-134448720D01*
X247515282Y-134347699D01*
X247305079Y-134249680D01*
X247305076Y-134249679D01*
X247305074Y-134249678D01*
X247081051Y-134189651D01*
X247081044Y-134189650D01*
X246850002Y-134169437D01*
X246849998Y-134169437D01*
X246618955Y-134189650D01*
X246618948Y-134189651D01*
X246394917Y-134249681D01*
X246184718Y-134347699D01*
X246184714Y-134347701D01*
X245994735Y-134480726D01*
X245994729Y-134480731D01*
X245830731Y-134644729D01*
X245830726Y-134644735D01*
X245697701Y-134834714D01*
X245697698Y-134834720D01*
X245692381Y-134846123D01*
X245646207Y-134898562D01*
X245579013Y-134917712D01*
X245512133Y-134897495D01*
X245467619Y-134846123D01*
X245462301Y-134834720D01*
X245462298Y-134834714D01*
X245329273Y-134644735D01*
X245329268Y-134644729D01*
X245165269Y-134480730D01*
X245119554Y-134448720D01*
X244975282Y-134347699D01*
X244765079Y-134249680D01*
X244765076Y-134249679D01*
X244765074Y-134249678D01*
X244541051Y-134189651D01*
X244541044Y-134189650D01*
X244310002Y-134169437D01*
X244309998Y-134169437D01*
X244078955Y-134189650D01*
X244078948Y-134189651D01*
X243854917Y-134249681D01*
X243644718Y-134347699D01*
X243644714Y-134347701D01*
X243454735Y-134480726D01*
X243454729Y-134480731D01*
X243290731Y-134644729D01*
X243290726Y-134644735D01*
X243157701Y-134834714D01*
X243157698Y-134834720D01*
X243152381Y-134846123D01*
X243106207Y-134898562D01*
X243039013Y-134917712D01*
X242972133Y-134897495D01*
X242927619Y-134846123D01*
X242922301Y-134834720D01*
X242922298Y-134834714D01*
X242789273Y-134644735D01*
X242789268Y-134644729D01*
X242625269Y-134480730D01*
X242579554Y-134448720D01*
X242435282Y-134347699D01*
X242225079Y-134249680D01*
X242225076Y-134249679D01*
X242225074Y-134249678D01*
X242001051Y-134189651D01*
X242001044Y-134189650D01*
X241770002Y-134169437D01*
X241769998Y-134169437D01*
X241538955Y-134189650D01*
X241538948Y-134189651D01*
X241314917Y-134249681D01*
X241104718Y-134347699D01*
X241104714Y-134347701D01*
X240914735Y-134480726D01*
X240914729Y-134480731D01*
X240750731Y-134644729D01*
X240750726Y-134644735D01*
X240617701Y-134834714D01*
X240617698Y-134834720D01*
X240612381Y-134846123D01*
X240566207Y-134898562D01*
X240499013Y-134917712D01*
X240432133Y-134897495D01*
X240387619Y-134846123D01*
X240382301Y-134834720D01*
X240382298Y-134834714D01*
X240249273Y-134644735D01*
X240249268Y-134644729D01*
X240085269Y-134480730D01*
X240039554Y-134448720D01*
X239895282Y-134347699D01*
X239685079Y-134249680D01*
X239685076Y-134249679D01*
X239685074Y-134249678D01*
X239461051Y-134189651D01*
X239461044Y-134189650D01*
X239230002Y-134169437D01*
X239229996Y-134169437D01*
X239135906Y-134177668D01*
X239067406Y-134163901D01*
X239017224Y-134115285D01*
X239001291Y-134047256D01*
X239024667Y-133981413D01*
X239037412Y-133966466D01*
X245000514Y-128003366D01*
X245011698Y-127983996D01*
X245076281Y-127872135D01*
X245108493Y-127751918D01*
X245115500Y-127725767D01*
X245115500Y-127574234D01*
X245115500Y-124499999D01*
X246895287Y-124499999D01*
X246895287Y-124500000D01*
X246914096Y-124702989D01*
X246914097Y-124702992D01*
X246969883Y-124899063D01*
X246969886Y-124899069D01*
X247060751Y-125081551D01*
X247062533Y-125083911D01*
X247600000Y-124546445D01*
X247600000Y-124552661D01*
X247627259Y-124654394D01*
X247679920Y-124745606D01*
X247754394Y-124820080D01*
X247845606Y-124872741D01*
X247947339Y-124900000D01*
X247953553Y-124900000D01*
X247419311Y-125434240D01*
X247507585Y-125488897D01*
X247697678Y-125562539D01*
X247898072Y-125600000D01*
X248101928Y-125600000D01*
X248302322Y-125562539D01*
X248492412Y-125488899D01*
X248492416Y-125488897D01*
X248580686Y-125434241D01*
X248580686Y-125434240D01*
X248046448Y-124900000D01*
X248052661Y-124900000D01*
X248154394Y-124872741D01*
X248245606Y-124820080D01*
X248320080Y-124745606D01*
X248372741Y-124654394D01*
X248400000Y-124552661D01*
X248400000Y-124546447D01*
X248937465Y-125083912D01*
X248939247Y-125081553D01*
X248939248Y-125081551D01*
X249030113Y-124899069D01*
X249030116Y-124899063D01*
X249085902Y-124702992D01*
X249085903Y-124702989D01*
X249104713Y-124500000D01*
X249104713Y-124499999D01*
X249085903Y-124297010D01*
X249085902Y-124297007D01*
X249030116Y-124100936D01*
X249030113Y-124100930D01*
X248939249Y-123918449D01*
X248939247Y-123918447D01*
X248937465Y-123916087D01*
X248400000Y-124453552D01*
X248400000Y-124447339D01*
X248372741Y-124345606D01*
X248320080Y-124254394D01*
X248245606Y-124179920D01*
X248154394Y-124127259D01*
X248052661Y-124100000D01*
X248046447Y-124100000D01*
X248580687Y-123565758D01*
X248492413Y-123511101D01*
X248492411Y-123511100D01*
X248302321Y-123437460D01*
X248101928Y-123400000D01*
X247898072Y-123400000D01*
X247697678Y-123437460D01*
X247507588Y-123511100D01*
X247507581Y-123511104D01*
X247419312Y-123565757D01*
X247419311Y-123565758D01*
X247953554Y-124100000D01*
X247947339Y-124100000D01*
X247845606Y-124127259D01*
X247754394Y-124179920D01*
X247679920Y-124254394D01*
X247627259Y-124345606D01*
X247600000Y-124447339D01*
X247600000Y-124453553D01*
X247062533Y-123916087D01*
X247060755Y-123918442D01*
X247060754Y-123918443D01*
X246969886Y-124100930D01*
X246969883Y-124100936D01*
X246914097Y-124297007D01*
X246914096Y-124297010D01*
X246895287Y-124499999D01*
X245115500Y-124499999D01*
X245115500Y-111773164D01*
X245135185Y-111706125D01*
X245187097Y-111660781D01*
X245204205Y-111652803D01*
X245205282Y-111652301D01*
X245395269Y-111519270D01*
X245559270Y-111355269D01*
X245692301Y-111165282D01*
X245697893Y-111153289D01*
X245744062Y-111100851D01*
X245811255Y-111081697D01*
X245878137Y-111101911D01*
X245922656Y-111153286D01*
X245928132Y-111165029D01*
X245983023Y-111243422D01*
X246556212Y-110670233D01*
X246567482Y-110712292D01*
X246639890Y-110837708D01*
X246742292Y-110940110D01*
X246867708Y-111012518D01*
X246909765Y-111023787D01*
X246336576Y-111596975D01*
X246414969Y-111651867D01*
X246625090Y-111749847D01*
X246625099Y-111749851D01*
X246849031Y-111809852D01*
X246849041Y-111809854D01*
X247079999Y-111830061D01*
X247080001Y-111830061D01*
X247310958Y-111809854D01*
X247310968Y-111809852D01*
X247534900Y-111749851D01*
X247534909Y-111749847D01*
X247745030Y-111651867D01*
X247745034Y-111651865D01*
X247823422Y-111596976D01*
X247823422Y-111596975D01*
X247250235Y-111023787D01*
X247292292Y-111012518D01*
X247417708Y-110940110D01*
X247520110Y-110837708D01*
X247592518Y-110712292D01*
X247603787Y-110670234D01*
X248176975Y-111243422D01*
X248176976Y-111243422D01*
X248231865Y-111165034D01*
X248231867Y-111165030D01*
X248329847Y-110954909D01*
X248329851Y-110954900D01*
X248389852Y-110730968D01*
X248389854Y-110730958D01*
X248410061Y-110500000D01*
X248410061Y-110499999D01*
X248389854Y-110269041D01*
X248389852Y-110269031D01*
X248329851Y-110045099D01*
X248329847Y-110045090D01*
X248231867Y-109834971D01*
X248231866Y-109834969D01*
X248176975Y-109756577D01*
X248176975Y-109756576D01*
X247603787Y-110329764D01*
X247592518Y-110287708D01*
X247520110Y-110162292D01*
X247417708Y-110059890D01*
X247292292Y-109987482D01*
X247250234Y-109976212D01*
X247599310Y-109627135D01*
X259094500Y-109627135D01*
X259094500Y-111372870D01*
X259094501Y-111372876D01*
X259100908Y-111432483D01*
X259151202Y-111567328D01*
X259151206Y-111567335D01*
X259237452Y-111682544D01*
X259237455Y-111682547D01*
X259352664Y-111768793D01*
X259352671Y-111768797D01*
X259383553Y-111780315D01*
X259487517Y-111819091D01*
X259547127Y-111825500D01*
X259720500Y-111825499D01*
X259787539Y-111845183D01*
X259833294Y-111897987D01*
X259844500Y-111949499D01*
X259844500Y-134050500D01*
X259824815Y-134117539D01*
X259772011Y-134163294D01*
X259720501Y-134174500D01*
X259547130Y-134174500D01*
X259547123Y-134174501D01*
X259487516Y-134180908D01*
X259352671Y-134231202D01*
X259352664Y-134231206D01*
X259237455Y-134317452D01*
X259237452Y-134317455D01*
X259151206Y-134432664D01*
X259151202Y-134432671D01*
X259100908Y-134567517D01*
X259094501Y-134627116D01*
X259094500Y-134627135D01*
X259094500Y-136372870D01*
X259094501Y-136372876D01*
X259100908Y-136432483D01*
X259151202Y-136567328D01*
X259151206Y-136567335D01*
X259237452Y-136682544D01*
X259237455Y-136682547D01*
X259352664Y-136768793D01*
X259352671Y-136768797D01*
X259487517Y-136819091D01*
X259487516Y-136819091D01*
X259494444Y-136819835D01*
X259547127Y-136825500D01*
X261292872Y-136825499D01*
X261352483Y-136819091D01*
X261487331Y-136768796D01*
X261602546Y-136682546D01*
X261688796Y-136567331D01*
X261739091Y-136432483D01*
X261739091Y-136432481D01*
X261740874Y-136424938D01*
X261743747Y-136425616D01*
X261765191Y-136373843D01*
X261822582Y-136333993D01*
X261892407Y-136331497D01*
X261949426Y-136363965D01*
X262104731Y-136519270D01*
X262294718Y-136652301D01*
X262504921Y-136750320D01*
X262728950Y-136810349D01*
X262893985Y-136824787D01*
X262959998Y-136830563D01*
X262960000Y-136830563D01*
X262960002Y-136830563D01*
X263017894Y-136825498D01*
X263191050Y-136810349D01*
X263415079Y-136750320D01*
X263625282Y-136652301D01*
X263815269Y-136519270D01*
X263979270Y-136355269D01*
X264112301Y-136165282D01*
X264117618Y-136153878D01*
X264163790Y-136101440D01*
X264230984Y-136082288D01*
X264297865Y-136102504D01*
X264342381Y-136153878D01*
X264347699Y-136165282D01*
X264480730Y-136355269D01*
X264644731Y-136519270D01*
X264834718Y-136652301D01*
X265044921Y-136750320D01*
X265268950Y-136810349D01*
X265433985Y-136824787D01*
X265499998Y-136830563D01*
X265500000Y-136830563D01*
X265500002Y-136830563D01*
X265557894Y-136825498D01*
X265731050Y-136810349D01*
X265955079Y-136750320D01*
X266165282Y-136652301D01*
X266355269Y-136519270D01*
X266519270Y-136355269D01*
X266652301Y-136165282D01*
X266750320Y-135955079D01*
X266810349Y-135731050D01*
X266830563Y-135500000D01*
X266810349Y-135268950D01*
X266750320Y-135044921D01*
X266652301Y-134834719D01*
X266652299Y-134834716D01*
X266652298Y-134834714D01*
X266519273Y-134644735D01*
X266519268Y-134644729D01*
X266355269Y-134480730D01*
X266309554Y-134448720D01*
X266165282Y-134347699D01*
X266165278Y-134347697D01*
X266147093Y-134339217D01*
X266094655Y-134293044D01*
X266075500Y-134226836D01*
X266075500Y-111773164D01*
X266095185Y-111706125D01*
X266147097Y-111660781D01*
X266164205Y-111652803D01*
X266165282Y-111652301D01*
X266355269Y-111519270D01*
X266519270Y-111355269D01*
X266652301Y-111165282D01*
X266750320Y-110955079D01*
X266810349Y-110731050D01*
X266830563Y-110500000D01*
X266810349Y-110268950D01*
X266750320Y-110044921D01*
X266652301Y-109834719D01*
X266652299Y-109834716D01*
X266652298Y-109834714D01*
X266519273Y-109644735D01*
X266519268Y-109644729D01*
X266355269Y-109480730D01*
X266286624Y-109432664D01*
X266165282Y-109347699D01*
X265955079Y-109249680D01*
X265955076Y-109249679D01*
X265955074Y-109249678D01*
X265731051Y-109189651D01*
X265731044Y-109189650D01*
X265500002Y-109169437D01*
X265499998Y-109169437D01*
X265268955Y-109189650D01*
X265268948Y-109189651D01*
X265044917Y-109249681D01*
X264834718Y-109347699D01*
X264834714Y-109347701D01*
X264644735Y-109480726D01*
X264644729Y-109480731D01*
X264480731Y-109644729D01*
X264480726Y-109644735D01*
X264347701Y-109834714D01*
X264347698Y-109834720D01*
X264342381Y-109846123D01*
X264296207Y-109898562D01*
X264229013Y-109917712D01*
X264162133Y-109897495D01*
X264117619Y-109846123D01*
X264115931Y-109842504D01*
X264112301Y-109834719D01*
X264112299Y-109834716D01*
X264112298Y-109834714D01*
X263979273Y-109644735D01*
X263979268Y-109644729D01*
X263815269Y-109480730D01*
X263746624Y-109432664D01*
X263625282Y-109347699D01*
X263415079Y-109249680D01*
X263415076Y-109249679D01*
X263415074Y-109249678D01*
X263191051Y-109189651D01*
X263191044Y-109189650D01*
X262960002Y-109169437D01*
X262959998Y-109169437D01*
X262728955Y-109189650D01*
X262728948Y-109189651D01*
X262504917Y-109249681D01*
X262294718Y-109347699D01*
X262294714Y-109347701D01*
X262104735Y-109480726D01*
X261949426Y-109636035D01*
X261888103Y-109669519D01*
X261818411Y-109664535D01*
X261762478Y-109622663D01*
X261743517Y-109574443D01*
X261740876Y-109575068D01*
X261739092Y-109567520D01*
X261688797Y-109432671D01*
X261688793Y-109432664D01*
X261602547Y-109317455D01*
X261602544Y-109317452D01*
X261487335Y-109231206D01*
X261487328Y-109231202D01*
X261352482Y-109180908D01*
X261352483Y-109180908D01*
X261292883Y-109174501D01*
X261292881Y-109174500D01*
X261292873Y-109174500D01*
X261292864Y-109174500D01*
X259547129Y-109174500D01*
X259547123Y-109174501D01*
X259487516Y-109180908D01*
X259352671Y-109231202D01*
X259352664Y-109231206D01*
X259237455Y-109317452D01*
X259237452Y-109317455D01*
X259151206Y-109432664D01*
X259151202Y-109432671D01*
X259100908Y-109567517D01*
X259094501Y-109627116D01*
X259094500Y-109627135D01*
X247599310Y-109627135D01*
X247823422Y-109403023D01*
X247745030Y-109348133D01*
X247534909Y-109250152D01*
X247534900Y-109250148D01*
X247310968Y-109190147D01*
X247310958Y-109190145D01*
X247080001Y-109169939D01*
X247079999Y-109169939D01*
X246849041Y-109190145D01*
X246849031Y-109190147D01*
X246625099Y-109250148D01*
X246625090Y-109250152D01*
X246414967Y-109348134D01*
X246336576Y-109403022D01*
X246909766Y-109976212D01*
X246867708Y-109987482D01*
X246742292Y-110059890D01*
X246639890Y-110162292D01*
X246567482Y-110287708D01*
X246556212Y-110329766D01*
X245983022Y-109756576D01*
X245928134Y-109834966D01*
X245922655Y-109846717D01*
X245876480Y-109899154D01*
X245809286Y-109918303D01*
X245742405Y-109898084D01*
X245697894Y-109846713D01*
X245692301Y-109834719D01*
X245559270Y-109644731D01*
X245395269Y-109480730D01*
X245205282Y-109347699D01*
X244995079Y-109249680D01*
X244995076Y-109249679D01*
X244995074Y-109249678D01*
X244771051Y-109189651D01*
X244771044Y-109189650D01*
X244540002Y-109169437D01*
X244539998Y-109169437D01*
X244308955Y-109189650D01*
X244308948Y-109189651D01*
X244084917Y-109249681D01*
X243874718Y-109347699D01*
X243874714Y-109347701D01*
X243684735Y-109480726D01*
X243529426Y-109636035D01*
X243468103Y-109669519D01*
X243398411Y-109664535D01*
X243342478Y-109622663D01*
X243323517Y-109574443D01*
X243320876Y-109575068D01*
X243319092Y-109567520D01*
X243268797Y-109432671D01*
X243268793Y-109432664D01*
X243182547Y-109317455D01*
X243182544Y-109317452D01*
X243067335Y-109231206D01*
X243067328Y-109231202D01*
X242932482Y-109180908D01*
X242932483Y-109180908D01*
X242872883Y-109174501D01*
X242872881Y-109174500D01*
X242872873Y-109174500D01*
X242872864Y-109174500D01*
X241127129Y-109174500D01*
X241127123Y-109174501D01*
X241067516Y-109180908D01*
X240932671Y-109231202D01*
X240932664Y-109231206D01*
X240817455Y-109317452D01*
X240817452Y-109317455D01*
X240731206Y-109432664D01*
X240731202Y-109432671D01*
X240680908Y-109567517D01*
X240674501Y-109627116D01*
X240674500Y-109627135D01*
X240674500Y-111372870D01*
X240674501Y-111372876D01*
X240680908Y-111432483D01*
X240731202Y-111567328D01*
X240731206Y-111567335D01*
X240817452Y-111682544D01*
X240817455Y-111682547D01*
X240932664Y-111768793D01*
X240932671Y-111768797D01*
X241067517Y-111819091D01*
X241067516Y-111819091D01*
X241072149Y-111819589D01*
X241127127Y-111825500D01*
X242872872Y-111825499D01*
X242932483Y-111819091D01*
X243067331Y-111768796D01*
X243182546Y-111682546D01*
X243268796Y-111567331D01*
X243319091Y-111432483D01*
X243319091Y-111432481D01*
X243320874Y-111424938D01*
X243323747Y-111425616D01*
X243345191Y-111373843D01*
X243402582Y-111333993D01*
X243472407Y-111331497D01*
X243529426Y-111363965D01*
X243684731Y-111519270D01*
X243874718Y-111652301D01*
X243874721Y-111652302D01*
X243874722Y-111652303D01*
X243892903Y-111660781D01*
X243945343Y-111706953D01*
X243964500Y-111773164D01*
X243964500Y-123323176D01*
X243944815Y-123390215D01*
X243892011Y-123435970D01*
X243822853Y-123445914D01*
X243797168Y-123439358D01*
X243707485Y-123405909D01*
X243707483Y-123405908D01*
X243647883Y-123399501D01*
X243647881Y-123399500D01*
X243647873Y-123399500D01*
X243647864Y-123399500D01*
X242352129Y-123399500D01*
X242352123Y-123399501D01*
X242292516Y-123405908D01*
X242157671Y-123456202D01*
X242157664Y-123456206D01*
X242042455Y-123542452D01*
X242042452Y-123542455D01*
X241956206Y-123657664D01*
X241956202Y-123657671D01*
X241905908Y-123792517D01*
X241899501Y-123852116D01*
X241899501Y-123852123D01*
X241899500Y-123852135D01*
X241899500Y-125147870D01*
X241899501Y-125147876D01*
X241905908Y-125207483D01*
X241956202Y-125342328D01*
X241956206Y-125342335D01*
X242042452Y-125457544D01*
X242042455Y-125457547D01*
X242157664Y-125543793D01*
X242157671Y-125543797D01*
X242292517Y-125594091D01*
X242292516Y-125594091D01*
X242299444Y-125594835D01*
X242352127Y-125600500D01*
X243647872Y-125600499D01*
X243707483Y-125594091D01*
X243797167Y-125560640D01*
X243866858Y-125555657D01*
X243928181Y-125589142D01*
X243961666Y-125650465D01*
X243964500Y-125676823D01*
X243964500Y-127360257D01*
X243944815Y-127427296D01*
X243928181Y-127447938D01*
X237181001Y-134195117D01*
X237119678Y-134228602D01*
X237061227Y-134227211D01*
X236921055Y-134189652D01*
X236921051Y-134189651D01*
X236921050Y-134189651D01*
X236921049Y-134189650D01*
X236921044Y-134189650D01*
X236690002Y-134169437D01*
X236689998Y-134169437D01*
X236458955Y-134189650D01*
X236458948Y-134189651D01*
X236234917Y-134249681D01*
X236024718Y-134347699D01*
X236024714Y-134347701D01*
X235834735Y-134480726D01*
X235679426Y-134636035D01*
X235618103Y-134669519D01*
X235548411Y-134664535D01*
X235492478Y-134622663D01*
X235473517Y-134574443D01*
X235470876Y-134575068D01*
X235469092Y-134567520D01*
X235418797Y-134432671D01*
X235418793Y-134432664D01*
X235332547Y-134317455D01*
X235332544Y-134317452D01*
X235217335Y-134231206D01*
X235217328Y-134231202D01*
X235082482Y-134180908D01*
X235082483Y-134180908D01*
X235022883Y-134174501D01*
X235022881Y-134174500D01*
X235022873Y-134174500D01*
X235022865Y-134174500D01*
X234728043Y-134174500D01*
X234661004Y-134154815D01*
X234620656Y-134112500D01*
X234614600Y-134102011D01*
X234610515Y-134094935D01*
X234503365Y-133987785D01*
X232651819Y-132136239D01*
X232618334Y-132074916D01*
X232615500Y-132048558D01*
X232615500Y-124499999D01*
X233395287Y-124499999D01*
X233395287Y-124500000D01*
X233414096Y-124702989D01*
X233414097Y-124702992D01*
X233469883Y-124899063D01*
X233469886Y-124899069D01*
X233560751Y-125081551D01*
X233562533Y-125083911D01*
X234100000Y-124546445D01*
X234100000Y-124552661D01*
X234127259Y-124654394D01*
X234179920Y-124745606D01*
X234254394Y-124820080D01*
X234345606Y-124872741D01*
X234447339Y-124900000D01*
X234453553Y-124900000D01*
X233919311Y-125434240D01*
X234007585Y-125488897D01*
X234197678Y-125562539D01*
X234398072Y-125600000D01*
X234601928Y-125600000D01*
X234802322Y-125562539D01*
X234992412Y-125488899D01*
X234992416Y-125488897D01*
X235080686Y-125434241D01*
X235080686Y-125434240D01*
X234546448Y-124900000D01*
X234552661Y-124900000D01*
X234654394Y-124872741D01*
X234745606Y-124820080D01*
X234820080Y-124745606D01*
X234872741Y-124654394D01*
X234900000Y-124552661D01*
X234900000Y-124546447D01*
X235437465Y-125083912D01*
X235439247Y-125081553D01*
X235439248Y-125081551D01*
X235530113Y-124899069D01*
X235530116Y-124899063D01*
X235585902Y-124702992D01*
X235585903Y-124702989D01*
X235604713Y-124500000D01*
X235604713Y-124499999D01*
X235585903Y-124297010D01*
X235585902Y-124297007D01*
X235530116Y-124100936D01*
X235530113Y-124100930D01*
X235439249Y-123918449D01*
X235439247Y-123918447D01*
X235437465Y-123916087D01*
X234900000Y-124453552D01*
X234900000Y-124447339D01*
X234872741Y-124345606D01*
X234820080Y-124254394D01*
X234745606Y-124179920D01*
X234654394Y-124127259D01*
X234552661Y-124100000D01*
X234546447Y-124100000D01*
X235080687Y-123565758D01*
X234992413Y-123511101D01*
X234992411Y-123511100D01*
X234802321Y-123437460D01*
X234601928Y-123400000D01*
X234398072Y-123400000D01*
X234197678Y-123437460D01*
X234007588Y-123511100D01*
X234007581Y-123511104D01*
X233919312Y-123565757D01*
X233919311Y-123565758D01*
X234453554Y-124100000D01*
X234447339Y-124100000D01*
X234345606Y-124127259D01*
X234254394Y-124179920D01*
X234179920Y-124254394D01*
X234127259Y-124345606D01*
X234100000Y-124447339D01*
X234100000Y-124453554D01*
X233562533Y-123916087D01*
X233560755Y-123918442D01*
X233560754Y-123918443D01*
X233469886Y-124100930D01*
X233469883Y-124100936D01*
X233414097Y-124297007D01*
X233414096Y-124297010D01*
X233395287Y-124499999D01*
X232615500Y-124499999D01*
X232615500Y-111773164D01*
X232635185Y-111706125D01*
X232687097Y-111660781D01*
X232704205Y-111652803D01*
X232705282Y-111652301D01*
X232895269Y-111519270D01*
X233059270Y-111355269D01*
X233192301Y-111165282D01*
X233197893Y-111153289D01*
X233244062Y-111100851D01*
X233311255Y-111081697D01*
X233378137Y-111101911D01*
X233422656Y-111153286D01*
X233428132Y-111165029D01*
X233483023Y-111243422D01*
X234056212Y-110670233D01*
X234067482Y-110712292D01*
X234139890Y-110837708D01*
X234242292Y-110940110D01*
X234367708Y-111012518D01*
X234409765Y-111023787D01*
X233836576Y-111596975D01*
X233914969Y-111651867D01*
X234125090Y-111749847D01*
X234125099Y-111749851D01*
X234349031Y-111809852D01*
X234349041Y-111809854D01*
X234579999Y-111830061D01*
X234580001Y-111830061D01*
X234810958Y-111809854D01*
X234810968Y-111809852D01*
X235034900Y-111749851D01*
X235034909Y-111749847D01*
X235245030Y-111651867D01*
X235245034Y-111651865D01*
X235323422Y-111596976D01*
X235323422Y-111596975D01*
X234750235Y-111023787D01*
X234792292Y-111012518D01*
X234917708Y-110940110D01*
X235020110Y-110837708D01*
X235092518Y-110712292D01*
X235103787Y-110670234D01*
X235676975Y-111243422D01*
X235676976Y-111243422D01*
X235731865Y-111165034D01*
X235731867Y-111165030D01*
X235829847Y-110954909D01*
X235829851Y-110954900D01*
X235889852Y-110730968D01*
X235889854Y-110730958D01*
X235910061Y-110500000D01*
X235910061Y-110499999D01*
X235889854Y-110269041D01*
X235889852Y-110269031D01*
X235829851Y-110045099D01*
X235829847Y-110045090D01*
X235731867Y-109834971D01*
X235731866Y-109834969D01*
X235676975Y-109756577D01*
X235676975Y-109756576D01*
X235103787Y-110329764D01*
X235092518Y-110287708D01*
X235020110Y-110162292D01*
X234917708Y-110059890D01*
X234792292Y-109987482D01*
X234750234Y-109976212D01*
X235323422Y-109403023D01*
X235245030Y-109348133D01*
X235034909Y-109250152D01*
X235034900Y-109250148D01*
X234810968Y-109190147D01*
X234810958Y-109190145D01*
X234580001Y-109169939D01*
X234579999Y-109169939D01*
X234349041Y-109190145D01*
X234349031Y-109190147D01*
X234125099Y-109250148D01*
X234125090Y-109250152D01*
X233914967Y-109348134D01*
X233836576Y-109403022D01*
X234409766Y-109976212D01*
X234367708Y-109987482D01*
X234242292Y-110059890D01*
X234139890Y-110162292D01*
X234067482Y-110287708D01*
X234056212Y-110329766D01*
X233483022Y-109756576D01*
X233428134Y-109834966D01*
X233422655Y-109846717D01*
X233376480Y-109899154D01*
X233309286Y-109918303D01*
X233242405Y-109898084D01*
X233197894Y-109846713D01*
X233192301Y-109834719D01*
X233059270Y-109644731D01*
X232895269Y-109480730D01*
X232705282Y-109347699D01*
X232495079Y-109249680D01*
X232495076Y-109249679D01*
X232495074Y-109249678D01*
X232271051Y-109189651D01*
X232271044Y-109189650D01*
X232040002Y-109169437D01*
X232039998Y-109169437D01*
X231808955Y-109189650D01*
X231808948Y-109189651D01*
X231584917Y-109249681D01*
X231374718Y-109347699D01*
X231374714Y-109347701D01*
X231184735Y-109480726D01*
X231029426Y-109636035D01*
X230968103Y-109669519D01*
X230898411Y-109664535D01*
X230842478Y-109622663D01*
X230823517Y-109574443D01*
X230820876Y-109575068D01*
X230819092Y-109567520D01*
X230768797Y-109432671D01*
X230768793Y-109432664D01*
X230682547Y-109317455D01*
X230682544Y-109317452D01*
X230567335Y-109231206D01*
X230567328Y-109231202D01*
X230432482Y-109180908D01*
X230432483Y-109180908D01*
X230372883Y-109174501D01*
X230372881Y-109174500D01*
X230372873Y-109174500D01*
X230372864Y-109174500D01*
X228627129Y-109174500D01*
X228627123Y-109174501D01*
X228567516Y-109180908D01*
X228432671Y-109231202D01*
X228432664Y-109231206D01*
X228317455Y-109317452D01*
X228317452Y-109317455D01*
X228231206Y-109432664D01*
X228231202Y-109432671D01*
X228180908Y-109567517D01*
X228174501Y-109627116D01*
X228174500Y-109627135D01*
X207409310Y-109627135D01*
X207632922Y-109403523D01*
X207554530Y-109348633D01*
X207344409Y-109250652D01*
X207344400Y-109250648D01*
X207120468Y-109190647D01*
X207120458Y-109190645D01*
X206889501Y-109170439D01*
X206889499Y-109170439D01*
X206658541Y-109190645D01*
X206658531Y-109190647D01*
X206434599Y-109250648D01*
X206434590Y-109250652D01*
X206224467Y-109348634D01*
X206146076Y-109403522D01*
X206719266Y-109976712D01*
X206677208Y-109987982D01*
X206551792Y-110060390D01*
X206449390Y-110162792D01*
X206376982Y-110288208D01*
X206365712Y-110330266D01*
X205792522Y-109757076D01*
X205737634Y-109835466D01*
X205732155Y-109847217D01*
X205685980Y-109899654D01*
X205618786Y-109918803D01*
X205551905Y-109898584D01*
X205507394Y-109847213D01*
X205501801Y-109835219D01*
X205368770Y-109645231D01*
X205204769Y-109481230D01*
X205014782Y-109348199D01*
X204804579Y-109250180D01*
X204804576Y-109250179D01*
X204804574Y-109250178D01*
X204580551Y-109190151D01*
X204580544Y-109190150D01*
X204349502Y-109169937D01*
X204349498Y-109169937D01*
X204118455Y-109190150D01*
X204118444Y-109190152D01*
X203978271Y-109227711D01*
X203908421Y-109226048D01*
X203858497Y-109195617D01*
X203619967Y-108957087D01*
X203619965Y-108957085D01*
X203554350Y-108919202D01*
X203488736Y-108881319D01*
X203415550Y-108861709D01*
X203342366Y-108842100D01*
X167008167Y-108842100D01*
X166856634Y-108842100D01*
X166710263Y-108881319D01*
X166579035Y-108957085D01*
X166340501Y-109195618D01*
X166279178Y-109229102D01*
X166220727Y-109227711D01*
X166080555Y-109190152D01*
X166080551Y-109190151D01*
X166080550Y-109190151D01*
X166080549Y-109190150D01*
X166080544Y-109190150D01*
X165849502Y-109169937D01*
X165849498Y-109169937D01*
X165618455Y-109190150D01*
X165618448Y-109190151D01*
X165394417Y-109250181D01*
X165184218Y-109348199D01*
X165184214Y-109348201D01*
X164994235Y-109481226D01*
X164994229Y-109481231D01*
X164830231Y-109645229D01*
X164830226Y-109645235D01*
X164697201Y-109835214D01*
X164697198Y-109835220D01*
X164691881Y-109846623D01*
X164645707Y-109899062D01*
X164578513Y-109918212D01*
X164511633Y-109897995D01*
X164467119Y-109846623D01*
X164465431Y-109843004D01*
X164461801Y-109835219D01*
X164461799Y-109835216D01*
X164461798Y-109835214D01*
X164328773Y-109645235D01*
X164328768Y-109645229D01*
X164164769Y-109481230D01*
X164053792Y-109403523D01*
X163974782Y-109348199D01*
X163764579Y-109250180D01*
X163764576Y-109250179D01*
X163764574Y-109250178D01*
X163540551Y-109190151D01*
X163540544Y-109190150D01*
X163309502Y-109169937D01*
X163309498Y-109169937D01*
X163078455Y-109190150D01*
X163078448Y-109190151D01*
X162854417Y-109250181D01*
X162644218Y-109348199D01*
X162644214Y-109348201D01*
X162454235Y-109481226D01*
X162454229Y-109481231D01*
X162290231Y-109645229D01*
X162290226Y-109645235D01*
X162157201Y-109835214D01*
X162157198Y-109835220D01*
X162151881Y-109846623D01*
X162105707Y-109899062D01*
X162038513Y-109918212D01*
X161971633Y-109897995D01*
X161927119Y-109846623D01*
X161925431Y-109843004D01*
X161921801Y-109835219D01*
X161921799Y-109835216D01*
X161921798Y-109835214D01*
X161788773Y-109645235D01*
X161788768Y-109645229D01*
X161624769Y-109481230D01*
X161513792Y-109403523D01*
X161434782Y-109348199D01*
X161224579Y-109250180D01*
X161224576Y-109250179D01*
X161224574Y-109250178D01*
X161000551Y-109190151D01*
X161000544Y-109190150D01*
X160769502Y-109169937D01*
X160769498Y-109169937D01*
X160538455Y-109190150D01*
X160538448Y-109190151D01*
X160314417Y-109250181D01*
X160104218Y-109348199D01*
X160104214Y-109348201D01*
X159914235Y-109481226D01*
X159914229Y-109481231D01*
X159750231Y-109645229D01*
X159750226Y-109645235D01*
X159617201Y-109835214D01*
X159617198Y-109835220D01*
X159611881Y-109846623D01*
X159565707Y-109899062D01*
X159498513Y-109918212D01*
X159431633Y-109897995D01*
X159387119Y-109846623D01*
X159385431Y-109843004D01*
X159381801Y-109835219D01*
X159381799Y-109835216D01*
X159381798Y-109835214D01*
X159248773Y-109645235D01*
X159248768Y-109645229D01*
X159084769Y-109481230D01*
X158973792Y-109403523D01*
X158894782Y-109348199D01*
X158684579Y-109250180D01*
X158684576Y-109250179D01*
X158684574Y-109250178D01*
X158460551Y-109190151D01*
X158460544Y-109190150D01*
X158229502Y-109169937D01*
X158229498Y-109169937D01*
X157998455Y-109190150D01*
X157998448Y-109190151D01*
X157774417Y-109250181D01*
X157564218Y-109348199D01*
X157564214Y-109348201D01*
X157374235Y-109481226D01*
X157374229Y-109481231D01*
X157210231Y-109645229D01*
X157210226Y-109645235D01*
X157077201Y-109835214D01*
X157077198Y-109835220D01*
X157071881Y-109846623D01*
X157025707Y-109899062D01*
X156958513Y-109918212D01*
X156891633Y-109897995D01*
X156847119Y-109846623D01*
X156845431Y-109843004D01*
X156841801Y-109835219D01*
X156841799Y-109835216D01*
X156841798Y-109835214D01*
X156708773Y-109645235D01*
X156708768Y-109645229D01*
X156544769Y-109481230D01*
X156433792Y-109403523D01*
X156354782Y-109348199D01*
X156144579Y-109250180D01*
X156144576Y-109250179D01*
X156144574Y-109250178D01*
X155920551Y-109190151D01*
X155920544Y-109190150D01*
X155689502Y-109169937D01*
X155689498Y-109169937D01*
X155458455Y-109190150D01*
X155458448Y-109190151D01*
X155234417Y-109250181D01*
X155024218Y-109348199D01*
X155024214Y-109348201D01*
X154834235Y-109481226D01*
X154834229Y-109481231D01*
X154670231Y-109645229D01*
X154670226Y-109645235D01*
X154537201Y-109835214D01*
X154537198Y-109835220D01*
X154531881Y-109846623D01*
X154485707Y-109899062D01*
X154418513Y-109918212D01*
X154351633Y-109897995D01*
X154307119Y-109846623D01*
X154305431Y-109843004D01*
X154301801Y-109835219D01*
X154301799Y-109835216D01*
X154301798Y-109835214D01*
X154168773Y-109645235D01*
X154168768Y-109645229D01*
X154004769Y-109481230D01*
X153893792Y-109403523D01*
X153814782Y-109348199D01*
X153604579Y-109250180D01*
X153604576Y-109250179D01*
X153604574Y-109250178D01*
X153380551Y-109190151D01*
X153380544Y-109190150D01*
X153149502Y-109169937D01*
X153149498Y-109169937D01*
X152918455Y-109190150D01*
X152918448Y-109190151D01*
X152694417Y-109250181D01*
X152484218Y-109348199D01*
X152484214Y-109348201D01*
X152294235Y-109481226D01*
X152138926Y-109636535D01*
X152077603Y-109670019D01*
X152007911Y-109665035D01*
X151951978Y-109623163D01*
X151933017Y-109574943D01*
X151930376Y-109575568D01*
X151928592Y-109568020D01*
X151928404Y-109567517D01*
X151896220Y-109481226D01*
X151878297Y-109433171D01*
X151878293Y-109433164D01*
X151792047Y-109317955D01*
X151792044Y-109317952D01*
X151676835Y-109231706D01*
X151676828Y-109231702D01*
X151541982Y-109181408D01*
X151541983Y-109181408D01*
X151482383Y-109175001D01*
X151482381Y-109175000D01*
X151482373Y-109175000D01*
X151482364Y-109175000D01*
X149736629Y-109175000D01*
X149736623Y-109175001D01*
X149677016Y-109181408D01*
X149542171Y-109231702D01*
X149542164Y-109231706D01*
X149426955Y-109317952D01*
X149426952Y-109317955D01*
X149340706Y-109433164D01*
X149340702Y-109433171D01*
X149290408Y-109568017D01*
X149284001Y-109627616D01*
X149284000Y-109627635D01*
X131250000Y-109627635D01*
X131250000Y-107624000D01*
X131269685Y-107556961D01*
X131322489Y-107511206D01*
X131374000Y-107500000D01*
X267626000Y-107500000D01*
X267693039Y-107519685D01*
G37*
G04 #@! TD.AperFunction*
G04 #@! TD*
M02*
