%TF.GenerationSoftware,KiCad,Pcbnew,8.0.6*%
%TF.CreationDate,2024-12-27T11:38:38-05:00*%
%TF.ProjectId,sdl_breakout,73646c5f-6272-4656-916b-6f75742e6b69,rev?*%
%TF.SameCoordinates,Original*%
%TF.FileFunction,Drillmap*%
%TF.FilePolarity,Positive*%
%FSLAX45Y45*%
G04 Gerber Fmt 4.5, Leading zero omitted, Abs format (unit mm)*
G04 Created by KiCad (PCBNEW 8.0.6) date 2024-12-27 11:38:38*
%MOMM*%
%LPD*%
G01*
G04 APERTURE LIST*
%ADD10C,0.100000*%
%ADD11C,0.200000*%
G04 APERTURE END LIST*
D10*
X13125000Y-10750000D02*
X26775000Y-10750000D01*
X26775000Y-13850000D01*
X13125000Y-13850000D01*
X13125000Y-10750000D01*
D11*
X13380777Y-14166484D02*
X13380777Y-13966484D01*
X13380777Y-13966484D02*
X13428396Y-13966484D01*
X13428396Y-13966484D02*
X13456967Y-13976008D01*
X13456967Y-13976008D02*
X13476015Y-13995055D01*
X13476015Y-13995055D02*
X13485539Y-14014103D01*
X13485539Y-14014103D02*
X13495062Y-14052198D01*
X13495062Y-14052198D02*
X13495062Y-14080769D01*
X13495062Y-14080769D02*
X13485539Y-14118865D01*
X13485539Y-14118865D02*
X13476015Y-14137912D01*
X13476015Y-14137912D02*
X13456967Y-14156960D01*
X13456967Y-14156960D02*
X13428396Y-14166484D01*
X13428396Y-14166484D02*
X13380777Y-14166484D01*
X13580777Y-14166484D02*
X13580777Y-14033150D01*
X13580777Y-14071246D02*
X13590301Y-14052198D01*
X13590301Y-14052198D02*
X13599824Y-14042674D01*
X13599824Y-14042674D02*
X13618872Y-14033150D01*
X13618872Y-14033150D02*
X13637920Y-14033150D01*
X13704586Y-14166484D02*
X13704586Y-14033150D01*
X13704586Y-13966484D02*
X13695062Y-13976008D01*
X13695062Y-13976008D02*
X13704586Y-13985531D01*
X13704586Y-13985531D02*
X13714110Y-13976008D01*
X13714110Y-13976008D02*
X13704586Y-13966484D01*
X13704586Y-13966484D02*
X13704586Y-13985531D01*
X13828396Y-14166484D02*
X13809348Y-14156960D01*
X13809348Y-14156960D02*
X13799824Y-14137912D01*
X13799824Y-14137912D02*
X13799824Y-13966484D01*
X13933158Y-14166484D02*
X13914110Y-14156960D01*
X13914110Y-14156960D02*
X13904586Y-14137912D01*
X13904586Y-14137912D02*
X13904586Y-13966484D01*
X14161729Y-14166484D02*
X14161729Y-13966484D01*
X14161729Y-13966484D02*
X14228396Y-14109341D01*
X14228396Y-14109341D02*
X14295062Y-13966484D01*
X14295062Y-13966484D02*
X14295062Y-14166484D01*
X14476015Y-14166484D02*
X14476015Y-14061722D01*
X14476015Y-14061722D02*
X14466491Y-14042674D01*
X14466491Y-14042674D02*
X14447443Y-14033150D01*
X14447443Y-14033150D02*
X14409348Y-14033150D01*
X14409348Y-14033150D02*
X14390301Y-14042674D01*
X14476015Y-14156960D02*
X14456967Y-14166484D01*
X14456967Y-14166484D02*
X14409348Y-14166484D01*
X14409348Y-14166484D02*
X14390301Y-14156960D01*
X14390301Y-14156960D02*
X14380777Y-14137912D01*
X14380777Y-14137912D02*
X14380777Y-14118865D01*
X14380777Y-14118865D02*
X14390301Y-14099817D01*
X14390301Y-14099817D02*
X14409348Y-14090293D01*
X14409348Y-14090293D02*
X14456967Y-14090293D01*
X14456967Y-14090293D02*
X14476015Y-14080769D01*
X14571253Y-14033150D02*
X14571253Y-14233150D01*
X14571253Y-14042674D02*
X14590301Y-14033150D01*
X14590301Y-14033150D02*
X14628396Y-14033150D01*
X14628396Y-14033150D02*
X14647443Y-14042674D01*
X14647443Y-14042674D02*
X14656967Y-14052198D01*
X14656967Y-14052198D02*
X14666491Y-14071246D01*
X14666491Y-14071246D02*
X14666491Y-14128388D01*
X14666491Y-14128388D02*
X14656967Y-14147436D01*
X14656967Y-14147436D02*
X14647443Y-14156960D01*
X14647443Y-14156960D02*
X14628396Y-14166484D01*
X14628396Y-14166484D02*
X14590301Y-14166484D01*
X14590301Y-14166484D02*
X14571253Y-14156960D01*
X14752205Y-14147436D02*
X14761729Y-14156960D01*
X14761729Y-14156960D02*
X14752205Y-14166484D01*
X14752205Y-14166484D02*
X14742682Y-14156960D01*
X14742682Y-14156960D02*
X14752205Y-14147436D01*
X14752205Y-14147436D02*
X14752205Y-14166484D01*
X14752205Y-14042674D02*
X14761729Y-14052198D01*
X14761729Y-14052198D02*
X14752205Y-14061722D01*
X14752205Y-14061722D02*
X14742682Y-14052198D01*
X14742682Y-14052198D02*
X14752205Y-14042674D01*
X14752205Y-14042674D02*
X14752205Y-14061722D01*
M02*
