G04 #@! TF.GenerationSoftware,KiCad,Pcbnew,8.0.6*
G04 #@! TF.CreationDate,2024-12-27T11:38:37-05:00*
G04 #@! TF.ProjectId,sdl_breakout,73646c5f-6272-4656-916b-6f75742e6b69,rev?*
G04 #@! TF.SameCoordinates,Original*
G04 #@! TF.FileFunction,Legend,Top*
G04 #@! TF.FilePolarity,Positive*
%FSLAX46Y46*%
G04 Gerber Fmt 4.6, Leading zero omitted, Abs format (unit mm)*
G04 Created by KiCad (PCBNEW 8.0.6) date 2024-12-27 11:38:37*
%MOMM*%
%LPD*%
G01*
G04 APERTURE LIST*
G04 Aperture macros list*
%AMRoundRect*
0 Rectangle with rounded corners*
0 $1 Rounding radius*
0 $2 $3 $4 $5 $6 $7 $8 $9 X,Y pos of 4 corners*
0 Add a 4 corners polygon primitive as box body*
4,1,4,$2,$3,$4,$5,$6,$7,$8,$9,$2,$3,0*
0 Add four circle primitives for the rounded corners*
1,1,$1+$1,$2,$3*
1,1,$1+$1,$4,$5*
1,1,$1+$1,$6,$7*
1,1,$1+$1,$8,$9*
0 Add four rect primitives between the rounded corners*
20,1,$1+$1,$2,$3,$4,$5,0*
20,1,$1+$1,$4,$5,$6,$7,0*
20,1,$1+$1,$6,$7,$8,$9,0*
20,1,$1+$1,$8,$9,$2,$3,0*%
G04 Aperture macros list end*
%ADD10C,0.150000*%
%ADD11C,0.254000*%
%ADD12C,0.200000*%
%ADD13C,0.120000*%
%ADD14C,0.100000*%
%ADD15C,1.650000*%
%ADD16R,1.650000X1.650000*%
%ADD17RoundRect,0.200000X-0.200000X-0.275000X0.200000X-0.275000X0.200000X0.275000X-0.200000X0.275000X0*%
%ADD18R,1.950000X1.950000*%
%ADD19C,1.950000*%
%ADD20R,0.950000X0.950000*%
%ADD21R,1.200000X1.200000*%
%ADD22C,1.200000*%
%ADD23RoundRect,0.225000X-0.225000X-0.250000X0.225000X-0.250000X0.225000X0.250000X-0.225000X0.250000X0*%
%ADD24R,1.820000X1.050000*%
%ADD25R,1.100000X1.100000*%
%ADD26C,1.100000*%
G04 APERTURE END LIST*
D10*
X235336779Y-138369819D02*
X235336779Y-137369819D01*
X235336779Y-137369819D02*
X235717731Y-137369819D01*
X235717731Y-137369819D02*
X235812969Y-137417438D01*
X235812969Y-137417438D02*
X235860588Y-137465057D01*
X235860588Y-137465057D02*
X235908207Y-137560295D01*
X235908207Y-137560295D02*
X235908207Y-137703152D01*
X235908207Y-137703152D02*
X235860588Y-137798390D01*
X235860588Y-137798390D02*
X235812969Y-137846009D01*
X235812969Y-137846009D02*
X235717731Y-137893628D01*
X235717731Y-137893628D02*
X235336779Y-137893628D01*
X236241541Y-137369819D02*
X236479636Y-138369819D01*
X236479636Y-138369819D02*
X236670112Y-137655533D01*
X236670112Y-137655533D02*
X236860588Y-138369819D01*
X236860588Y-138369819D02*
X237098684Y-137369819D01*
X237479636Y-138369819D02*
X237479636Y-137369819D01*
X237479636Y-137369819D02*
X237812969Y-138084104D01*
X237812969Y-138084104D02*
X238146302Y-137369819D01*
X238146302Y-137369819D02*
X238146302Y-138369819D01*
X239146302Y-138369819D02*
X238574874Y-138369819D01*
X238860588Y-138369819D02*
X238860588Y-137369819D01*
X238860588Y-137369819D02*
X238765350Y-137512676D01*
X238765350Y-137512676D02*
X238670112Y-137607914D01*
X238670112Y-137607914D02*
X238574874Y-137655533D01*
X231836779Y-133369819D02*
X231836779Y-132369819D01*
X231836779Y-132369819D02*
X232217731Y-132369819D01*
X232217731Y-132369819D02*
X232312969Y-132417438D01*
X232312969Y-132417438D02*
X232360588Y-132465057D01*
X232360588Y-132465057D02*
X232408207Y-132560295D01*
X232408207Y-132560295D02*
X232408207Y-132703152D01*
X232408207Y-132703152D02*
X232360588Y-132798390D01*
X232360588Y-132798390D02*
X232312969Y-132846009D01*
X232312969Y-132846009D02*
X232217731Y-132893628D01*
X232217731Y-132893628D02*
X231836779Y-132893628D01*
X232741541Y-132369819D02*
X232979636Y-133369819D01*
X232979636Y-133369819D02*
X233170112Y-132655533D01*
X233170112Y-132655533D02*
X233360588Y-133369819D01*
X233360588Y-133369819D02*
X233598684Y-132369819D01*
X233979636Y-133369819D02*
X233979636Y-132369819D01*
X233979636Y-132369819D02*
X234312969Y-133084104D01*
X234312969Y-133084104D02*
X234646302Y-132369819D01*
X234646302Y-132369819D02*
X234646302Y-133369819D01*
X235646302Y-133369819D02*
X235074874Y-133369819D01*
X235360588Y-133369819D02*
X235360588Y-132369819D01*
X235360588Y-132369819D02*
X235265350Y-132512676D01*
X235265350Y-132512676D02*
X235170112Y-132607914D01*
X235170112Y-132607914D02*
X235074874Y-132655533D01*
X246812969Y-133369819D02*
X246336779Y-133369819D01*
X246336779Y-133369819D02*
X246336779Y-132369819D01*
X247146303Y-132846009D02*
X247479636Y-132846009D01*
X247622493Y-133369819D02*
X247146303Y-133369819D01*
X247146303Y-133369819D02*
X247146303Y-132369819D01*
X247146303Y-132369819D02*
X247622493Y-132369819D01*
X248051065Y-133369819D02*
X248051065Y-132369819D01*
X248051065Y-132369819D02*
X248289160Y-132369819D01*
X248289160Y-132369819D02*
X248432017Y-132417438D01*
X248432017Y-132417438D02*
X248527255Y-132512676D01*
X248527255Y-132512676D02*
X248574874Y-132607914D01*
X248574874Y-132607914D02*
X248622493Y-132798390D01*
X248622493Y-132798390D02*
X248622493Y-132941247D01*
X248622493Y-132941247D02*
X248574874Y-133131723D01*
X248574874Y-133131723D02*
X248527255Y-133226961D01*
X248527255Y-133226961D02*
X248432017Y-133322200D01*
X248432017Y-133322200D02*
X248289160Y-133369819D01*
X248289160Y-133369819D02*
X248051065Y-133369819D01*
X244312969Y-133369819D02*
X243836779Y-133369819D01*
X243836779Y-133369819D02*
X243836779Y-132369819D01*
X244646303Y-132846009D02*
X244979636Y-132846009D01*
X245122493Y-133369819D02*
X244646303Y-133369819D01*
X244646303Y-133369819D02*
X244646303Y-132369819D01*
X244646303Y-132369819D02*
X245122493Y-132369819D01*
X245551065Y-133369819D02*
X245551065Y-132369819D01*
X245551065Y-132369819D02*
X245789160Y-132369819D01*
X245789160Y-132369819D02*
X245932017Y-132417438D01*
X245932017Y-132417438D02*
X246027255Y-132512676D01*
X246027255Y-132512676D02*
X246074874Y-132607914D01*
X246074874Y-132607914D02*
X246122493Y-132798390D01*
X246122493Y-132798390D02*
X246122493Y-132941247D01*
X246122493Y-132941247D02*
X246074874Y-133131723D01*
X246074874Y-133131723D02*
X246027255Y-133226961D01*
X246027255Y-133226961D02*
X245932017Y-133322200D01*
X245932017Y-133322200D02*
X245789160Y-133369819D01*
X245789160Y-133369819D02*
X245551065Y-133369819D01*
X261368207Y-113774580D02*
X261320588Y-113822200D01*
X261320588Y-113822200D02*
X261177731Y-113869819D01*
X261177731Y-113869819D02*
X261082493Y-113869819D01*
X261082493Y-113869819D02*
X260939636Y-113822200D01*
X260939636Y-113822200D02*
X260844398Y-113726961D01*
X260844398Y-113726961D02*
X260796779Y-113631723D01*
X260796779Y-113631723D02*
X260749160Y-113441247D01*
X260749160Y-113441247D02*
X260749160Y-113298390D01*
X260749160Y-113298390D02*
X260796779Y-113107914D01*
X260796779Y-113107914D02*
X260844398Y-113012676D01*
X260844398Y-113012676D02*
X260939636Y-112917438D01*
X260939636Y-112917438D02*
X261082493Y-112869819D01*
X261082493Y-112869819D02*
X261177731Y-112869819D01*
X261177731Y-112869819D02*
X261320588Y-112917438D01*
X261320588Y-112917438D02*
X261368207Y-112965057D01*
X262463446Y-112869819D02*
X262701541Y-113869819D01*
X262701541Y-113869819D02*
X262892017Y-113155533D01*
X262892017Y-113155533D02*
X263082493Y-113869819D01*
X263082493Y-113869819D02*
X263320589Y-112869819D01*
X265034874Y-113869819D02*
X264701541Y-113393628D01*
X264463446Y-113869819D02*
X264463446Y-112869819D01*
X264463446Y-112869819D02*
X264844398Y-112869819D01*
X264844398Y-112869819D02*
X264939636Y-112917438D01*
X264939636Y-112917438D02*
X264987255Y-112965057D01*
X264987255Y-112965057D02*
X265034874Y-113060295D01*
X265034874Y-113060295D02*
X265034874Y-113203152D01*
X265034874Y-113203152D02*
X264987255Y-113298390D01*
X264987255Y-113298390D02*
X264939636Y-113346009D01*
X264939636Y-113346009D02*
X264844398Y-113393628D01*
X264844398Y-113393628D02*
X264463446Y-113393628D01*
X261368207Y-132774580D02*
X261320588Y-132822200D01*
X261320588Y-132822200D02*
X261177731Y-132869819D01*
X261177731Y-132869819D02*
X261082493Y-132869819D01*
X261082493Y-132869819D02*
X260939636Y-132822200D01*
X260939636Y-132822200D02*
X260844398Y-132726961D01*
X260844398Y-132726961D02*
X260796779Y-132631723D01*
X260796779Y-132631723D02*
X260749160Y-132441247D01*
X260749160Y-132441247D02*
X260749160Y-132298390D01*
X260749160Y-132298390D02*
X260796779Y-132107914D01*
X260796779Y-132107914D02*
X260844398Y-132012676D01*
X260844398Y-132012676D02*
X260939636Y-131917438D01*
X260939636Y-131917438D02*
X261082493Y-131869819D01*
X261082493Y-131869819D02*
X261177731Y-131869819D01*
X261177731Y-131869819D02*
X261320588Y-131917438D01*
X261320588Y-131917438D02*
X261368207Y-131965057D01*
X262463446Y-131869819D02*
X262701541Y-132869819D01*
X262701541Y-132869819D02*
X262892017Y-132155533D01*
X262892017Y-132155533D02*
X263082493Y-132869819D01*
X263082493Y-132869819D02*
X263320589Y-131869819D01*
X265034874Y-132869819D02*
X264701541Y-132393628D01*
X264463446Y-132869819D02*
X264463446Y-131869819D01*
X264463446Y-131869819D02*
X264844398Y-131869819D01*
X264844398Y-131869819D02*
X264939636Y-131917438D01*
X264939636Y-131917438D02*
X264987255Y-131965057D01*
X264987255Y-131965057D02*
X265034874Y-132060295D01*
X265034874Y-132060295D02*
X265034874Y-132203152D01*
X265034874Y-132203152D02*
X264987255Y-132298390D01*
X264987255Y-132298390D02*
X264939636Y-132346009D01*
X264939636Y-132346009D02*
X264844398Y-132393628D01*
X264844398Y-132393628D02*
X264463446Y-132393628D01*
X242836779Y-113369819D02*
X242836779Y-112369819D01*
X242836779Y-112369819D02*
X243217731Y-112369819D01*
X243217731Y-112369819D02*
X243312969Y-112417438D01*
X243312969Y-112417438D02*
X243360588Y-112465057D01*
X243360588Y-112465057D02*
X243408207Y-112560295D01*
X243408207Y-112560295D02*
X243408207Y-112703152D01*
X243408207Y-112703152D02*
X243360588Y-112798390D01*
X243360588Y-112798390D02*
X243312969Y-112846009D01*
X243312969Y-112846009D02*
X243217731Y-112893628D01*
X243217731Y-112893628D02*
X242836779Y-112893628D01*
X243741541Y-112369819D02*
X243979636Y-113369819D01*
X243979636Y-113369819D02*
X244170112Y-112655533D01*
X244170112Y-112655533D02*
X244360588Y-113369819D01*
X244360588Y-113369819D02*
X244598684Y-112369819D01*
X244979636Y-113369819D02*
X244979636Y-112369819D01*
X244979636Y-112369819D02*
X245312969Y-113084104D01*
X245312969Y-113084104D02*
X245646302Y-112369819D01*
X245646302Y-112369819D02*
X245646302Y-113369819D01*
X246860588Y-112417438D02*
X246765350Y-112369819D01*
X246765350Y-112369819D02*
X246622493Y-112369819D01*
X246622493Y-112369819D02*
X246479636Y-112417438D01*
X246479636Y-112417438D02*
X246384398Y-112512676D01*
X246384398Y-112512676D02*
X246336779Y-112607914D01*
X246336779Y-112607914D02*
X246289160Y-112798390D01*
X246289160Y-112798390D02*
X246289160Y-112941247D01*
X246289160Y-112941247D02*
X246336779Y-113131723D01*
X246336779Y-113131723D02*
X246384398Y-113226961D01*
X246384398Y-113226961D02*
X246479636Y-113322200D01*
X246479636Y-113322200D02*
X246622493Y-113369819D01*
X246622493Y-113369819D02*
X246717731Y-113369819D01*
X246717731Y-113369819D02*
X246860588Y-113322200D01*
X246860588Y-113322200D02*
X246908207Y-113274580D01*
X246908207Y-113274580D02*
X246908207Y-112941247D01*
X246908207Y-112941247D02*
X246717731Y-112941247D01*
X247336779Y-113369819D02*
X247336779Y-112369819D01*
X247336779Y-112369819D02*
X247908207Y-113369819D01*
X247908207Y-113369819D02*
X247908207Y-112369819D01*
X248384398Y-113369819D02*
X248384398Y-112369819D01*
X248384398Y-112369819D02*
X248622493Y-112369819D01*
X248622493Y-112369819D02*
X248765350Y-112417438D01*
X248765350Y-112417438D02*
X248860588Y-112512676D01*
X248860588Y-112512676D02*
X248908207Y-112607914D01*
X248908207Y-112607914D02*
X248955826Y-112798390D01*
X248955826Y-112798390D02*
X248955826Y-112941247D01*
X248955826Y-112941247D02*
X248908207Y-113131723D01*
X248908207Y-113131723D02*
X248860588Y-113226961D01*
X248860588Y-113226961D02*
X248765350Y-113322200D01*
X248765350Y-113322200D02*
X248622493Y-113369819D01*
X248622493Y-113369819D02*
X248384398Y-113369819D01*
X241312969Y-112369819D02*
X240836779Y-112369819D01*
X240836779Y-112369819D02*
X240789160Y-112846009D01*
X240789160Y-112846009D02*
X240836779Y-112798390D01*
X240836779Y-112798390D02*
X240932017Y-112750771D01*
X240932017Y-112750771D02*
X241170112Y-112750771D01*
X241170112Y-112750771D02*
X241265350Y-112798390D01*
X241265350Y-112798390D02*
X241312969Y-112846009D01*
X241312969Y-112846009D02*
X241360588Y-112941247D01*
X241360588Y-112941247D02*
X241360588Y-113179342D01*
X241360588Y-113179342D02*
X241312969Y-113274580D01*
X241312969Y-113274580D02*
X241265350Y-113322200D01*
X241265350Y-113322200D02*
X241170112Y-113369819D01*
X241170112Y-113369819D02*
X240932017Y-113369819D01*
X240932017Y-113369819D02*
X240836779Y-113322200D01*
X240836779Y-113322200D02*
X240789160Y-113274580D01*
X241646303Y-112369819D02*
X241979636Y-113369819D01*
X241979636Y-113369819D02*
X242312969Y-112369819D01*
X230336779Y-113369819D02*
X230336779Y-112369819D01*
X230336779Y-112369819D02*
X230717731Y-112369819D01*
X230717731Y-112369819D02*
X230812969Y-112417438D01*
X230812969Y-112417438D02*
X230860588Y-112465057D01*
X230860588Y-112465057D02*
X230908207Y-112560295D01*
X230908207Y-112560295D02*
X230908207Y-112703152D01*
X230908207Y-112703152D02*
X230860588Y-112798390D01*
X230860588Y-112798390D02*
X230812969Y-112846009D01*
X230812969Y-112846009D02*
X230717731Y-112893628D01*
X230717731Y-112893628D02*
X230336779Y-112893628D01*
X231241541Y-112369819D02*
X231479636Y-113369819D01*
X231479636Y-113369819D02*
X231670112Y-112655533D01*
X231670112Y-112655533D02*
X231860588Y-113369819D01*
X231860588Y-113369819D02*
X232098684Y-112369819D01*
X232479636Y-113369819D02*
X232479636Y-112369819D01*
X232479636Y-112369819D02*
X232812969Y-113084104D01*
X232812969Y-113084104D02*
X233146302Y-112369819D01*
X233146302Y-112369819D02*
X233146302Y-113369819D01*
X234360588Y-112417438D02*
X234265350Y-112369819D01*
X234265350Y-112369819D02*
X234122493Y-112369819D01*
X234122493Y-112369819D02*
X233979636Y-112417438D01*
X233979636Y-112417438D02*
X233884398Y-112512676D01*
X233884398Y-112512676D02*
X233836779Y-112607914D01*
X233836779Y-112607914D02*
X233789160Y-112798390D01*
X233789160Y-112798390D02*
X233789160Y-112941247D01*
X233789160Y-112941247D02*
X233836779Y-113131723D01*
X233836779Y-113131723D02*
X233884398Y-113226961D01*
X233884398Y-113226961D02*
X233979636Y-113322200D01*
X233979636Y-113322200D02*
X234122493Y-113369819D01*
X234122493Y-113369819D02*
X234217731Y-113369819D01*
X234217731Y-113369819D02*
X234360588Y-113322200D01*
X234360588Y-113322200D02*
X234408207Y-113274580D01*
X234408207Y-113274580D02*
X234408207Y-112941247D01*
X234408207Y-112941247D02*
X234217731Y-112941247D01*
X234836779Y-113369819D02*
X234836779Y-112369819D01*
X234836779Y-112369819D02*
X235408207Y-113369819D01*
X235408207Y-113369819D02*
X235408207Y-112369819D01*
X235884398Y-113369819D02*
X235884398Y-112369819D01*
X235884398Y-112369819D02*
X236122493Y-112369819D01*
X236122493Y-112369819D02*
X236265350Y-112417438D01*
X236265350Y-112417438D02*
X236360588Y-112512676D01*
X236360588Y-112512676D02*
X236408207Y-112607914D01*
X236408207Y-112607914D02*
X236455826Y-112798390D01*
X236455826Y-112798390D02*
X236455826Y-112941247D01*
X236455826Y-112941247D02*
X236408207Y-113131723D01*
X236408207Y-113131723D02*
X236360588Y-113226961D01*
X236360588Y-113226961D02*
X236265350Y-113322200D01*
X236265350Y-113322200D02*
X236122493Y-113369819D01*
X236122493Y-113369819D02*
X235884398Y-113369819D01*
X228812969Y-112369819D02*
X228336779Y-112369819D01*
X228336779Y-112369819D02*
X228289160Y-112846009D01*
X228289160Y-112846009D02*
X228336779Y-112798390D01*
X228336779Y-112798390D02*
X228432017Y-112750771D01*
X228432017Y-112750771D02*
X228670112Y-112750771D01*
X228670112Y-112750771D02*
X228765350Y-112798390D01*
X228765350Y-112798390D02*
X228812969Y-112846009D01*
X228812969Y-112846009D02*
X228860588Y-112941247D01*
X228860588Y-112941247D02*
X228860588Y-113179342D01*
X228860588Y-113179342D02*
X228812969Y-113274580D01*
X228812969Y-113274580D02*
X228765350Y-113322200D01*
X228765350Y-113322200D02*
X228670112Y-113369819D01*
X228670112Y-113369819D02*
X228432017Y-113369819D01*
X228432017Y-113369819D02*
X228336779Y-113322200D01*
X228336779Y-113322200D02*
X228289160Y-113274580D01*
X229146303Y-112369819D02*
X229479636Y-113369819D01*
X229479636Y-113369819D02*
X229812969Y-112369819D01*
X220360588Y-119869819D02*
X219789160Y-119869819D01*
X220074874Y-119869819D02*
X220074874Y-118869819D01*
X220074874Y-118869819D02*
X219979636Y-119012676D01*
X219979636Y-119012676D02*
X219884398Y-119107914D01*
X219884398Y-119107914D02*
X219789160Y-119155533D01*
X220741541Y-118965057D02*
X220789160Y-118917438D01*
X220789160Y-118917438D02*
X220884398Y-118869819D01*
X220884398Y-118869819D02*
X221122493Y-118869819D01*
X221122493Y-118869819D02*
X221217731Y-118917438D01*
X221217731Y-118917438D02*
X221265350Y-118965057D01*
X221265350Y-118965057D02*
X221312969Y-119060295D01*
X221312969Y-119060295D02*
X221312969Y-119155533D01*
X221312969Y-119155533D02*
X221265350Y-119298390D01*
X221265350Y-119298390D02*
X220693922Y-119869819D01*
X220693922Y-119869819D02*
X221312969Y-119869819D01*
X221598684Y-118869819D02*
X221932017Y-119869819D01*
X221932017Y-119869819D02*
X222265350Y-118869819D01*
X214860588Y-118917438D02*
X214765350Y-118869819D01*
X214765350Y-118869819D02*
X214622493Y-118869819D01*
X214622493Y-118869819D02*
X214479636Y-118917438D01*
X214479636Y-118917438D02*
X214384398Y-119012676D01*
X214384398Y-119012676D02*
X214336779Y-119107914D01*
X214336779Y-119107914D02*
X214289160Y-119298390D01*
X214289160Y-119298390D02*
X214289160Y-119441247D01*
X214289160Y-119441247D02*
X214336779Y-119631723D01*
X214336779Y-119631723D02*
X214384398Y-119726961D01*
X214384398Y-119726961D02*
X214479636Y-119822200D01*
X214479636Y-119822200D02*
X214622493Y-119869819D01*
X214622493Y-119869819D02*
X214717731Y-119869819D01*
X214717731Y-119869819D02*
X214860588Y-119822200D01*
X214860588Y-119822200D02*
X214908207Y-119774580D01*
X214908207Y-119774580D02*
X214908207Y-119441247D01*
X214908207Y-119441247D02*
X214717731Y-119441247D01*
X215336779Y-119869819D02*
X215336779Y-118869819D01*
X215336779Y-118869819D02*
X215908207Y-119869819D01*
X215908207Y-119869819D02*
X215908207Y-118869819D01*
X216384398Y-119869819D02*
X216384398Y-118869819D01*
X216384398Y-118869819D02*
X216622493Y-118869819D01*
X216622493Y-118869819D02*
X216765350Y-118917438D01*
X216765350Y-118917438D02*
X216860588Y-119012676D01*
X216860588Y-119012676D02*
X216908207Y-119107914D01*
X216908207Y-119107914D02*
X216955826Y-119298390D01*
X216955826Y-119298390D02*
X216955826Y-119441247D01*
X216955826Y-119441247D02*
X216908207Y-119631723D01*
X216908207Y-119631723D02*
X216860588Y-119726961D01*
X216860588Y-119726961D02*
X216765350Y-119822200D01*
X216765350Y-119822200D02*
X216622493Y-119869819D01*
X216622493Y-119869819D02*
X216384398Y-119869819D01*
X180860588Y-119869819D02*
X180289160Y-119869819D01*
X180574874Y-119869819D02*
X180574874Y-118869819D01*
X180574874Y-118869819D02*
X180479636Y-119012676D01*
X180479636Y-119012676D02*
X180384398Y-119107914D01*
X180384398Y-119107914D02*
X180289160Y-119155533D01*
X181241541Y-118965057D02*
X181289160Y-118917438D01*
X181289160Y-118917438D02*
X181384398Y-118869819D01*
X181384398Y-118869819D02*
X181622493Y-118869819D01*
X181622493Y-118869819D02*
X181717731Y-118917438D01*
X181717731Y-118917438D02*
X181765350Y-118965057D01*
X181765350Y-118965057D02*
X181812969Y-119060295D01*
X181812969Y-119060295D02*
X181812969Y-119155533D01*
X181812969Y-119155533D02*
X181765350Y-119298390D01*
X181765350Y-119298390D02*
X181193922Y-119869819D01*
X181193922Y-119869819D02*
X181812969Y-119869819D01*
X182098684Y-118869819D02*
X182432017Y-119869819D01*
X182432017Y-119869819D02*
X182765350Y-118869819D01*
X175360588Y-118917438D02*
X175265350Y-118869819D01*
X175265350Y-118869819D02*
X175122493Y-118869819D01*
X175122493Y-118869819D02*
X174979636Y-118917438D01*
X174979636Y-118917438D02*
X174884398Y-119012676D01*
X174884398Y-119012676D02*
X174836779Y-119107914D01*
X174836779Y-119107914D02*
X174789160Y-119298390D01*
X174789160Y-119298390D02*
X174789160Y-119441247D01*
X174789160Y-119441247D02*
X174836779Y-119631723D01*
X174836779Y-119631723D02*
X174884398Y-119726961D01*
X174884398Y-119726961D02*
X174979636Y-119822200D01*
X174979636Y-119822200D02*
X175122493Y-119869819D01*
X175122493Y-119869819D02*
X175217731Y-119869819D01*
X175217731Y-119869819D02*
X175360588Y-119822200D01*
X175360588Y-119822200D02*
X175408207Y-119774580D01*
X175408207Y-119774580D02*
X175408207Y-119441247D01*
X175408207Y-119441247D02*
X175217731Y-119441247D01*
X175836779Y-119869819D02*
X175836779Y-118869819D01*
X175836779Y-118869819D02*
X176408207Y-119869819D01*
X176408207Y-119869819D02*
X176408207Y-118869819D01*
X176884398Y-119869819D02*
X176884398Y-118869819D01*
X176884398Y-118869819D02*
X177122493Y-118869819D01*
X177122493Y-118869819D02*
X177265350Y-118917438D01*
X177265350Y-118917438D02*
X177360588Y-119012676D01*
X177360588Y-119012676D02*
X177408207Y-119107914D01*
X177408207Y-119107914D02*
X177455826Y-119298390D01*
X177455826Y-119298390D02*
X177455826Y-119441247D01*
X177455826Y-119441247D02*
X177408207Y-119631723D01*
X177408207Y-119631723D02*
X177360588Y-119726961D01*
X177360588Y-119726961D02*
X177265350Y-119822200D01*
X177265350Y-119822200D02*
X177122493Y-119869819D01*
X177122493Y-119869819D02*
X176884398Y-119869819D01*
X190336779Y-133369819D02*
X190336779Y-132369819D01*
X190812969Y-133369819D02*
X190812969Y-132369819D01*
X190812969Y-132369819D02*
X191384397Y-133369819D01*
X191384397Y-133369819D02*
X191384397Y-132369819D01*
X191812969Y-132465057D02*
X191860588Y-132417438D01*
X191860588Y-132417438D02*
X191955826Y-132369819D01*
X191955826Y-132369819D02*
X192193921Y-132369819D01*
X192193921Y-132369819D02*
X192289159Y-132417438D01*
X192289159Y-132417438D02*
X192336778Y-132465057D01*
X192336778Y-132465057D02*
X192384397Y-132560295D01*
X192384397Y-132560295D02*
X192384397Y-132655533D01*
X192384397Y-132655533D02*
X192336778Y-132798390D01*
X192336778Y-132798390D02*
X191765350Y-133369819D01*
X191765350Y-133369819D02*
X192384397Y-133369819D01*
X187836779Y-133369819D02*
X187836779Y-132369819D01*
X188312969Y-133369819D02*
X188312969Y-132369819D01*
X188312969Y-132369819D02*
X188884397Y-133369819D01*
X188884397Y-133369819D02*
X188884397Y-132369819D01*
X189884397Y-133369819D02*
X189312969Y-133369819D01*
X189598683Y-133369819D02*
X189598683Y-132369819D01*
X189598683Y-132369819D02*
X189503445Y-132512676D01*
X189503445Y-132512676D02*
X189408207Y-132607914D01*
X189408207Y-132607914D02*
X189312969Y-132655533D01*
X192836779Y-133369819D02*
X192836779Y-132369819D01*
X193312969Y-133369819D02*
X193312969Y-132369819D01*
X193312969Y-132369819D02*
X193884397Y-133369819D01*
X193884397Y-133369819D02*
X193884397Y-132369819D01*
X194265350Y-132369819D02*
X194884397Y-132369819D01*
X194884397Y-132369819D02*
X194551064Y-132750771D01*
X194551064Y-132750771D02*
X194693921Y-132750771D01*
X194693921Y-132750771D02*
X194789159Y-132798390D01*
X194789159Y-132798390D02*
X194836778Y-132846009D01*
X194836778Y-132846009D02*
X194884397Y-132941247D01*
X194884397Y-132941247D02*
X194884397Y-133179342D01*
X194884397Y-133179342D02*
X194836778Y-133274580D01*
X194836778Y-133274580D02*
X194789159Y-133322200D01*
X194789159Y-133322200D02*
X194693921Y-133369819D01*
X194693921Y-133369819D02*
X194408207Y-133369819D01*
X194408207Y-133369819D02*
X194312969Y-133322200D01*
X194312969Y-133322200D02*
X194265350Y-133274580D01*
X195336779Y-133369819D02*
X195336779Y-132369819D01*
X195812969Y-133369819D02*
X195812969Y-132369819D01*
X195812969Y-132369819D02*
X196384397Y-133369819D01*
X196384397Y-133369819D02*
X196384397Y-132369819D01*
X197289159Y-132703152D02*
X197289159Y-133369819D01*
X197051064Y-132322200D02*
X196812969Y-133036485D01*
X196812969Y-133036485D02*
X197432016Y-133036485D01*
X197836779Y-132846009D02*
X198170112Y-132846009D01*
X198312969Y-133369819D02*
X197836779Y-133369819D01*
X197836779Y-133369819D02*
X197836779Y-132369819D01*
X197836779Y-132369819D02*
X198312969Y-132369819D01*
X198741541Y-133369819D02*
X198741541Y-132369819D01*
X198741541Y-132369819D02*
X199312969Y-133369819D01*
X199312969Y-133369819D02*
X199312969Y-132369819D01*
X199741541Y-133084104D02*
X200217731Y-133084104D01*
X199646303Y-133369819D02*
X199979636Y-132369819D01*
X199979636Y-132369819D02*
X200312969Y-133369819D01*
X200836779Y-132846009D02*
X201170112Y-132846009D01*
X201312969Y-133369819D02*
X200836779Y-133369819D01*
X200836779Y-133369819D02*
X200836779Y-132369819D01*
X200836779Y-132369819D02*
X201312969Y-132369819D01*
X201741541Y-133369819D02*
X201741541Y-132369819D01*
X201741541Y-132369819D02*
X202312969Y-133369819D01*
X202312969Y-133369819D02*
X202312969Y-132369819D01*
X203122493Y-132846009D02*
X203265350Y-132893628D01*
X203265350Y-132893628D02*
X203312969Y-132941247D01*
X203312969Y-132941247D02*
X203360588Y-133036485D01*
X203360588Y-133036485D02*
X203360588Y-133179342D01*
X203360588Y-133179342D02*
X203312969Y-133274580D01*
X203312969Y-133274580D02*
X203265350Y-133322200D01*
X203265350Y-133322200D02*
X203170112Y-133369819D01*
X203170112Y-133369819D02*
X202789160Y-133369819D01*
X202789160Y-133369819D02*
X202789160Y-132369819D01*
X202789160Y-132369819D02*
X203122493Y-132369819D01*
X203122493Y-132369819D02*
X203217731Y-132417438D01*
X203217731Y-132417438D02*
X203265350Y-132465057D01*
X203265350Y-132465057D02*
X203312969Y-132560295D01*
X203312969Y-132560295D02*
X203312969Y-132655533D01*
X203312969Y-132655533D02*
X203265350Y-132750771D01*
X203265350Y-132750771D02*
X203217731Y-132798390D01*
X203217731Y-132798390D02*
X203122493Y-132846009D01*
X203122493Y-132846009D02*
X202789160Y-132846009D01*
X206360588Y-112417438D02*
X206265350Y-112369819D01*
X206265350Y-112369819D02*
X206122493Y-112369819D01*
X206122493Y-112369819D02*
X205979636Y-112417438D01*
X205979636Y-112417438D02*
X205884398Y-112512676D01*
X205884398Y-112512676D02*
X205836779Y-112607914D01*
X205836779Y-112607914D02*
X205789160Y-112798390D01*
X205789160Y-112798390D02*
X205789160Y-112941247D01*
X205789160Y-112941247D02*
X205836779Y-113131723D01*
X205836779Y-113131723D02*
X205884398Y-113226961D01*
X205884398Y-113226961D02*
X205979636Y-113322200D01*
X205979636Y-113322200D02*
X206122493Y-113369819D01*
X206122493Y-113369819D02*
X206217731Y-113369819D01*
X206217731Y-113369819D02*
X206360588Y-113322200D01*
X206360588Y-113322200D02*
X206408207Y-113274580D01*
X206408207Y-113274580D02*
X206408207Y-112941247D01*
X206408207Y-112941247D02*
X206217731Y-112941247D01*
X206836779Y-113369819D02*
X206836779Y-112369819D01*
X206836779Y-112369819D02*
X207408207Y-113369819D01*
X207408207Y-113369819D02*
X207408207Y-112369819D01*
X207884398Y-113369819D02*
X207884398Y-112369819D01*
X207884398Y-112369819D02*
X208122493Y-112369819D01*
X208122493Y-112369819D02*
X208265350Y-112417438D01*
X208265350Y-112417438D02*
X208360588Y-112512676D01*
X208360588Y-112512676D02*
X208408207Y-112607914D01*
X208408207Y-112607914D02*
X208455826Y-112798390D01*
X208455826Y-112798390D02*
X208455826Y-112941247D01*
X208455826Y-112941247D02*
X208408207Y-113131723D01*
X208408207Y-113131723D02*
X208360588Y-113226961D01*
X208360588Y-113226961D02*
X208265350Y-113322200D01*
X208265350Y-113322200D02*
X208122493Y-113369819D01*
X208122493Y-113369819D02*
X207884398Y-113369819D01*
X190336779Y-113369819D02*
X190336779Y-112369819D01*
X190812969Y-113369819D02*
X190812969Y-112369819D01*
X190812969Y-112369819D02*
X191384397Y-113369819D01*
X191384397Y-113369819D02*
X191384397Y-112369819D01*
X191812969Y-112465057D02*
X191860588Y-112417438D01*
X191860588Y-112417438D02*
X191955826Y-112369819D01*
X191955826Y-112369819D02*
X192193921Y-112369819D01*
X192193921Y-112369819D02*
X192289159Y-112417438D01*
X192289159Y-112417438D02*
X192336778Y-112465057D01*
X192336778Y-112465057D02*
X192384397Y-112560295D01*
X192384397Y-112560295D02*
X192384397Y-112655533D01*
X192384397Y-112655533D02*
X192336778Y-112798390D01*
X192336778Y-112798390D02*
X191765350Y-113369819D01*
X191765350Y-113369819D02*
X192384397Y-113369819D01*
X187836779Y-113369819D02*
X187836779Y-112369819D01*
X188312969Y-113369819D02*
X188312969Y-112369819D01*
X188312969Y-112369819D02*
X188884397Y-113369819D01*
X188884397Y-113369819D02*
X188884397Y-112369819D01*
X189884397Y-113369819D02*
X189312969Y-113369819D01*
X189598683Y-113369819D02*
X189598683Y-112369819D01*
X189598683Y-112369819D02*
X189503445Y-112512676D01*
X189503445Y-112512676D02*
X189408207Y-112607914D01*
X189408207Y-112607914D02*
X189312969Y-112655533D01*
X192836779Y-113369819D02*
X192836779Y-112369819D01*
X193312969Y-113369819D02*
X193312969Y-112369819D01*
X193312969Y-112369819D02*
X193884397Y-113369819D01*
X193884397Y-113369819D02*
X193884397Y-112369819D01*
X194265350Y-112369819D02*
X194884397Y-112369819D01*
X194884397Y-112369819D02*
X194551064Y-112750771D01*
X194551064Y-112750771D02*
X194693921Y-112750771D01*
X194693921Y-112750771D02*
X194789159Y-112798390D01*
X194789159Y-112798390D02*
X194836778Y-112846009D01*
X194836778Y-112846009D02*
X194884397Y-112941247D01*
X194884397Y-112941247D02*
X194884397Y-113179342D01*
X194884397Y-113179342D02*
X194836778Y-113274580D01*
X194836778Y-113274580D02*
X194789159Y-113322200D01*
X194789159Y-113322200D02*
X194693921Y-113369819D01*
X194693921Y-113369819D02*
X194408207Y-113369819D01*
X194408207Y-113369819D02*
X194312969Y-113322200D01*
X194312969Y-113322200D02*
X194265350Y-113274580D01*
X195336779Y-113369819D02*
X195336779Y-112369819D01*
X195812969Y-113369819D02*
X195812969Y-112369819D01*
X195812969Y-112369819D02*
X196384397Y-113369819D01*
X196384397Y-113369819D02*
X196384397Y-112369819D01*
X197289159Y-112703152D02*
X197289159Y-113369819D01*
X197051064Y-112322200D02*
X196812969Y-113036485D01*
X196812969Y-113036485D02*
X197432016Y-113036485D01*
X197836779Y-112846009D02*
X198170112Y-112846009D01*
X198312969Y-113369819D02*
X197836779Y-113369819D01*
X197836779Y-113369819D02*
X197836779Y-112369819D01*
X197836779Y-112369819D02*
X198312969Y-112369819D01*
X198741541Y-113369819D02*
X198741541Y-112369819D01*
X198741541Y-112369819D02*
X199312969Y-113369819D01*
X199312969Y-113369819D02*
X199312969Y-112369819D01*
X199741541Y-113084104D02*
X200217731Y-113084104D01*
X199646303Y-113369819D02*
X199979636Y-112369819D01*
X199979636Y-112369819D02*
X200312969Y-113369819D01*
X200836779Y-112846009D02*
X201170112Y-112846009D01*
X201312969Y-113369819D02*
X200836779Y-113369819D01*
X200836779Y-113369819D02*
X200836779Y-112369819D01*
X200836779Y-112369819D02*
X201312969Y-112369819D01*
X201741541Y-113369819D02*
X201741541Y-112369819D01*
X201741541Y-112369819D02*
X202312969Y-113369819D01*
X202312969Y-113369819D02*
X202312969Y-112369819D01*
X203122493Y-112846009D02*
X203265350Y-112893628D01*
X203265350Y-112893628D02*
X203312969Y-112941247D01*
X203312969Y-112941247D02*
X203360588Y-113036485D01*
X203360588Y-113036485D02*
X203360588Y-113179342D01*
X203360588Y-113179342D02*
X203312969Y-113274580D01*
X203312969Y-113274580D02*
X203265350Y-113322200D01*
X203265350Y-113322200D02*
X203170112Y-113369819D01*
X203170112Y-113369819D02*
X202789160Y-113369819D01*
X202789160Y-113369819D02*
X202789160Y-112369819D01*
X202789160Y-112369819D02*
X203122493Y-112369819D01*
X203122493Y-112369819D02*
X203217731Y-112417438D01*
X203217731Y-112417438D02*
X203265350Y-112465057D01*
X203265350Y-112465057D02*
X203312969Y-112560295D01*
X203312969Y-112560295D02*
X203312969Y-112655533D01*
X203312969Y-112655533D02*
X203265350Y-112750771D01*
X203265350Y-112750771D02*
X203217731Y-112798390D01*
X203217731Y-112798390D02*
X203122493Y-112846009D01*
X203122493Y-112846009D02*
X202789160Y-112846009D01*
X204312969Y-112369819D02*
X203836779Y-112369819D01*
X203836779Y-112369819D02*
X203789160Y-112846009D01*
X203789160Y-112846009D02*
X203836779Y-112798390D01*
X203836779Y-112798390D02*
X203932017Y-112750771D01*
X203932017Y-112750771D02*
X204170112Y-112750771D01*
X204170112Y-112750771D02*
X204265350Y-112798390D01*
X204265350Y-112798390D02*
X204312969Y-112846009D01*
X204312969Y-112846009D02*
X204360588Y-112941247D01*
X204360588Y-112941247D02*
X204360588Y-113179342D01*
X204360588Y-113179342D02*
X204312969Y-113274580D01*
X204312969Y-113274580D02*
X204265350Y-113322200D01*
X204265350Y-113322200D02*
X204170112Y-113369819D01*
X204170112Y-113369819D02*
X203932017Y-113369819D01*
X203932017Y-113369819D02*
X203836779Y-113322200D01*
X203836779Y-113322200D02*
X203789160Y-113274580D01*
X204646303Y-112369819D02*
X204979636Y-113369819D01*
X204979636Y-113369819D02*
X205312969Y-112369819D01*
X167860588Y-112417438D02*
X167765350Y-112369819D01*
X167765350Y-112369819D02*
X167622493Y-112369819D01*
X167622493Y-112369819D02*
X167479636Y-112417438D01*
X167479636Y-112417438D02*
X167384398Y-112512676D01*
X167384398Y-112512676D02*
X167336779Y-112607914D01*
X167336779Y-112607914D02*
X167289160Y-112798390D01*
X167289160Y-112798390D02*
X167289160Y-112941247D01*
X167289160Y-112941247D02*
X167336779Y-113131723D01*
X167336779Y-113131723D02*
X167384398Y-113226961D01*
X167384398Y-113226961D02*
X167479636Y-113322200D01*
X167479636Y-113322200D02*
X167622493Y-113369819D01*
X167622493Y-113369819D02*
X167717731Y-113369819D01*
X167717731Y-113369819D02*
X167860588Y-113322200D01*
X167860588Y-113322200D02*
X167908207Y-113274580D01*
X167908207Y-113274580D02*
X167908207Y-112941247D01*
X167908207Y-112941247D02*
X167717731Y-112941247D01*
X168336779Y-113369819D02*
X168336779Y-112369819D01*
X168336779Y-112369819D02*
X168908207Y-113369819D01*
X168908207Y-113369819D02*
X168908207Y-112369819D01*
X169384398Y-113369819D02*
X169384398Y-112369819D01*
X169384398Y-112369819D02*
X169622493Y-112369819D01*
X169622493Y-112369819D02*
X169765350Y-112417438D01*
X169765350Y-112417438D02*
X169860588Y-112512676D01*
X169860588Y-112512676D02*
X169908207Y-112607914D01*
X169908207Y-112607914D02*
X169955826Y-112798390D01*
X169955826Y-112798390D02*
X169955826Y-112941247D01*
X169955826Y-112941247D02*
X169908207Y-113131723D01*
X169908207Y-113131723D02*
X169860588Y-113226961D01*
X169860588Y-113226961D02*
X169765350Y-113322200D01*
X169765350Y-113322200D02*
X169622493Y-113369819D01*
X169622493Y-113369819D02*
X169384398Y-113369819D01*
X165812969Y-112369819D02*
X165336779Y-112369819D01*
X165336779Y-112369819D02*
X165289160Y-112846009D01*
X165289160Y-112846009D02*
X165336779Y-112798390D01*
X165336779Y-112798390D02*
X165432017Y-112750771D01*
X165432017Y-112750771D02*
X165670112Y-112750771D01*
X165670112Y-112750771D02*
X165765350Y-112798390D01*
X165765350Y-112798390D02*
X165812969Y-112846009D01*
X165812969Y-112846009D02*
X165860588Y-112941247D01*
X165860588Y-112941247D02*
X165860588Y-113179342D01*
X165860588Y-113179342D02*
X165812969Y-113274580D01*
X165812969Y-113274580D02*
X165765350Y-113322200D01*
X165765350Y-113322200D02*
X165670112Y-113369819D01*
X165670112Y-113369819D02*
X165432017Y-113369819D01*
X165432017Y-113369819D02*
X165336779Y-113322200D01*
X165336779Y-113322200D02*
X165289160Y-113274580D01*
X166146303Y-112369819D02*
X166479636Y-113369819D01*
X166479636Y-113369819D02*
X166812969Y-112369819D01*
X151836779Y-113369819D02*
X151836779Y-112369819D01*
X152312969Y-113369819D02*
X152312969Y-112369819D01*
X152312969Y-112369819D02*
X152884397Y-113369819D01*
X152884397Y-113369819D02*
X152884397Y-112369819D01*
X153312969Y-112465057D02*
X153360588Y-112417438D01*
X153360588Y-112417438D02*
X153455826Y-112369819D01*
X153455826Y-112369819D02*
X153693921Y-112369819D01*
X153693921Y-112369819D02*
X153789159Y-112417438D01*
X153789159Y-112417438D02*
X153836778Y-112465057D01*
X153836778Y-112465057D02*
X153884397Y-112560295D01*
X153884397Y-112560295D02*
X153884397Y-112655533D01*
X153884397Y-112655533D02*
X153836778Y-112798390D01*
X153836778Y-112798390D02*
X153265350Y-113369819D01*
X153265350Y-113369819D02*
X153884397Y-113369819D01*
X149336779Y-113369819D02*
X149336779Y-112369819D01*
X149812969Y-113369819D02*
X149812969Y-112369819D01*
X149812969Y-112369819D02*
X150384397Y-113369819D01*
X150384397Y-113369819D02*
X150384397Y-112369819D01*
X151384397Y-113369819D02*
X150812969Y-113369819D01*
X151098683Y-113369819D02*
X151098683Y-112369819D01*
X151098683Y-112369819D02*
X151003445Y-112512676D01*
X151003445Y-112512676D02*
X150908207Y-112607914D01*
X150908207Y-112607914D02*
X150812969Y-112655533D01*
X154336779Y-113369819D02*
X154336779Y-112369819D01*
X154812969Y-113369819D02*
X154812969Y-112369819D01*
X154812969Y-112369819D02*
X155384397Y-113369819D01*
X155384397Y-113369819D02*
X155384397Y-112369819D01*
X155765350Y-112369819D02*
X156384397Y-112369819D01*
X156384397Y-112369819D02*
X156051064Y-112750771D01*
X156051064Y-112750771D02*
X156193921Y-112750771D01*
X156193921Y-112750771D02*
X156289159Y-112798390D01*
X156289159Y-112798390D02*
X156336778Y-112846009D01*
X156336778Y-112846009D02*
X156384397Y-112941247D01*
X156384397Y-112941247D02*
X156384397Y-113179342D01*
X156384397Y-113179342D02*
X156336778Y-113274580D01*
X156336778Y-113274580D02*
X156289159Y-113322200D01*
X156289159Y-113322200D02*
X156193921Y-113369819D01*
X156193921Y-113369819D02*
X155908207Y-113369819D01*
X155908207Y-113369819D02*
X155812969Y-113322200D01*
X155812969Y-113322200D02*
X155765350Y-113274580D01*
X156836779Y-113369819D02*
X156836779Y-112369819D01*
X157312969Y-113369819D02*
X157312969Y-112369819D01*
X157312969Y-112369819D02*
X157884397Y-113369819D01*
X157884397Y-113369819D02*
X157884397Y-112369819D01*
X158789159Y-112703152D02*
X158789159Y-113369819D01*
X158551064Y-112322200D02*
X158312969Y-113036485D01*
X158312969Y-113036485D02*
X158932016Y-113036485D01*
X159336779Y-112846009D02*
X159670112Y-112846009D01*
X159812969Y-113369819D02*
X159336779Y-113369819D01*
X159336779Y-113369819D02*
X159336779Y-112369819D01*
X159336779Y-112369819D02*
X159812969Y-112369819D01*
X160241541Y-113369819D02*
X160241541Y-112369819D01*
X160241541Y-112369819D02*
X160812969Y-113369819D01*
X160812969Y-113369819D02*
X160812969Y-112369819D01*
X161241541Y-113084104D02*
X161717731Y-113084104D01*
X161146303Y-113369819D02*
X161479636Y-112369819D01*
X161479636Y-112369819D02*
X161812969Y-113369819D01*
X162336779Y-112846009D02*
X162670112Y-112846009D01*
X162812969Y-113369819D02*
X162336779Y-113369819D01*
X162336779Y-113369819D02*
X162336779Y-112369819D01*
X162336779Y-112369819D02*
X162812969Y-112369819D01*
X163241541Y-113369819D02*
X163241541Y-112369819D01*
X163241541Y-112369819D02*
X163812969Y-113369819D01*
X163812969Y-113369819D02*
X163812969Y-112369819D01*
X164622493Y-112846009D02*
X164765350Y-112893628D01*
X164765350Y-112893628D02*
X164812969Y-112941247D01*
X164812969Y-112941247D02*
X164860588Y-113036485D01*
X164860588Y-113036485D02*
X164860588Y-113179342D01*
X164860588Y-113179342D02*
X164812969Y-113274580D01*
X164812969Y-113274580D02*
X164765350Y-113322200D01*
X164765350Y-113322200D02*
X164670112Y-113369819D01*
X164670112Y-113369819D02*
X164289160Y-113369819D01*
X164289160Y-113369819D02*
X164289160Y-112369819D01*
X164289160Y-112369819D02*
X164622493Y-112369819D01*
X164622493Y-112369819D02*
X164717731Y-112417438D01*
X164717731Y-112417438D02*
X164765350Y-112465057D01*
X164765350Y-112465057D02*
X164812969Y-112560295D01*
X164812969Y-112560295D02*
X164812969Y-112655533D01*
X164812969Y-112655533D02*
X164765350Y-112750771D01*
X164765350Y-112750771D02*
X164717731Y-112798390D01*
X164717731Y-112798390D02*
X164622493Y-112846009D01*
X164622493Y-112846009D02*
X164289160Y-112846009D01*
X162336779Y-132846009D02*
X162670112Y-132846009D01*
X162812969Y-133369819D02*
X162336779Y-133369819D01*
X162336779Y-133369819D02*
X162336779Y-132369819D01*
X162336779Y-132369819D02*
X162812969Y-132369819D01*
X163241541Y-133369819D02*
X163241541Y-132369819D01*
X163241541Y-132369819D02*
X163812969Y-133369819D01*
X163812969Y-133369819D02*
X163812969Y-132369819D01*
X164622493Y-132846009D02*
X164765350Y-132893628D01*
X164765350Y-132893628D02*
X164812969Y-132941247D01*
X164812969Y-132941247D02*
X164860588Y-133036485D01*
X164860588Y-133036485D02*
X164860588Y-133179342D01*
X164860588Y-133179342D02*
X164812969Y-133274580D01*
X164812969Y-133274580D02*
X164765350Y-133322200D01*
X164765350Y-133322200D02*
X164670112Y-133369819D01*
X164670112Y-133369819D02*
X164289160Y-133369819D01*
X164289160Y-133369819D02*
X164289160Y-132369819D01*
X164289160Y-132369819D02*
X164622493Y-132369819D01*
X164622493Y-132369819D02*
X164717731Y-132417438D01*
X164717731Y-132417438D02*
X164765350Y-132465057D01*
X164765350Y-132465057D02*
X164812969Y-132560295D01*
X164812969Y-132560295D02*
X164812969Y-132655533D01*
X164812969Y-132655533D02*
X164765350Y-132750771D01*
X164765350Y-132750771D02*
X164717731Y-132798390D01*
X164717731Y-132798390D02*
X164622493Y-132846009D01*
X164622493Y-132846009D02*
X164289160Y-132846009D01*
X159336779Y-132846009D02*
X159670112Y-132846009D01*
X159812969Y-133369819D02*
X159336779Y-133369819D01*
X159336779Y-133369819D02*
X159336779Y-132369819D01*
X159336779Y-132369819D02*
X159812969Y-132369819D01*
X160241541Y-133369819D02*
X160241541Y-132369819D01*
X160241541Y-132369819D02*
X160812969Y-133369819D01*
X160812969Y-133369819D02*
X160812969Y-132369819D01*
X161241541Y-133084104D02*
X161717731Y-133084104D01*
X161146303Y-133369819D02*
X161479636Y-132369819D01*
X161479636Y-132369819D02*
X161812969Y-133369819D01*
X156836779Y-133369819D02*
X156836779Y-132369819D01*
X157312969Y-133369819D02*
X157312969Y-132369819D01*
X157312969Y-132369819D02*
X157884397Y-133369819D01*
X157884397Y-133369819D02*
X157884397Y-132369819D01*
X158789159Y-132703152D02*
X158789159Y-133369819D01*
X158551064Y-132322200D02*
X158312969Y-133036485D01*
X158312969Y-133036485D02*
X158932016Y-133036485D01*
X154336779Y-133369819D02*
X154336779Y-132369819D01*
X154812969Y-133369819D02*
X154812969Y-132369819D01*
X154812969Y-132369819D02*
X155384397Y-133369819D01*
X155384397Y-133369819D02*
X155384397Y-132369819D01*
X155765350Y-132369819D02*
X156384397Y-132369819D01*
X156384397Y-132369819D02*
X156051064Y-132750771D01*
X156051064Y-132750771D02*
X156193921Y-132750771D01*
X156193921Y-132750771D02*
X156289159Y-132798390D01*
X156289159Y-132798390D02*
X156336778Y-132846009D01*
X156336778Y-132846009D02*
X156384397Y-132941247D01*
X156384397Y-132941247D02*
X156384397Y-133179342D01*
X156384397Y-133179342D02*
X156336778Y-133274580D01*
X156336778Y-133274580D02*
X156289159Y-133322200D01*
X156289159Y-133322200D02*
X156193921Y-133369819D01*
X156193921Y-133369819D02*
X155908207Y-133369819D01*
X155908207Y-133369819D02*
X155812969Y-133322200D01*
X155812969Y-133322200D02*
X155765350Y-133274580D01*
X151836779Y-133369819D02*
X151836779Y-132369819D01*
X152312969Y-133369819D02*
X152312969Y-132369819D01*
X152312969Y-132369819D02*
X152884397Y-133369819D01*
X152884397Y-133369819D02*
X152884397Y-132369819D01*
X153312969Y-132465057D02*
X153360588Y-132417438D01*
X153360588Y-132417438D02*
X153455826Y-132369819D01*
X153455826Y-132369819D02*
X153693921Y-132369819D01*
X153693921Y-132369819D02*
X153789159Y-132417438D01*
X153789159Y-132417438D02*
X153836778Y-132465057D01*
X153836778Y-132465057D02*
X153884397Y-132560295D01*
X153884397Y-132560295D02*
X153884397Y-132655533D01*
X153884397Y-132655533D02*
X153836778Y-132798390D01*
X153836778Y-132798390D02*
X153265350Y-133369819D01*
X153265350Y-133369819D02*
X153884397Y-133369819D01*
X149336779Y-133369819D02*
X149336779Y-132369819D01*
X149812969Y-133369819D02*
X149812969Y-132369819D01*
X149812969Y-132369819D02*
X150384397Y-133369819D01*
X150384397Y-133369819D02*
X150384397Y-132369819D01*
X151384397Y-133369819D02*
X150812969Y-133369819D01*
X151098683Y-133369819D02*
X151098683Y-132369819D01*
X151098683Y-132369819D02*
X151003445Y-132512676D01*
X151003445Y-132512676D02*
X150908207Y-132607914D01*
X150908207Y-132607914D02*
X150812969Y-132655533D01*
X218336779Y-130369819D02*
X218336779Y-129369819D01*
X218336779Y-129369819D02*
X218574874Y-129369819D01*
X218574874Y-129369819D02*
X218717731Y-129417438D01*
X218717731Y-129417438D02*
X218812969Y-129512676D01*
X218812969Y-129512676D02*
X218860588Y-129607914D01*
X218860588Y-129607914D02*
X218908207Y-129798390D01*
X218908207Y-129798390D02*
X218908207Y-129941247D01*
X218908207Y-129941247D02*
X218860588Y-130131723D01*
X218860588Y-130131723D02*
X218812969Y-130226961D01*
X218812969Y-130226961D02*
X218717731Y-130322200D01*
X218717731Y-130322200D02*
X218574874Y-130369819D01*
X218574874Y-130369819D02*
X218336779Y-130369819D01*
X219717731Y-130322200D02*
X219622493Y-130369819D01*
X219622493Y-130369819D02*
X219432017Y-130369819D01*
X219432017Y-130369819D02*
X219336779Y-130322200D01*
X219336779Y-130322200D02*
X219289160Y-130226961D01*
X219289160Y-130226961D02*
X219289160Y-129846009D01*
X219289160Y-129846009D02*
X219336779Y-129750771D01*
X219336779Y-129750771D02*
X219432017Y-129703152D01*
X219432017Y-129703152D02*
X219622493Y-129703152D01*
X219622493Y-129703152D02*
X219717731Y-129750771D01*
X219717731Y-129750771D02*
X219765350Y-129846009D01*
X219765350Y-129846009D02*
X219765350Y-129941247D01*
X219765350Y-129941247D02*
X219289160Y-130036485D01*
X220193922Y-130369819D02*
X220193922Y-129369819D01*
X220193922Y-129750771D02*
X220289160Y-129703152D01*
X220289160Y-129703152D02*
X220479636Y-129703152D01*
X220479636Y-129703152D02*
X220574874Y-129750771D01*
X220574874Y-129750771D02*
X220622493Y-129798390D01*
X220622493Y-129798390D02*
X220670112Y-129893628D01*
X220670112Y-129893628D02*
X220670112Y-130179342D01*
X220670112Y-130179342D02*
X220622493Y-130274580D01*
X220622493Y-130274580D02*
X220574874Y-130322200D01*
X220574874Y-130322200D02*
X220479636Y-130369819D01*
X220479636Y-130369819D02*
X220289160Y-130369819D01*
X220289160Y-130369819D02*
X220193922Y-130322200D01*
X221527255Y-129703152D02*
X221527255Y-130369819D01*
X221098684Y-129703152D02*
X221098684Y-130226961D01*
X221098684Y-130226961D02*
X221146303Y-130322200D01*
X221146303Y-130322200D02*
X221241541Y-130369819D01*
X221241541Y-130369819D02*
X221384398Y-130369819D01*
X221384398Y-130369819D02*
X221479636Y-130322200D01*
X221479636Y-130322200D02*
X221527255Y-130274580D01*
X222432017Y-129703152D02*
X222432017Y-130512676D01*
X222432017Y-130512676D02*
X222384398Y-130607914D01*
X222384398Y-130607914D02*
X222336779Y-130655533D01*
X222336779Y-130655533D02*
X222241541Y-130703152D01*
X222241541Y-130703152D02*
X222098684Y-130703152D01*
X222098684Y-130703152D02*
X222003446Y-130655533D01*
X222432017Y-130322200D02*
X222336779Y-130369819D01*
X222336779Y-130369819D02*
X222146303Y-130369819D01*
X222146303Y-130369819D02*
X222051065Y-130322200D01*
X222051065Y-130322200D02*
X222003446Y-130274580D01*
X222003446Y-130274580D02*
X221955827Y-130179342D01*
X221955827Y-130179342D02*
X221955827Y-129893628D01*
X221955827Y-129893628D02*
X222003446Y-129798390D01*
X222003446Y-129798390D02*
X222051065Y-129750771D01*
X222051065Y-129750771D02*
X222146303Y-129703152D01*
X222146303Y-129703152D02*
X222336779Y-129703152D01*
X222336779Y-129703152D02*
X222432017Y-129750771D01*
X224146303Y-130369819D02*
X223670113Y-130369819D01*
X223670113Y-130369819D02*
X223670113Y-129369819D01*
X224479637Y-129846009D02*
X224812970Y-129846009D01*
X224955827Y-130369819D02*
X224479637Y-130369819D01*
X224479637Y-130369819D02*
X224479637Y-129369819D01*
X224479637Y-129369819D02*
X224955827Y-129369819D01*
X225384399Y-130369819D02*
X225384399Y-129369819D01*
X225384399Y-129369819D02*
X225622494Y-129369819D01*
X225622494Y-129369819D02*
X225765351Y-129417438D01*
X225765351Y-129417438D02*
X225860589Y-129512676D01*
X225860589Y-129512676D02*
X225908208Y-129607914D01*
X225908208Y-129607914D02*
X225955827Y-129798390D01*
X225955827Y-129798390D02*
X225955827Y-129941247D01*
X225955827Y-129941247D02*
X225908208Y-130131723D01*
X225908208Y-130131723D02*
X225860589Y-130226961D01*
X225860589Y-130226961D02*
X225765351Y-130322200D01*
X225765351Y-130322200D02*
X225622494Y-130369819D01*
X225622494Y-130369819D02*
X225384399Y-130369819D01*
X226336780Y-130322200D02*
X226432018Y-130369819D01*
X226432018Y-130369819D02*
X226622494Y-130369819D01*
X226622494Y-130369819D02*
X226717732Y-130322200D01*
X226717732Y-130322200D02*
X226765351Y-130226961D01*
X226765351Y-130226961D02*
X226765351Y-130179342D01*
X226765351Y-130179342D02*
X226717732Y-130084104D01*
X226717732Y-130084104D02*
X226622494Y-130036485D01*
X226622494Y-130036485D02*
X226479637Y-130036485D01*
X226479637Y-130036485D02*
X226384399Y-129988866D01*
X226384399Y-129988866D02*
X226336780Y-129893628D01*
X226336780Y-129893628D02*
X226336780Y-129846009D01*
X226336780Y-129846009D02*
X226384399Y-129750771D01*
X226384399Y-129750771D02*
X226479637Y-129703152D01*
X226479637Y-129703152D02*
X226622494Y-129703152D01*
X226622494Y-129703152D02*
X226717732Y-129750771D01*
X206336779Y-130369819D02*
X206336779Y-129369819D01*
X206336779Y-129369819D02*
X206717731Y-129369819D01*
X206717731Y-129369819D02*
X206812969Y-129417438D01*
X206812969Y-129417438D02*
X206860588Y-129465057D01*
X206860588Y-129465057D02*
X206908207Y-129560295D01*
X206908207Y-129560295D02*
X206908207Y-129703152D01*
X206908207Y-129703152D02*
X206860588Y-129798390D01*
X206860588Y-129798390D02*
X206812969Y-129846009D01*
X206812969Y-129846009D02*
X206717731Y-129893628D01*
X206717731Y-129893628D02*
X206336779Y-129893628D01*
X207479636Y-130369819D02*
X207384398Y-130322200D01*
X207384398Y-130322200D02*
X207336779Y-130274580D01*
X207336779Y-130274580D02*
X207289160Y-130179342D01*
X207289160Y-130179342D02*
X207289160Y-129893628D01*
X207289160Y-129893628D02*
X207336779Y-129798390D01*
X207336779Y-129798390D02*
X207384398Y-129750771D01*
X207384398Y-129750771D02*
X207479636Y-129703152D01*
X207479636Y-129703152D02*
X207622493Y-129703152D01*
X207622493Y-129703152D02*
X207717731Y-129750771D01*
X207717731Y-129750771D02*
X207765350Y-129798390D01*
X207765350Y-129798390D02*
X207812969Y-129893628D01*
X207812969Y-129893628D02*
X207812969Y-130179342D01*
X207812969Y-130179342D02*
X207765350Y-130274580D01*
X207765350Y-130274580D02*
X207717731Y-130322200D01*
X207717731Y-130322200D02*
X207622493Y-130369819D01*
X207622493Y-130369819D02*
X207479636Y-130369819D01*
X208146303Y-129703152D02*
X208336779Y-130369819D01*
X208336779Y-130369819D02*
X208527255Y-129893628D01*
X208527255Y-129893628D02*
X208717731Y-130369819D01*
X208717731Y-130369819D02*
X208908207Y-129703152D01*
X209670112Y-130322200D02*
X209574874Y-130369819D01*
X209574874Y-130369819D02*
X209384398Y-130369819D01*
X209384398Y-130369819D02*
X209289160Y-130322200D01*
X209289160Y-130322200D02*
X209241541Y-130226961D01*
X209241541Y-130226961D02*
X209241541Y-129846009D01*
X209241541Y-129846009D02*
X209289160Y-129750771D01*
X209289160Y-129750771D02*
X209384398Y-129703152D01*
X209384398Y-129703152D02*
X209574874Y-129703152D01*
X209574874Y-129703152D02*
X209670112Y-129750771D01*
X209670112Y-129750771D02*
X209717731Y-129846009D01*
X209717731Y-129846009D02*
X209717731Y-129941247D01*
X209717731Y-129941247D02*
X209241541Y-130036485D01*
X210146303Y-130369819D02*
X210146303Y-129703152D01*
X210146303Y-129893628D02*
X210193922Y-129798390D01*
X210193922Y-129798390D02*
X210241541Y-129750771D01*
X210241541Y-129750771D02*
X210336779Y-129703152D01*
X210336779Y-129703152D02*
X210432017Y-129703152D01*
X212003446Y-130369819D02*
X211527256Y-130369819D01*
X211527256Y-130369819D02*
X211527256Y-129369819D01*
X212336780Y-129846009D02*
X212670113Y-129846009D01*
X212812970Y-130369819D02*
X212336780Y-130369819D01*
X212336780Y-130369819D02*
X212336780Y-129369819D01*
X212336780Y-129369819D02*
X212812970Y-129369819D01*
X213241542Y-130369819D02*
X213241542Y-129369819D01*
X213241542Y-129369819D02*
X213479637Y-129369819D01*
X213479637Y-129369819D02*
X213622494Y-129417438D01*
X213622494Y-129417438D02*
X213717732Y-129512676D01*
X213717732Y-129512676D02*
X213765351Y-129607914D01*
X213765351Y-129607914D02*
X213812970Y-129798390D01*
X213812970Y-129798390D02*
X213812970Y-129941247D01*
X213812970Y-129941247D02*
X213765351Y-130131723D01*
X213765351Y-130131723D02*
X213717732Y-130226961D01*
X213717732Y-130226961D02*
X213622494Y-130322200D01*
X213622494Y-130322200D02*
X213479637Y-130369819D01*
X213479637Y-130369819D02*
X213241542Y-130369819D01*
X214193923Y-130322200D02*
X214289161Y-130369819D01*
X214289161Y-130369819D02*
X214479637Y-130369819D01*
X214479637Y-130369819D02*
X214574875Y-130322200D01*
X214574875Y-130322200D02*
X214622494Y-130226961D01*
X214622494Y-130226961D02*
X214622494Y-130179342D01*
X214622494Y-130179342D02*
X214574875Y-130084104D01*
X214574875Y-130084104D02*
X214479637Y-130036485D01*
X214479637Y-130036485D02*
X214336780Y-130036485D01*
X214336780Y-130036485D02*
X214241542Y-129988866D01*
X214241542Y-129988866D02*
X214193923Y-129893628D01*
X214193923Y-129893628D02*
X214193923Y-129846009D01*
X214193923Y-129846009D02*
X214241542Y-129750771D01*
X214241542Y-129750771D02*
X214336780Y-129703152D01*
X214336780Y-129703152D02*
X214479637Y-129703152D01*
X214479637Y-129703152D02*
X214574875Y-129750771D01*
X136860588Y-135917438D02*
X136765350Y-135869819D01*
X136765350Y-135869819D02*
X136622493Y-135869819D01*
X136622493Y-135869819D02*
X136479636Y-135917438D01*
X136479636Y-135917438D02*
X136384398Y-136012676D01*
X136384398Y-136012676D02*
X136336779Y-136107914D01*
X136336779Y-136107914D02*
X136289160Y-136298390D01*
X136289160Y-136298390D02*
X136289160Y-136441247D01*
X136289160Y-136441247D02*
X136336779Y-136631723D01*
X136336779Y-136631723D02*
X136384398Y-136726961D01*
X136384398Y-136726961D02*
X136479636Y-136822200D01*
X136479636Y-136822200D02*
X136622493Y-136869819D01*
X136622493Y-136869819D02*
X136717731Y-136869819D01*
X136717731Y-136869819D02*
X136860588Y-136822200D01*
X136860588Y-136822200D02*
X136908207Y-136774580D01*
X136908207Y-136774580D02*
X136908207Y-136441247D01*
X136908207Y-136441247D02*
X136717731Y-136441247D01*
X137336779Y-136869819D02*
X137336779Y-135869819D01*
X137336779Y-135869819D02*
X137908207Y-136869819D01*
X137908207Y-136869819D02*
X137908207Y-135869819D01*
X138384398Y-136869819D02*
X138384398Y-135869819D01*
X138384398Y-135869819D02*
X138622493Y-135869819D01*
X138622493Y-135869819D02*
X138765350Y-135917438D01*
X138765350Y-135917438D02*
X138860588Y-136012676D01*
X138860588Y-136012676D02*
X138908207Y-136107914D01*
X138908207Y-136107914D02*
X138955826Y-136298390D01*
X138955826Y-136298390D02*
X138955826Y-136441247D01*
X138955826Y-136441247D02*
X138908207Y-136631723D01*
X138908207Y-136631723D02*
X138860588Y-136726961D01*
X138860588Y-136726961D02*
X138765350Y-136822200D01*
X138765350Y-136822200D02*
X138622493Y-136869819D01*
X138622493Y-136869819D02*
X138384398Y-136869819D01*
X136860588Y-122369819D02*
X136289160Y-122369819D01*
X136574874Y-122369819D02*
X136574874Y-121369819D01*
X136574874Y-121369819D02*
X136479636Y-121512676D01*
X136479636Y-121512676D02*
X136384398Y-121607914D01*
X136384398Y-121607914D02*
X136289160Y-121655533D01*
X137241541Y-121465057D02*
X137289160Y-121417438D01*
X137289160Y-121417438D02*
X137384398Y-121369819D01*
X137384398Y-121369819D02*
X137622493Y-121369819D01*
X137622493Y-121369819D02*
X137717731Y-121417438D01*
X137717731Y-121417438D02*
X137765350Y-121465057D01*
X137765350Y-121465057D02*
X137812969Y-121560295D01*
X137812969Y-121560295D02*
X137812969Y-121655533D01*
X137812969Y-121655533D02*
X137765350Y-121798390D01*
X137765350Y-121798390D02*
X137193922Y-122369819D01*
X137193922Y-122369819D02*
X137812969Y-122369819D01*
X138098684Y-121369819D02*
X138432017Y-122369819D01*
X138432017Y-122369819D02*
X138765350Y-121369819D01*
X141082561Y-114860588D02*
X141130180Y-114765350D01*
X141130180Y-114765350D02*
X141130180Y-114622493D01*
X141130180Y-114622493D02*
X141082561Y-114479636D01*
X141082561Y-114479636D02*
X140987323Y-114384398D01*
X140987323Y-114384398D02*
X140892085Y-114336779D01*
X140892085Y-114336779D02*
X140701609Y-114289160D01*
X140701609Y-114289160D02*
X140558752Y-114289160D01*
X140558752Y-114289160D02*
X140368276Y-114336779D01*
X140368276Y-114336779D02*
X140273038Y-114384398D01*
X140273038Y-114384398D02*
X140177800Y-114479636D01*
X140177800Y-114479636D02*
X140130180Y-114622493D01*
X140130180Y-114622493D02*
X140130180Y-114717731D01*
X140130180Y-114717731D02*
X140177800Y-114860588D01*
X140177800Y-114860588D02*
X140225419Y-114908207D01*
X140225419Y-114908207D02*
X140558752Y-114908207D01*
X140558752Y-114908207D02*
X140558752Y-114717731D01*
X140130180Y-115336779D02*
X141130180Y-115336779D01*
X141130180Y-115336779D02*
X140130180Y-115908207D01*
X140130180Y-115908207D02*
X141130180Y-115908207D01*
X140130180Y-116384398D02*
X141130180Y-116384398D01*
X141130180Y-116384398D02*
X141130180Y-116622493D01*
X141130180Y-116622493D02*
X141082561Y-116765350D01*
X141082561Y-116765350D02*
X140987323Y-116860588D01*
X140987323Y-116860588D02*
X140892085Y-116908207D01*
X140892085Y-116908207D02*
X140701609Y-116955826D01*
X140701609Y-116955826D02*
X140558752Y-116955826D01*
X140558752Y-116955826D02*
X140368276Y-116908207D01*
X140368276Y-116908207D02*
X140273038Y-116860588D01*
X140273038Y-116860588D02*
X140177800Y-116765350D01*
X140177800Y-116765350D02*
X140130180Y-116622493D01*
X140130180Y-116622493D02*
X140130180Y-116384398D01*
X141130180Y-112312969D02*
X141130180Y-111836779D01*
X141130180Y-111836779D02*
X140653990Y-111789160D01*
X140653990Y-111789160D02*
X140701609Y-111836779D01*
X140701609Y-111836779D02*
X140749228Y-111932017D01*
X140749228Y-111932017D02*
X140749228Y-112170112D01*
X140749228Y-112170112D02*
X140701609Y-112265350D01*
X140701609Y-112265350D02*
X140653990Y-112312969D01*
X140653990Y-112312969D02*
X140558752Y-112360588D01*
X140558752Y-112360588D02*
X140320657Y-112360588D01*
X140320657Y-112360588D02*
X140225419Y-112312969D01*
X140225419Y-112312969D02*
X140177800Y-112265350D01*
X140177800Y-112265350D02*
X140130180Y-112170112D01*
X140130180Y-112170112D02*
X140130180Y-111932017D01*
X140130180Y-111932017D02*
X140177800Y-111836779D01*
X140177800Y-111836779D02*
X140225419Y-111789160D01*
X141130180Y-112646303D02*
X140130180Y-112979636D01*
X140130180Y-112979636D02*
X141130180Y-113312969D01*
D11*
X232577618Y-134804318D02*
X232577618Y-135832413D01*
X232577618Y-135832413D02*
X232638095Y-135953365D01*
X232638095Y-135953365D02*
X232698571Y-136013842D01*
X232698571Y-136013842D02*
X232819523Y-136074318D01*
X232819523Y-136074318D02*
X233061428Y-136074318D01*
X233061428Y-136074318D02*
X233182380Y-136013842D01*
X233182380Y-136013842D02*
X233242857Y-135953365D01*
X233242857Y-135953365D02*
X233303333Y-135832413D01*
X233303333Y-135832413D02*
X233303333Y-134804318D01*
X234573333Y-136074318D02*
X233847618Y-136074318D01*
X234210475Y-136074318D02*
X234210475Y-134804318D01*
X234210475Y-134804318D02*
X234089523Y-134985746D01*
X234089523Y-134985746D02*
X233968571Y-135106699D01*
X233968571Y-135106699D02*
X233847618Y-135167175D01*
X235178095Y-136074318D02*
X235419999Y-136074318D01*
X235419999Y-136074318D02*
X235540952Y-136013842D01*
X235540952Y-136013842D02*
X235601428Y-135953365D01*
X235601428Y-135953365D02*
X235722380Y-135771937D01*
X235722380Y-135771937D02*
X235782857Y-135530032D01*
X235782857Y-135530032D02*
X235782857Y-135046222D01*
X235782857Y-135046222D02*
X235722380Y-134925270D01*
X235722380Y-134925270D02*
X235661904Y-134864794D01*
X235661904Y-134864794D02*
X235540952Y-134804318D01*
X235540952Y-134804318D02*
X235299047Y-134804318D01*
X235299047Y-134804318D02*
X235178095Y-134864794D01*
X235178095Y-134864794D02*
X235117618Y-134925270D01*
X235117618Y-134925270D02*
X235057142Y-135046222D01*
X235057142Y-135046222D02*
X235057142Y-135348603D01*
X235057142Y-135348603D02*
X235117618Y-135469556D01*
X235117618Y-135469556D02*
X235178095Y-135530032D01*
X235178095Y-135530032D02*
X235299047Y-135590508D01*
X235299047Y-135590508D02*
X235540952Y-135590508D01*
X235540952Y-135590508D02*
X235661904Y-135530032D01*
X235661904Y-135530032D02*
X235722380Y-135469556D01*
X235722380Y-135469556D02*
X235782857Y-135348603D01*
D10*
X207508333Y-135524819D02*
X207175000Y-135048628D01*
X206936905Y-135524819D02*
X206936905Y-134524819D01*
X206936905Y-134524819D02*
X207317857Y-134524819D01*
X207317857Y-134524819D02*
X207413095Y-134572438D01*
X207413095Y-134572438D02*
X207460714Y-134620057D01*
X207460714Y-134620057D02*
X207508333Y-134715295D01*
X207508333Y-134715295D02*
X207508333Y-134858152D01*
X207508333Y-134858152D02*
X207460714Y-134953390D01*
X207460714Y-134953390D02*
X207413095Y-135001009D01*
X207413095Y-135001009D02*
X207317857Y-135048628D01*
X207317857Y-135048628D02*
X206936905Y-135048628D01*
X207889286Y-134620057D02*
X207936905Y-134572438D01*
X207936905Y-134572438D02*
X208032143Y-134524819D01*
X208032143Y-134524819D02*
X208270238Y-134524819D01*
X208270238Y-134524819D02*
X208365476Y-134572438D01*
X208365476Y-134572438D02*
X208413095Y-134620057D01*
X208413095Y-134620057D02*
X208460714Y-134715295D01*
X208460714Y-134715295D02*
X208460714Y-134810533D01*
X208460714Y-134810533D02*
X208413095Y-134953390D01*
X208413095Y-134953390D02*
X207841667Y-135524819D01*
X207841667Y-135524819D02*
X208460714Y-135524819D01*
X207508333Y-133024819D02*
X207175000Y-132548628D01*
X206936905Y-133024819D02*
X206936905Y-132024819D01*
X206936905Y-132024819D02*
X207317857Y-132024819D01*
X207317857Y-132024819D02*
X207413095Y-132072438D01*
X207413095Y-132072438D02*
X207460714Y-132120057D01*
X207460714Y-132120057D02*
X207508333Y-132215295D01*
X207508333Y-132215295D02*
X207508333Y-132358152D01*
X207508333Y-132358152D02*
X207460714Y-132453390D01*
X207460714Y-132453390D02*
X207413095Y-132501009D01*
X207413095Y-132501009D02*
X207317857Y-132548628D01*
X207317857Y-132548628D02*
X206936905Y-132548628D01*
X208460714Y-133024819D02*
X207889286Y-133024819D01*
X208175000Y-133024819D02*
X208175000Y-132024819D01*
X208175000Y-132024819D02*
X208079762Y-132167676D01*
X208079762Y-132167676D02*
X207984524Y-132262914D01*
X207984524Y-132262914D02*
X207889286Y-132310533D01*
X219508333Y-135524819D02*
X219175000Y-135048628D01*
X218936905Y-135524819D02*
X218936905Y-134524819D01*
X218936905Y-134524819D02*
X219317857Y-134524819D01*
X219317857Y-134524819D02*
X219413095Y-134572438D01*
X219413095Y-134572438D02*
X219460714Y-134620057D01*
X219460714Y-134620057D02*
X219508333Y-134715295D01*
X219508333Y-134715295D02*
X219508333Y-134858152D01*
X219508333Y-134858152D02*
X219460714Y-134953390D01*
X219460714Y-134953390D02*
X219413095Y-135001009D01*
X219413095Y-135001009D02*
X219317857Y-135048628D01*
X219317857Y-135048628D02*
X218936905Y-135048628D01*
X219841667Y-134524819D02*
X220460714Y-134524819D01*
X220460714Y-134524819D02*
X220127381Y-134905771D01*
X220127381Y-134905771D02*
X220270238Y-134905771D01*
X220270238Y-134905771D02*
X220365476Y-134953390D01*
X220365476Y-134953390D02*
X220413095Y-135001009D01*
X220413095Y-135001009D02*
X220460714Y-135096247D01*
X220460714Y-135096247D02*
X220460714Y-135334342D01*
X220460714Y-135334342D02*
X220413095Y-135429580D01*
X220413095Y-135429580D02*
X220365476Y-135477200D01*
X220365476Y-135477200D02*
X220270238Y-135524819D01*
X220270238Y-135524819D02*
X219984524Y-135524819D01*
X219984524Y-135524819D02*
X219889286Y-135477200D01*
X219889286Y-135477200D02*
X219841667Y-135429580D01*
D11*
X187577618Y-134804318D02*
X187577618Y-135832413D01*
X187577618Y-135832413D02*
X187638095Y-135953365D01*
X187638095Y-135953365D02*
X187698571Y-136013842D01*
X187698571Y-136013842D02*
X187819523Y-136074318D01*
X187819523Y-136074318D02*
X188061428Y-136074318D01*
X188061428Y-136074318D02*
X188182380Y-136013842D01*
X188182380Y-136013842D02*
X188242857Y-135953365D01*
X188242857Y-135953365D02*
X188303333Y-135832413D01*
X188303333Y-135832413D02*
X188303333Y-134804318D01*
X189573333Y-136074318D02*
X188847618Y-136074318D01*
X189210475Y-136074318D02*
X189210475Y-134804318D01*
X189210475Y-134804318D02*
X189089523Y-134985746D01*
X189089523Y-134985746D02*
X188968571Y-135106699D01*
X188968571Y-135106699D02*
X188847618Y-135167175D01*
X190359523Y-134804318D02*
X190480476Y-134804318D01*
X190480476Y-134804318D02*
X190601428Y-134864794D01*
X190601428Y-134864794D02*
X190661904Y-134925270D01*
X190661904Y-134925270D02*
X190722380Y-135046222D01*
X190722380Y-135046222D02*
X190782857Y-135288127D01*
X190782857Y-135288127D02*
X190782857Y-135590508D01*
X190782857Y-135590508D02*
X190722380Y-135832413D01*
X190722380Y-135832413D02*
X190661904Y-135953365D01*
X190661904Y-135953365D02*
X190601428Y-136013842D01*
X190601428Y-136013842D02*
X190480476Y-136074318D01*
X190480476Y-136074318D02*
X190359523Y-136074318D01*
X190359523Y-136074318D02*
X190238571Y-136013842D01*
X190238571Y-136013842D02*
X190178095Y-135953365D01*
X190178095Y-135953365D02*
X190117618Y-135832413D01*
X190117618Y-135832413D02*
X190057142Y-135590508D01*
X190057142Y-135590508D02*
X190057142Y-135288127D01*
X190057142Y-135288127D02*
X190117618Y-135046222D01*
X190117618Y-135046222D02*
X190178095Y-134925270D01*
X190178095Y-134925270D02*
X190238571Y-134864794D01*
X190238571Y-134864794D02*
X190359523Y-134804318D01*
X258847618Y-109804318D02*
X258847618Y-110832413D01*
X258847618Y-110832413D02*
X258908095Y-110953365D01*
X258908095Y-110953365D02*
X258968571Y-111013842D01*
X258968571Y-111013842D02*
X259089523Y-111074318D01*
X259089523Y-111074318D02*
X259331428Y-111074318D01*
X259331428Y-111074318D02*
X259452380Y-111013842D01*
X259452380Y-111013842D02*
X259512857Y-110953365D01*
X259512857Y-110953365D02*
X259573333Y-110832413D01*
X259573333Y-110832413D02*
X259573333Y-109804318D01*
X260117618Y-109925270D02*
X260178094Y-109864794D01*
X260178094Y-109864794D02*
X260299047Y-109804318D01*
X260299047Y-109804318D02*
X260601428Y-109804318D01*
X260601428Y-109804318D02*
X260722380Y-109864794D01*
X260722380Y-109864794D02*
X260782856Y-109925270D01*
X260782856Y-109925270D02*
X260843333Y-110046222D01*
X260843333Y-110046222D02*
X260843333Y-110167175D01*
X260843333Y-110167175D02*
X260782856Y-110348603D01*
X260782856Y-110348603D02*
X260057142Y-111074318D01*
X260057142Y-111074318D02*
X260843333Y-111074318D01*
X262052857Y-111074318D02*
X261327142Y-111074318D01*
X261689999Y-111074318D02*
X261689999Y-109804318D01*
X261689999Y-109804318D02*
X261569047Y-109985746D01*
X261569047Y-109985746D02*
X261448095Y-110106699D01*
X261448095Y-110106699D02*
X261327142Y-110167175D01*
D10*
X219508333Y-133024819D02*
X219175000Y-132548628D01*
X218936905Y-133024819D02*
X218936905Y-132024819D01*
X218936905Y-132024819D02*
X219317857Y-132024819D01*
X219317857Y-132024819D02*
X219413095Y-132072438D01*
X219413095Y-132072438D02*
X219460714Y-132120057D01*
X219460714Y-132120057D02*
X219508333Y-132215295D01*
X219508333Y-132215295D02*
X219508333Y-132358152D01*
X219508333Y-132358152D02*
X219460714Y-132453390D01*
X219460714Y-132453390D02*
X219413095Y-132501009D01*
X219413095Y-132501009D02*
X219317857Y-132548628D01*
X219317857Y-132548628D02*
X218936905Y-132548628D01*
X220365476Y-132358152D02*
X220365476Y-133024819D01*
X220127381Y-131977200D02*
X219889286Y-132691485D01*
X219889286Y-132691485D02*
X220508333Y-132691485D01*
D11*
X136304318Y-127967619D02*
X137332413Y-127967619D01*
X137332413Y-127967619D02*
X137453365Y-127907142D01*
X137453365Y-127907142D02*
X137513842Y-127846666D01*
X137513842Y-127846666D02*
X137574318Y-127725714D01*
X137574318Y-127725714D02*
X137574318Y-127483809D01*
X137574318Y-127483809D02*
X137513842Y-127362857D01*
X137513842Y-127362857D02*
X137453365Y-127302380D01*
X137453365Y-127302380D02*
X137332413Y-127241904D01*
X137332413Y-127241904D02*
X136304318Y-127241904D01*
X136304318Y-126758095D02*
X136304318Y-125971904D01*
X136304318Y-125971904D02*
X136788127Y-126395238D01*
X136788127Y-126395238D02*
X136788127Y-126213809D01*
X136788127Y-126213809D02*
X136848603Y-126092857D01*
X136848603Y-126092857D02*
X136909080Y-126032381D01*
X136909080Y-126032381D02*
X137030032Y-125971904D01*
X137030032Y-125971904D02*
X137332413Y-125971904D01*
X137332413Y-125971904D02*
X137453365Y-126032381D01*
X137453365Y-126032381D02*
X137513842Y-126092857D01*
X137513842Y-126092857D02*
X137574318Y-126213809D01*
X137574318Y-126213809D02*
X137574318Y-126576666D01*
X137574318Y-126576666D02*
X137513842Y-126697619D01*
X137513842Y-126697619D02*
X137453365Y-126758095D01*
X223177618Y-135804318D02*
X223177618Y-136832413D01*
X223177618Y-136832413D02*
X223238095Y-136953365D01*
X223238095Y-136953365D02*
X223298571Y-137013842D01*
X223298571Y-137013842D02*
X223419523Y-137074318D01*
X223419523Y-137074318D02*
X223661428Y-137074318D01*
X223661428Y-137074318D02*
X223782380Y-137013842D01*
X223782380Y-137013842D02*
X223842857Y-136953365D01*
X223842857Y-136953365D02*
X223903333Y-136832413D01*
X223903333Y-136832413D02*
X223903333Y-135804318D01*
X224447618Y-135925270D02*
X224508094Y-135864794D01*
X224508094Y-135864794D02*
X224629047Y-135804318D01*
X224629047Y-135804318D02*
X224931428Y-135804318D01*
X224931428Y-135804318D02*
X225052380Y-135864794D01*
X225052380Y-135864794D02*
X225112856Y-135925270D01*
X225112856Y-135925270D02*
X225173333Y-136046222D01*
X225173333Y-136046222D02*
X225173333Y-136167175D01*
X225173333Y-136167175D02*
X225112856Y-136348603D01*
X225112856Y-136348603D02*
X224387142Y-137074318D01*
X224387142Y-137074318D02*
X225173333Y-137074318D01*
X225657142Y-135925270D02*
X225717618Y-135864794D01*
X225717618Y-135864794D02*
X225838571Y-135804318D01*
X225838571Y-135804318D02*
X226140952Y-135804318D01*
X226140952Y-135804318D02*
X226261904Y-135864794D01*
X226261904Y-135864794D02*
X226322380Y-135925270D01*
X226322380Y-135925270D02*
X226382857Y-136046222D01*
X226382857Y-136046222D02*
X226382857Y-136167175D01*
X226382857Y-136167175D02*
X226322380Y-136348603D01*
X226322380Y-136348603D02*
X225596666Y-137074318D01*
X225596666Y-137074318D02*
X226382857Y-137074318D01*
X187537118Y-109804818D02*
X187537118Y-110832913D01*
X187537118Y-110832913D02*
X187597595Y-110953865D01*
X187597595Y-110953865D02*
X187658071Y-111014342D01*
X187658071Y-111014342D02*
X187779023Y-111074818D01*
X187779023Y-111074818D02*
X188020928Y-111074818D01*
X188020928Y-111074818D02*
X188141880Y-111014342D01*
X188141880Y-111014342D02*
X188202357Y-110953865D01*
X188202357Y-110953865D02*
X188262833Y-110832913D01*
X188262833Y-110832913D02*
X188262833Y-109804818D01*
X189532833Y-111074818D02*
X188807118Y-111074818D01*
X189169975Y-111074818D02*
X189169975Y-109804818D01*
X189169975Y-109804818D02*
X189049023Y-109986246D01*
X189049023Y-109986246D02*
X188928071Y-110107199D01*
X188928071Y-110107199D02*
X188807118Y-110167675D01*
X190742357Y-111074818D02*
X190016642Y-111074818D01*
X190379499Y-111074818D02*
X190379499Y-109804818D01*
X190379499Y-109804818D02*
X190258547Y-109986246D01*
X190258547Y-109986246D02*
X190137595Y-110107199D01*
X190137595Y-110107199D02*
X190016642Y-110167675D01*
X149641880Y-109804818D02*
X149641880Y-110832913D01*
X149641880Y-110832913D02*
X149702357Y-110953865D01*
X149702357Y-110953865D02*
X149762833Y-111014342D01*
X149762833Y-111014342D02*
X149883785Y-111074818D01*
X149883785Y-111074818D02*
X150125690Y-111074818D01*
X150125690Y-111074818D02*
X150246642Y-111014342D01*
X150246642Y-111014342D02*
X150307119Y-110953865D01*
X150307119Y-110953865D02*
X150367595Y-110832913D01*
X150367595Y-110832913D02*
X150367595Y-109804818D01*
X151153785Y-110349103D02*
X151032833Y-110288627D01*
X151032833Y-110288627D02*
X150972356Y-110228151D01*
X150972356Y-110228151D02*
X150911880Y-110107199D01*
X150911880Y-110107199D02*
X150911880Y-110046722D01*
X150911880Y-110046722D02*
X150972356Y-109925770D01*
X150972356Y-109925770D02*
X151032833Y-109865294D01*
X151032833Y-109865294D02*
X151153785Y-109804818D01*
X151153785Y-109804818D02*
X151395690Y-109804818D01*
X151395690Y-109804818D02*
X151516642Y-109865294D01*
X151516642Y-109865294D02*
X151577118Y-109925770D01*
X151577118Y-109925770D02*
X151637595Y-110046722D01*
X151637595Y-110046722D02*
X151637595Y-110107199D01*
X151637595Y-110107199D02*
X151577118Y-110228151D01*
X151577118Y-110228151D02*
X151516642Y-110288627D01*
X151516642Y-110288627D02*
X151395690Y-110349103D01*
X151395690Y-110349103D02*
X151153785Y-110349103D01*
X151153785Y-110349103D02*
X151032833Y-110409580D01*
X151032833Y-110409580D02*
X150972356Y-110470056D01*
X150972356Y-110470056D02*
X150911880Y-110591008D01*
X150911880Y-110591008D02*
X150911880Y-110832913D01*
X150911880Y-110832913D02*
X150972356Y-110953865D01*
X150972356Y-110953865D02*
X151032833Y-111014342D01*
X151032833Y-111014342D02*
X151153785Y-111074818D01*
X151153785Y-111074818D02*
X151395690Y-111074818D01*
X151395690Y-111074818D02*
X151516642Y-111014342D01*
X151516642Y-111014342D02*
X151577118Y-110953865D01*
X151577118Y-110953865D02*
X151637595Y-110832913D01*
X151637595Y-110832913D02*
X151637595Y-110591008D01*
X151637595Y-110591008D02*
X151577118Y-110470056D01*
X151577118Y-110470056D02*
X151516642Y-110409580D01*
X151516642Y-110409580D02*
X151395690Y-110349103D01*
X240427618Y-109804318D02*
X240427618Y-110832413D01*
X240427618Y-110832413D02*
X240488095Y-110953365D01*
X240488095Y-110953365D02*
X240548571Y-111013842D01*
X240548571Y-111013842D02*
X240669523Y-111074318D01*
X240669523Y-111074318D02*
X240911428Y-111074318D01*
X240911428Y-111074318D02*
X241032380Y-111013842D01*
X241032380Y-111013842D02*
X241092857Y-110953365D01*
X241092857Y-110953365D02*
X241153333Y-110832413D01*
X241153333Y-110832413D02*
X241153333Y-109804318D01*
X242423333Y-111074318D02*
X241697618Y-111074318D01*
X242060475Y-111074318D02*
X242060475Y-109804318D01*
X242060475Y-109804318D02*
X241939523Y-109985746D01*
X241939523Y-109985746D02*
X241818571Y-110106699D01*
X241818571Y-110106699D02*
X241697618Y-110167175D01*
X243511904Y-109804318D02*
X243269999Y-109804318D01*
X243269999Y-109804318D02*
X243149047Y-109864794D01*
X243149047Y-109864794D02*
X243088571Y-109925270D01*
X243088571Y-109925270D02*
X242967618Y-110106699D01*
X242967618Y-110106699D02*
X242907142Y-110348603D01*
X242907142Y-110348603D02*
X242907142Y-110832413D01*
X242907142Y-110832413D02*
X242967618Y-110953365D01*
X242967618Y-110953365D02*
X243028095Y-111013842D01*
X243028095Y-111013842D02*
X243149047Y-111074318D01*
X243149047Y-111074318D02*
X243390952Y-111074318D01*
X243390952Y-111074318D02*
X243511904Y-111013842D01*
X243511904Y-111013842D02*
X243572380Y-110953365D01*
X243572380Y-110953365D02*
X243632857Y-110832413D01*
X243632857Y-110832413D02*
X243632857Y-110530032D01*
X243632857Y-110530032D02*
X243572380Y-110409080D01*
X243572380Y-110409080D02*
X243511904Y-110348603D01*
X243511904Y-110348603D02*
X243390952Y-110288127D01*
X243390952Y-110288127D02*
X243149047Y-110288127D01*
X243149047Y-110288127D02*
X243028095Y-110348603D01*
X243028095Y-110348603D02*
X242967618Y-110409080D01*
X242967618Y-110409080D02*
X242907142Y-110530032D01*
X241427618Y-123804318D02*
X241427618Y-124832413D01*
X241427618Y-124832413D02*
X241488095Y-124953365D01*
X241488095Y-124953365D02*
X241548571Y-125013842D01*
X241548571Y-125013842D02*
X241669523Y-125074318D01*
X241669523Y-125074318D02*
X241911428Y-125074318D01*
X241911428Y-125074318D02*
X242032380Y-125013842D01*
X242032380Y-125013842D02*
X242092857Y-124953365D01*
X242092857Y-124953365D02*
X242153333Y-124832413D01*
X242153333Y-124832413D02*
X242153333Y-123804318D01*
X243423333Y-125074318D02*
X242697618Y-125074318D01*
X243060475Y-125074318D02*
X243060475Y-123804318D01*
X243060475Y-123804318D02*
X242939523Y-123985746D01*
X242939523Y-123985746D02*
X242818571Y-124106699D01*
X242818571Y-124106699D02*
X242697618Y-124167175D01*
X244149047Y-124348603D02*
X244028095Y-124288127D01*
X244028095Y-124288127D02*
X243967618Y-124227651D01*
X243967618Y-124227651D02*
X243907142Y-124106699D01*
X243907142Y-124106699D02*
X243907142Y-124046222D01*
X243907142Y-124046222D02*
X243967618Y-123925270D01*
X243967618Y-123925270D02*
X244028095Y-123864794D01*
X244028095Y-123864794D02*
X244149047Y-123804318D01*
X244149047Y-123804318D02*
X244390952Y-123804318D01*
X244390952Y-123804318D02*
X244511904Y-123864794D01*
X244511904Y-123864794D02*
X244572380Y-123925270D01*
X244572380Y-123925270D02*
X244632857Y-124046222D01*
X244632857Y-124046222D02*
X244632857Y-124106699D01*
X244632857Y-124106699D02*
X244572380Y-124227651D01*
X244572380Y-124227651D02*
X244511904Y-124288127D01*
X244511904Y-124288127D02*
X244390952Y-124348603D01*
X244390952Y-124348603D02*
X244149047Y-124348603D01*
X244149047Y-124348603D02*
X244028095Y-124409080D01*
X244028095Y-124409080D02*
X243967618Y-124469556D01*
X243967618Y-124469556D02*
X243907142Y-124590508D01*
X243907142Y-124590508D02*
X243907142Y-124832413D01*
X243907142Y-124832413D02*
X243967618Y-124953365D01*
X243967618Y-124953365D02*
X244028095Y-125013842D01*
X244028095Y-125013842D02*
X244149047Y-125074318D01*
X244149047Y-125074318D02*
X244390952Y-125074318D01*
X244390952Y-125074318D02*
X244511904Y-125013842D01*
X244511904Y-125013842D02*
X244572380Y-124953365D01*
X244572380Y-124953365D02*
X244632857Y-124832413D01*
X244632857Y-124832413D02*
X244632857Y-124590508D01*
X244632857Y-124590508D02*
X244572380Y-124469556D01*
X244572380Y-124469556D02*
X244511904Y-124409080D01*
X244511904Y-124409080D02*
X244390952Y-124348603D01*
D10*
X244261905Y-114024819D02*
X244261905Y-114834342D01*
X244261905Y-114834342D02*
X244309524Y-114929580D01*
X244309524Y-114929580D02*
X244357143Y-114977200D01*
X244357143Y-114977200D02*
X244452381Y-115024819D01*
X244452381Y-115024819D02*
X244642857Y-115024819D01*
X244642857Y-115024819D02*
X244738095Y-114977200D01*
X244738095Y-114977200D02*
X244785714Y-114929580D01*
X244785714Y-114929580D02*
X244833333Y-114834342D01*
X244833333Y-114834342D02*
X244833333Y-114024819D01*
X245833333Y-115024819D02*
X245261905Y-115024819D01*
X245547619Y-115024819D02*
X245547619Y-114024819D01*
X245547619Y-114024819D02*
X245452381Y-114167676D01*
X245452381Y-114167676D02*
X245357143Y-114262914D01*
X245357143Y-114262914D02*
X245261905Y-114310533D01*
X246166667Y-114024819D02*
X246833333Y-114024819D01*
X246833333Y-114024819D02*
X246404762Y-115024819D01*
D11*
X227927618Y-109804318D02*
X227927618Y-110832413D01*
X227927618Y-110832413D02*
X227988095Y-110953365D01*
X227988095Y-110953365D02*
X228048571Y-111013842D01*
X228048571Y-111013842D02*
X228169523Y-111074318D01*
X228169523Y-111074318D02*
X228411428Y-111074318D01*
X228411428Y-111074318D02*
X228532380Y-111013842D01*
X228532380Y-111013842D02*
X228592857Y-110953365D01*
X228592857Y-110953365D02*
X228653333Y-110832413D01*
X228653333Y-110832413D02*
X228653333Y-109804318D01*
X229923333Y-111074318D02*
X229197618Y-111074318D01*
X229560475Y-111074318D02*
X229560475Y-109804318D01*
X229560475Y-109804318D02*
X229439523Y-109985746D01*
X229439523Y-109985746D02*
X229318571Y-110106699D01*
X229318571Y-110106699D02*
X229197618Y-110167175D01*
X230346666Y-109804318D02*
X231132857Y-109804318D01*
X231132857Y-109804318D02*
X230709523Y-110288127D01*
X230709523Y-110288127D02*
X230890952Y-110288127D01*
X230890952Y-110288127D02*
X231011904Y-110348603D01*
X231011904Y-110348603D02*
X231072380Y-110409080D01*
X231072380Y-110409080D02*
X231132857Y-110530032D01*
X231132857Y-110530032D02*
X231132857Y-110832413D01*
X231132857Y-110832413D02*
X231072380Y-110953365D01*
X231072380Y-110953365D02*
X231011904Y-111013842D01*
X231011904Y-111013842D02*
X230890952Y-111074318D01*
X230890952Y-111074318D02*
X230528095Y-111074318D01*
X230528095Y-111074318D02*
X230407142Y-111013842D01*
X230407142Y-111013842D02*
X230346666Y-110953365D01*
X258847618Y-134804318D02*
X258847618Y-135832413D01*
X258847618Y-135832413D02*
X258908095Y-135953365D01*
X258908095Y-135953365D02*
X258968571Y-136013842D01*
X258968571Y-136013842D02*
X259089523Y-136074318D01*
X259089523Y-136074318D02*
X259331428Y-136074318D01*
X259331428Y-136074318D02*
X259452380Y-136013842D01*
X259452380Y-136013842D02*
X259512857Y-135953365D01*
X259512857Y-135953365D02*
X259573333Y-135832413D01*
X259573333Y-135832413D02*
X259573333Y-134804318D01*
X260117618Y-134925270D02*
X260178094Y-134864794D01*
X260178094Y-134864794D02*
X260299047Y-134804318D01*
X260299047Y-134804318D02*
X260601428Y-134804318D01*
X260601428Y-134804318D02*
X260722380Y-134864794D01*
X260722380Y-134864794D02*
X260782856Y-134925270D01*
X260782856Y-134925270D02*
X260843333Y-135046222D01*
X260843333Y-135046222D02*
X260843333Y-135167175D01*
X260843333Y-135167175D02*
X260782856Y-135348603D01*
X260782856Y-135348603D02*
X260057142Y-136074318D01*
X260057142Y-136074318D02*
X260843333Y-136074318D01*
X261629523Y-134804318D02*
X261750476Y-134804318D01*
X261750476Y-134804318D02*
X261871428Y-134864794D01*
X261871428Y-134864794D02*
X261931904Y-134925270D01*
X261931904Y-134925270D02*
X261992380Y-135046222D01*
X261992380Y-135046222D02*
X262052857Y-135288127D01*
X262052857Y-135288127D02*
X262052857Y-135590508D01*
X262052857Y-135590508D02*
X261992380Y-135832413D01*
X261992380Y-135832413D02*
X261931904Y-135953365D01*
X261931904Y-135953365D02*
X261871428Y-136013842D01*
X261871428Y-136013842D02*
X261750476Y-136074318D01*
X261750476Y-136074318D02*
X261629523Y-136074318D01*
X261629523Y-136074318D02*
X261508571Y-136013842D01*
X261508571Y-136013842D02*
X261448095Y-135953365D01*
X261448095Y-135953365D02*
X261387618Y-135832413D01*
X261387618Y-135832413D02*
X261327142Y-135590508D01*
X261327142Y-135590508D02*
X261327142Y-135288127D01*
X261327142Y-135288127D02*
X261387618Y-135046222D01*
X261387618Y-135046222D02*
X261448095Y-134925270D01*
X261448095Y-134925270D02*
X261508571Y-134864794D01*
X261508571Y-134864794D02*
X261629523Y-134804318D01*
X136804318Y-113697619D02*
X137832413Y-113697619D01*
X137832413Y-113697619D02*
X137953365Y-113637142D01*
X137953365Y-113637142D02*
X138013842Y-113576666D01*
X138013842Y-113576666D02*
X138074318Y-113455714D01*
X138074318Y-113455714D02*
X138074318Y-113213809D01*
X138074318Y-113213809D02*
X138013842Y-113092857D01*
X138013842Y-113092857D02*
X137953365Y-113032380D01*
X137953365Y-113032380D02*
X137832413Y-112971904D01*
X137832413Y-112971904D02*
X136804318Y-112971904D01*
X137227651Y-111822857D02*
X138074318Y-111822857D01*
X136743842Y-112125238D02*
X137650984Y-112427619D01*
X137650984Y-112427619D02*
X137650984Y-111641428D01*
X211782380Y-133304318D02*
X211782380Y-134332413D01*
X211782380Y-134332413D02*
X211842857Y-134453365D01*
X211842857Y-134453365D02*
X211903333Y-134513842D01*
X211903333Y-134513842D02*
X212024285Y-134574318D01*
X212024285Y-134574318D02*
X212266190Y-134574318D01*
X212266190Y-134574318D02*
X212387142Y-134513842D01*
X212387142Y-134513842D02*
X212447619Y-134453365D01*
X212447619Y-134453365D02*
X212508095Y-134332413D01*
X212508095Y-134332413D02*
X212508095Y-133304318D01*
X213717618Y-133304318D02*
X213112856Y-133304318D01*
X213112856Y-133304318D02*
X213052380Y-133909080D01*
X213052380Y-133909080D02*
X213112856Y-133848603D01*
X213112856Y-133848603D02*
X213233809Y-133788127D01*
X213233809Y-133788127D02*
X213536190Y-133788127D01*
X213536190Y-133788127D02*
X213657142Y-133848603D01*
X213657142Y-133848603D02*
X213717618Y-133909080D01*
X213717618Y-133909080D02*
X213778095Y-134030032D01*
X213778095Y-134030032D02*
X213778095Y-134332413D01*
X213778095Y-134332413D02*
X213717618Y-134453365D01*
X213717618Y-134453365D02*
X213657142Y-134513842D01*
X213657142Y-134513842D02*
X213536190Y-134574318D01*
X213536190Y-134574318D02*
X213233809Y-134574318D01*
X213233809Y-134574318D02*
X213112856Y-134513842D01*
X213112856Y-134513842D02*
X213052380Y-134453365D01*
X144804318Y-114467619D02*
X145832413Y-114467619D01*
X145832413Y-114467619D02*
X145953365Y-114407142D01*
X145953365Y-114407142D02*
X146013842Y-114346666D01*
X146013842Y-114346666D02*
X146074318Y-114225714D01*
X146074318Y-114225714D02*
X146074318Y-113983809D01*
X146074318Y-113983809D02*
X146013842Y-113862857D01*
X146013842Y-113862857D02*
X145953365Y-113802380D01*
X145953365Y-113802380D02*
X145832413Y-113741904D01*
X145832413Y-113741904D02*
X144804318Y-113741904D01*
X144925270Y-113197619D02*
X144864794Y-113137143D01*
X144864794Y-113137143D02*
X144804318Y-113016190D01*
X144804318Y-113016190D02*
X144804318Y-112713809D01*
X144804318Y-112713809D02*
X144864794Y-112592857D01*
X144864794Y-112592857D02*
X144925270Y-112532381D01*
X144925270Y-112532381D02*
X145046222Y-112471904D01*
X145046222Y-112471904D02*
X145167175Y-112471904D01*
X145167175Y-112471904D02*
X145348603Y-112532381D01*
X145348603Y-112532381D02*
X146074318Y-113258095D01*
X146074318Y-113258095D02*
X146074318Y-112471904D01*
D10*
X230761905Y-114024819D02*
X230761905Y-114834342D01*
X230761905Y-114834342D02*
X230809524Y-114929580D01*
X230809524Y-114929580D02*
X230857143Y-114977200D01*
X230857143Y-114977200D02*
X230952381Y-115024819D01*
X230952381Y-115024819D02*
X231142857Y-115024819D01*
X231142857Y-115024819D02*
X231238095Y-114977200D01*
X231238095Y-114977200D02*
X231285714Y-114929580D01*
X231285714Y-114929580D02*
X231333333Y-114834342D01*
X231333333Y-114834342D02*
X231333333Y-114024819D01*
X232333333Y-115024819D02*
X231761905Y-115024819D01*
X232047619Y-115024819D02*
X232047619Y-114024819D01*
X232047619Y-114024819D02*
X231952381Y-114167676D01*
X231952381Y-114167676D02*
X231857143Y-114262914D01*
X231857143Y-114262914D02*
X231761905Y-114310533D01*
X233190476Y-114358152D02*
X233190476Y-115024819D01*
X232952381Y-113977200D02*
X232714286Y-114691485D01*
X232714286Y-114691485D02*
X233333333Y-114691485D01*
D11*
X219217380Y-112804318D02*
X219217380Y-113832413D01*
X219217380Y-113832413D02*
X219277857Y-113953365D01*
X219277857Y-113953365D02*
X219338333Y-114013842D01*
X219338333Y-114013842D02*
X219459285Y-114074318D01*
X219459285Y-114074318D02*
X219701190Y-114074318D01*
X219701190Y-114074318D02*
X219822142Y-114013842D01*
X219822142Y-114013842D02*
X219882619Y-113953365D01*
X219882619Y-113953365D02*
X219943095Y-113832413D01*
X219943095Y-113832413D02*
X219943095Y-112804318D01*
X220608333Y-114074318D02*
X220850237Y-114074318D01*
X220850237Y-114074318D02*
X220971190Y-114013842D01*
X220971190Y-114013842D02*
X221031666Y-113953365D01*
X221031666Y-113953365D02*
X221152618Y-113771937D01*
X221152618Y-113771937D02*
X221213095Y-113530032D01*
X221213095Y-113530032D02*
X221213095Y-113046222D01*
X221213095Y-113046222D02*
X221152618Y-112925270D01*
X221152618Y-112925270D02*
X221092142Y-112864794D01*
X221092142Y-112864794D02*
X220971190Y-112804318D01*
X220971190Y-112804318D02*
X220729285Y-112804318D01*
X220729285Y-112804318D02*
X220608333Y-112864794D01*
X220608333Y-112864794D02*
X220547856Y-112925270D01*
X220547856Y-112925270D02*
X220487380Y-113046222D01*
X220487380Y-113046222D02*
X220487380Y-113348603D01*
X220487380Y-113348603D02*
X220547856Y-113469556D01*
X220547856Y-113469556D02*
X220608333Y-113530032D01*
X220608333Y-113530032D02*
X220729285Y-113590508D01*
X220729285Y-113590508D02*
X220971190Y-113590508D01*
X220971190Y-113590508D02*
X221092142Y-113530032D01*
X221092142Y-113530032D02*
X221152618Y-113469556D01*
X221152618Y-113469556D02*
X221213095Y-113348603D01*
X144804318Y-128967619D02*
X145832413Y-128967619D01*
X145832413Y-128967619D02*
X145953365Y-128907142D01*
X145953365Y-128907142D02*
X146013842Y-128846666D01*
X146013842Y-128846666D02*
X146074318Y-128725714D01*
X146074318Y-128725714D02*
X146074318Y-128483809D01*
X146074318Y-128483809D02*
X146013842Y-128362857D01*
X146013842Y-128362857D02*
X145953365Y-128302380D01*
X145953365Y-128302380D02*
X145832413Y-128241904D01*
X145832413Y-128241904D02*
X144804318Y-128241904D01*
X146074318Y-126971904D02*
X146074318Y-127697619D01*
X146074318Y-127334762D02*
X144804318Y-127334762D01*
X144804318Y-127334762D02*
X144985746Y-127455714D01*
X144985746Y-127455714D02*
X145106699Y-127576666D01*
X145106699Y-127576666D02*
X145167175Y-127697619D01*
X211782380Y-135804318D02*
X211782380Y-136832413D01*
X211782380Y-136832413D02*
X211842857Y-136953365D01*
X211842857Y-136953365D02*
X211903333Y-137013842D01*
X211903333Y-137013842D02*
X212024285Y-137074318D01*
X212024285Y-137074318D02*
X212266190Y-137074318D01*
X212266190Y-137074318D02*
X212387142Y-137013842D01*
X212387142Y-137013842D02*
X212447619Y-136953365D01*
X212447619Y-136953365D02*
X212508095Y-136832413D01*
X212508095Y-136832413D02*
X212508095Y-135804318D01*
X213657142Y-135804318D02*
X213415237Y-135804318D01*
X213415237Y-135804318D02*
X213294285Y-135864794D01*
X213294285Y-135864794D02*
X213233809Y-135925270D01*
X213233809Y-135925270D02*
X213112856Y-136106699D01*
X213112856Y-136106699D02*
X213052380Y-136348603D01*
X213052380Y-136348603D02*
X213052380Y-136832413D01*
X213052380Y-136832413D02*
X213112856Y-136953365D01*
X213112856Y-136953365D02*
X213173333Y-137013842D01*
X213173333Y-137013842D02*
X213294285Y-137074318D01*
X213294285Y-137074318D02*
X213536190Y-137074318D01*
X213536190Y-137074318D02*
X213657142Y-137013842D01*
X213657142Y-137013842D02*
X213717618Y-136953365D01*
X213717618Y-136953365D02*
X213778095Y-136832413D01*
X213778095Y-136832413D02*
X213778095Y-136530032D01*
X213778095Y-136530032D02*
X213717618Y-136409080D01*
X213717618Y-136409080D02*
X213657142Y-136348603D01*
X213657142Y-136348603D02*
X213536190Y-136288127D01*
X213536190Y-136288127D02*
X213294285Y-136288127D01*
X213294285Y-136288127D02*
X213173333Y-136348603D01*
X213173333Y-136348603D02*
X213112856Y-136409080D01*
X213112856Y-136409080D02*
X213052380Y-136530032D01*
X227927618Y-123804318D02*
X227927618Y-124832413D01*
X227927618Y-124832413D02*
X227988095Y-124953365D01*
X227988095Y-124953365D02*
X228048571Y-125013842D01*
X228048571Y-125013842D02*
X228169523Y-125074318D01*
X228169523Y-125074318D02*
X228411428Y-125074318D01*
X228411428Y-125074318D02*
X228532380Y-125013842D01*
X228532380Y-125013842D02*
X228592857Y-124953365D01*
X228592857Y-124953365D02*
X228653333Y-124832413D01*
X228653333Y-124832413D02*
X228653333Y-123804318D01*
X229923333Y-125074318D02*
X229197618Y-125074318D01*
X229560475Y-125074318D02*
X229560475Y-123804318D01*
X229560475Y-123804318D02*
X229439523Y-123985746D01*
X229439523Y-123985746D02*
X229318571Y-124106699D01*
X229318571Y-124106699D02*
X229197618Y-124167175D01*
X231072380Y-123804318D02*
X230467618Y-123804318D01*
X230467618Y-123804318D02*
X230407142Y-124409080D01*
X230407142Y-124409080D02*
X230467618Y-124348603D01*
X230467618Y-124348603D02*
X230588571Y-124288127D01*
X230588571Y-124288127D02*
X230890952Y-124288127D01*
X230890952Y-124288127D02*
X231011904Y-124348603D01*
X231011904Y-124348603D02*
X231072380Y-124409080D01*
X231072380Y-124409080D02*
X231132857Y-124530032D01*
X231132857Y-124530032D02*
X231132857Y-124832413D01*
X231132857Y-124832413D02*
X231072380Y-124953365D01*
X231072380Y-124953365D02*
X231011904Y-125013842D01*
X231011904Y-125013842D02*
X230890952Y-125074318D01*
X230890952Y-125074318D02*
X230588571Y-125074318D01*
X230588571Y-125074318D02*
X230467618Y-125013842D01*
X230467618Y-125013842D02*
X230407142Y-124953365D01*
X223177618Y-133204318D02*
X223177618Y-134232413D01*
X223177618Y-134232413D02*
X223238095Y-134353365D01*
X223238095Y-134353365D02*
X223298571Y-134413842D01*
X223298571Y-134413842D02*
X223419523Y-134474318D01*
X223419523Y-134474318D02*
X223661428Y-134474318D01*
X223661428Y-134474318D02*
X223782380Y-134413842D01*
X223782380Y-134413842D02*
X223842857Y-134353365D01*
X223842857Y-134353365D02*
X223903333Y-134232413D01*
X223903333Y-134232413D02*
X223903333Y-133204318D01*
X224447618Y-133325270D02*
X224508094Y-133264794D01*
X224508094Y-133264794D02*
X224629047Y-133204318D01*
X224629047Y-133204318D02*
X224931428Y-133204318D01*
X224931428Y-133204318D02*
X225052380Y-133264794D01*
X225052380Y-133264794D02*
X225112856Y-133325270D01*
X225112856Y-133325270D02*
X225173333Y-133446222D01*
X225173333Y-133446222D02*
X225173333Y-133567175D01*
X225173333Y-133567175D02*
X225112856Y-133748603D01*
X225112856Y-133748603D02*
X224387142Y-134474318D01*
X224387142Y-134474318D02*
X225173333Y-134474318D01*
X225596666Y-133204318D02*
X226382857Y-133204318D01*
X226382857Y-133204318D02*
X225959523Y-133688127D01*
X225959523Y-133688127D02*
X226140952Y-133688127D01*
X226140952Y-133688127D02*
X226261904Y-133748603D01*
X226261904Y-133748603D02*
X226322380Y-133809080D01*
X226322380Y-133809080D02*
X226382857Y-133930032D01*
X226382857Y-133930032D02*
X226382857Y-134232413D01*
X226382857Y-134232413D02*
X226322380Y-134353365D01*
X226322380Y-134353365D02*
X226261904Y-134413842D01*
X226261904Y-134413842D02*
X226140952Y-134474318D01*
X226140952Y-134474318D02*
X225778095Y-134474318D01*
X225778095Y-134474318D02*
X225657142Y-134413842D01*
X225657142Y-134413842D02*
X225596666Y-134353365D01*
X179612618Y-112804318D02*
X179612618Y-113832413D01*
X179612618Y-113832413D02*
X179673095Y-113953365D01*
X179673095Y-113953365D02*
X179733571Y-114013842D01*
X179733571Y-114013842D02*
X179854523Y-114074318D01*
X179854523Y-114074318D02*
X180096428Y-114074318D01*
X180096428Y-114074318D02*
X180217380Y-114013842D01*
X180217380Y-114013842D02*
X180277857Y-113953365D01*
X180277857Y-113953365D02*
X180338333Y-113832413D01*
X180338333Y-113832413D02*
X180338333Y-112804318D01*
X181608333Y-114074318D02*
X180882618Y-114074318D01*
X181245475Y-114074318D02*
X181245475Y-112804318D01*
X181245475Y-112804318D02*
X181124523Y-112985746D01*
X181124523Y-112985746D02*
X181003571Y-113106699D01*
X181003571Y-113106699D02*
X180882618Y-113167175D01*
X182092142Y-112925270D02*
X182152618Y-112864794D01*
X182152618Y-112864794D02*
X182273571Y-112804318D01*
X182273571Y-112804318D02*
X182575952Y-112804318D01*
X182575952Y-112804318D02*
X182696904Y-112864794D01*
X182696904Y-112864794D02*
X182757380Y-112925270D01*
X182757380Y-112925270D02*
X182817857Y-113046222D01*
X182817857Y-113046222D02*
X182817857Y-113167175D01*
X182817857Y-113167175D02*
X182757380Y-113348603D01*
X182757380Y-113348603D02*
X182031666Y-114074318D01*
X182031666Y-114074318D02*
X182817857Y-114074318D01*
X149872380Y-134804318D02*
X149872380Y-135832413D01*
X149872380Y-135832413D02*
X149932857Y-135953365D01*
X149932857Y-135953365D02*
X149993333Y-136013842D01*
X149993333Y-136013842D02*
X150114285Y-136074318D01*
X150114285Y-136074318D02*
X150356190Y-136074318D01*
X150356190Y-136074318D02*
X150477142Y-136013842D01*
X150477142Y-136013842D02*
X150537619Y-135953365D01*
X150537619Y-135953365D02*
X150598095Y-135832413D01*
X150598095Y-135832413D02*
X150598095Y-134804318D01*
X151081904Y-134804318D02*
X151928571Y-134804318D01*
X151928571Y-134804318D02*
X151384285Y-136074318D01*
D12*
G04 #@! TO.C,U19*
X248374000Y-137004000D02*
X248374000Y-133996000D01*
X248374000Y-133996000D02*
X234150000Y-133996000D01*
X232626000Y-137004000D02*
X248374000Y-137004000D01*
X232626000Y-135500000D02*
X232626000Y-137004000D01*
D13*
G04 #@! TO.C,R2*
X207437742Y-135977500D02*
X207912258Y-135977500D01*
X207437742Y-137022500D02*
X207912258Y-137022500D01*
G04 #@! TO.C,R1*
X207437742Y-133477500D02*
X207912258Y-133477500D01*
X207437742Y-134522500D02*
X207912258Y-134522500D01*
G04 #@! TO.C,R3*
X219437742Y-135977500D02*
X219912258Y-135977500D01*
X219437742Y-137022500D02*
X219912258Y-137022500D01*
D12*
G04 #@! TO.C,U10*
X187626000Y-135500000D02*
X187626000Y-137004000D01*
X187626000Y-137004000D02*
X203374000Y-137004000D01*
X203374000Y-133996000D02*
X189150000Y-133996000D01*
X203374000Y-137004000D02*
X203374000Y-133996000D01*
G04 #@! TO.C,U21*
X258896000Y-110500000D02*
X258896000Y-112004000D01*
X258896000Y-112004000D02*
X267024000Y-112004000D01*
X267024000Y-108996000D02*
X260420000Y-108996000D01*
X267024000Y-112004000D02*
X267024000Y-108996000D01*
D13*
G04 #@! TO.C,R4*
X219437742Y-133477500D02*
X219912258Y-133477500D01*
X219437742Y-134522500D02*
X219912258Y-134522500D01*
D14*
G04 #@! TO.C,U3*
X132925000Y-124460000D02*
X141075000Y-124460000D01*
X132925000Y-134620000D02*
X132925000Y-124460000D01*
X141075000Y-124460000D02*
X141075000Y-134620000D01*
X141075000Y-134620000D02*
X132925000Y-134620000D01*
D12*
X137050000Y-123650000D02*
G75*
G02*
X136950000Y-123650000I-50000J0D01*
G01*
X136950000Y-123650000D02*
G75*
G02*
X137050000Y-123650000I50000J0D01*
G01*
G04 #@! TO.C,U22*
X223175000Y-135675000D02*
X223175000Y-137325000D01*
X223175000Y-137325000D02*
X225500000Y-137325000D01*
X225500000Y-135675000D02*
X223175000Y-135675000D01*
G04 #@! TO.C,U11*
X187649500Y-110500500D02*
X187649500Y-111940500D01*
X187649500Y-111940500D02*
X208350500Y-111940500D01*
X208350500Y-109059500D02*
X189109500Y-109059500D01*
X208350500Y-111940500D02*
X208350500Y-109059500D01*
G04 #@! TO.C,U8*
X169850500Y-111940500D02*
X169850500Y-109059500D01*
X169850500Y-109059500D02*
X150609500Y-109059500D01*
X149149500Y-111940500D02*
X169850500Y-111940500D01*
X149149500Y-110500500D02*
X149149500Y-111940500D01*
G04 #@! TO.C,U16*
X240476000Y-110500000D02*
X240476000Y-112004000D01*
X240476000Y-112004000D02*
X248604000Y-112004000D01*
X248604000Y-108996000D02*
X242000000Y-108996000D01*
X248604000Y-112004000D02*
X248604000Y-108996000D01*
G04 #@! TO.C,U18*
X250625000Y-124500000D02*
G75*
G02*
X240375000Y-124500000I-5125000J0D01*
G01*
X240375000Y-124500000D02*
G75*
G02*
X250625000Y-124500000I5125000J0D01*
G01*
D13*
G04 #@! TO.C,U17*
X245359420Y-115490000D02*
X245640580Y-115490000D01*
X245359420Y-116510000D02*
X245640580Y-116510000D01*
D12*
G04 #@! TO.C,U13*
X227976000Y-110500000D02*
X227976000Y-112004000D01*
X227976000Y-112004000D02*
X236104000Y-112004000D01*
X236104000Y-108996000D02*
X229500000Y-108996000D01*
X236104000Y-112004000D02*
X236104000Y-108996000D01*
G04 #@! TO.C,U20*
X258896000Y-135500000D02*
X258896000Y-137004000D01*
X258896000Y-137004000D02*
X267024000Y-137004000D01*
X267024000Y-133996000D02*
X260420000Y-133996000D01*
X267024000Y-137004000D02*
X267024000Y-133996000D01*
G04 #@! TO.C,U4*
X136250000Y-111460000D02*
X136250000Y-116540000D01*
X136250000Y-116540000D02*
X138750000Y-116540000D01*
X137500000Y-111460000D02*
X136250000Y-111460000D01*
X138750000Y-116540000D02*
X138750000Y-112730000D01*
G04 #@! TO.C,U5*
X211175000Y-133175000D02*
X211175000Y-134825000D01*
X211175000Y-134825000D02*
X213500000Y-134825000D01*
X213500000Y-133175000D02*
X211175000Y-133175000D01*
G04 #@! TO.C,U2*
X146200000Y-113500000D02*
X144800000Y-113500000D01*
D13*
G04 #@! TO.C,U14*
X231859420Y-115490000D02*
X232140580Y-115490000D01*
X231859420Y-116510000D02*
X232140580Y-116510000D01*
D14*
G04 #@! TO.C,U9*
X212565000Y-109425000D02*
X222725000Y-109425000D01*
X212565000Y-117575000D02*
X212565000Y-109425000D01*
X222725000Y-109425000D02*
X222725000Y-117575000D01*
X222725000Y-117575000D02*
X212565000Y-117575000D01*
D12*
X223585000Y-113500000D02*
G75*
G02*
X223485000Y-113500000I-50000J0D01*
G01*
X223485000Y-113500000D02*
G75*
G02*
X223585000Y-113500000I50000J0D01*
G01*
G04 #@! TO.C,U1*
X148250000Y-129000000D02*
G75*
G02*
X142750000Y-129000000I-2750000J0D01*
G01*
X142750000Y-129000000D02*
G75*
G02*
X148250000Y-129000000I2750000J0D01*
G01*
G04 #@! TO.C,U6*
X211175000Y-135675000D02*
X211175000Y-137325000D01*
X211175000Y-137325000D02*
X213500000Y-137325000D01*
X213500000Y-135675000D02*
X211175000Y-135675000D01*
G04 #@! TO.C,U15*
X237125000Y-124500000D02*
G75*
G02*
X226875000Y-124500000I-5125000J0D01*
G01*
X226875000Y-124500000D02*
G75*
G02*
X237125000Y-124500000I5125000J0D01*
G01*
G04 #@! TO.C,U23*
X223175000Y-133075000D02*
X223175000Y-134725000D01*
X223175000Y-134725000D02*
X225500000Y-134725000D01*
X225500000Y-133075000D02*
X223175000Y-133075000D01*
D14*
G04 #@! TO.C,U12*
X173565000Y-109425000D02*
X183725000Y-109425000D01*
X173565000Y-117575000D02*
X173565000Y-109425000D01*
X183725000Y-109425000D02*
X183725000Y-117575000D01*
X183725000Y-117575000D02*
X173565000Y-117575000D01*
D12*
X184585000Y-113500000D02*
G75*
G02*
X184485000Y-113500000I-50000J0D01*
G01*
X184485000Y-113500000D02*
G75*
G02*
X184585000Y-113500000I50000J0D01*
G01*
G04 #@! TO.C,U7*
X165064000Y-137004000D02*
X165064000Y-133996000D01*
X165064000Y-133996000D02*
X150840000Y-133996000D01*
X149316000Y-137004000D02*
X165064000Y-137004000D01*
X149316000Y-135500000D02*
X149316000Y-137004000D01*
G04 #@! TD*
%LPC*%
D15*
G04 #@! TO.C,U19*
X246850000Y-135500000D03*
X244310000Y-135500000D03*
X241770000Y-135500000D03*
X239230000Y-135500000D03*
X236690000Y-135500000D03*
D16*
X234150000Y-135500000D03*
G04 #@! TD*
D17*
G04 #@! TO.C,R2*
X206850000Y-136500000D03*
X208500000Y-136500000D03*
G04 #@! TD*
G04 #@! TO.C,R1*
X206850000Y-134000000D03*
X208500000Y-134000000D03*
G04 #@! TD*
G04 #@! TO.C,R3*
X218850000Y-136500000D03*
X220500000Y-136500000D03*
G04 #@! TD*
D16*
G04 #@! TO.C,U10*
X189150000Y-135500000D03*
D15*
X191690000Y-135500000D03*
X194230000Y-135500000D03*
X196770000Y-135500000D03*
X199310000Y-135500000D03*
X201850000Y-135500000D03*
G04 #@! TD*
D16*
G04 #@! TO.C,U21*
X260420000Y-110500000D03*
D15*
X262960000Y-110500000D03*
X265500000Y-110500000D03*
G04 #@! TD*
D17*
G04 #@! TO.C,R4*
X218850000Y-134000000D03*
X220500000Y-134000000D03*
G04 #@! TD*
D18*
G04 #@! TO.C,U3*
X137000000Y-127000000D03*
D19*
X137000000Y-132080000D03*
G04 #@! TD*
D20*
G04 #@! TO.C,U22*
X224000000Y-136500000D03*
X225500000Y-136500000D03*
G04 #@! TD*
D16*
G04 #@! TO.C,U11*
X189109500Y-110500500D03*
D15*
X191649500Y-110500500D03*
X194189500Y-110500500D03*
X196729500Y-110500500D03*
X199269500Y-110500500D03*
X201809500Y-110500500D03*
X204349500Y-110500500D03*
X206889500Y-110500500D03*
G04 #@! TD*
G04 #@! TO.C,U8*
X168389500Y-110500500D03*
X165849500Y-110500500D03*
X163309500Y-110500500D03*
X160769500Y-110500500D03*
X158229500Y-110500500D03*
X155689500Y-110500500D03*
X153149500Y-110500500D03*
D16*
X150609500Y-110500500D03*
G04 #@! TD*
G04 #@! TO.C,U16*
X242000000Y-110500000D03*
D15*
X244540000Y-110500000D03*
X247080000Y-110500000D03*
G04 #@! TD*
D21*
G04 #@! TO.C,U18*
X243000000Y-124500000D03*
D22*
X248000000Y-124500000D03*
G04 #@! TD*
D23*
G04 #@! TO.C,U17*
X244725000Y-116000000D03*
X246275000Y-116000000D03*
G04 #@! TD*
D16*
G04 #@! TO.C,U13*
X229500000Y-110500000D03*
D15*
X232040000Y-110500000D03*
X234580000Y-110500000D03*
G04 #@! TD*
D16*
G04 #@! TO.C,U20*
X260420000Y-135500000D03*
D15*
X262960000Y-135500000D03*
X265500000Y-135500000D03*
G04 #@! TD*
D16*
G04 #@! TO.C,U4*
X137500000Y-112730000D03*
D15*
X137500000Y-115270000D03*
G04 #@! TD*
D20*
G04 #@! TO.C,U5*
X212000000Y-134000000D03*
X213500000Y-134000000D03*
G04 #@! TD*
D24*
G04 #@! TO.C,U2*
X145500000Y-112110000D03*
X145500000Y-114890000D03*
G04 #@! TD*
D23*
G04 #@! TO.C,U14*
X231225000Y-116000000D03*
X232775000Y-116000000D03*
G04 #@! TD*
D18*
G04 #@! TO.C,U9*
X220185000Y-113500000D03*
D19*
X215105000Y-113500000D03*
G04 #@! TD*
D25*
G04 #@! TO.C,U1*
X145500000Y-128000000D03*
D26*
X145500000Y-130000000D03*
G04 #@! TD*
D20*
G04 #@! TO.C,U6*
X212000000Y-136500000D03*
X213500000Y-136500000D03*
G04 #@! TD*
D21*
G04 #@! TO.C,U15*
X229500000Y-124500000D03*
D22*
X234500000Y-124500000D03*
G04 #@! TD*
D20*
G04 #@! TO.C,U23*
X224000000Y-133900000D03*
X225500000Y-133900000D03*
G04 #@! TD*
D18*
G04 #@! TO.C,U12*
X181185000Y-113500000D03*
D19*
X176105000Y-113500000D03*
G04 #@! TD*
D15*
G04 #@! TO.C,U7*
X163540000Y-135500000D03*
X161000000Y-135500000D03*
X158460000Y-135500000D03*
X155920000Y-135500000D03*
X153380000Y-135500000D03*
D16*
X150840000Y-135500000D03*
G04 #@! TD*
%LPD*%
M02*
